<svg width="19" height="19" viewBox="0 0 19 19" fill="none" xmlns="http://www.w3.org/2000/svg">
<path d="M16.0033 10.047C15.8017 10.047 15.5908 9.98279 15.3892 9.93696C14.9808 9.84696 14.5794 9.72748 14.1883 9.57946C13.7631 9.42475 13.2956 9.43279 12.8759 9.60201C12.4563 9.77124 12.114 10.0897 11.915 10.4961L11.7133 10.9086C10.8205 10.412 10.0001 9.79509 9.27499 9.07529C8.55519 8.35022 7.93832 7.52979 7.44165 6.63696L7.82665 6.38029C8.23307 6.1813 8.55154 5.83903 8.72077 5.41934C8.88999 4.99966 8.89803 4.53221 8.74332 4.10696C8.59777 3.71501 8.47835 3.31386 8.38582 2.90612C8.33999 2.70446 8.30332 2.49362 8.27582 2.28279C8.16451 1.63711 7.82631 1.05239 7.32214 0.633927C6.81797 0.215466 6.18096 -0.00923435 5.52582 0.000290861H2.77582C2.38077 -0.00341847 1.98955 0.0780365 1.6288 0.23911C1.26806 0.400184 0.946254 0.637096 0.685298 0.933716C0.424341 1.23034 0.23036 1.5797 0.116559 1.95803C0.00275797 2.33636 -0.0281907 2.73476 0.0258199 3.12612C0.514163 6.96639 2.26801 10.5345 5.01033 13.2669C7.75266 15.9992 11.3271 17.7401 15.1692 18.2145H15.5175C16.1935 18.2154 16.8461 17.9674 17.3508 17.5178C17.6408 17.2584 17.8725 16.9405 18.0305 16.5849C18.1885 16.2294 18.2693 15.8444 18.2675 15.4553V12.7053C18.2563 12.0686 18.0244 11.4555 17.6115 10.9707C17.1985 10.4858 16.6302 10.1594 16.0033 10.047ZM16.4617 15.547C16.4615 15.6771 16.4336 15.8057 16.3799 15.9243C16.3261 16.0428 16.2478 16.1486 16.15 16.2345C16.0476 16.3229 15.9278 16.389 15.7984 16.4284C15.6689 16.4679 15.5327 16.4799 15.3983 16.4636C11.9653 16.0234 8.77654 14.4529 6.33498 11.9997C3.89342 9.54655 2.33803 6.35035 1.91415 2.91529C1.89956 2.78102 1.91235 2.64518 1.95174 2.51598C1.99113 2.38679 2.0563 2.26692 2.14332 2.16362C2.22922 2.06584 2.33496 1.98748 2.4535 1.93374C2.57204 1.88 2.70067 1.85212 2.83082 1.85196H5.58082C5.79399 1.84721 6.00214 1.91693 6.16945 2.04911C6.33676 2.18128 6.45276 2.36765 6.49749 2.57612C6.53415 2.82668 6.57999 3.07418 6.63499 3.31862C6.74088 3.80184 6.88181 4.27671 7.05665 4.73946L5.77332 5.33529C5.66359 5.38563 5.56489 5.45716 5.48288 5.54575C5.40087 5.63435 5.33717 5.73827 5.29544 5.85155C5.2537 5.96483 5.23475 6.08524 5.23968 6.20587C5.24461 6.32649 5.27332 6.44496 5.32415 6.55446C6.64342 9.38032 8.91496 11.6519 11.7408 12.9711C11.964 13.0628 12.2143 13.0628 12.4375 12.9711C12.5518 12.9302 12.6569 12.867 12.7466 12.7852C12.8363 12.7034 12.9088 12.6046 12.96 12.4945L13.5283 11.2111C14.0022 11.3806 14.4859 11.5214 14.9767 11.6328C15.2211 11.6878 15.4686 11.7336 15.7192 11.7703C15.9276 11.815 16.114 11.931 16.2462 12.0983C16.3783 12.2656 16.4481 12.4738 16.4433 12.687L16.4617 15.547Z" fill="white"/>
</svg>
