<svg width="61" height="69" viewBox="0 0 61 69" fill="none" xmlns="http://www.w3.org/2000/svg">
<path d="M49.3115 34.3701C50.3498 34.3701 51.1914 33.5283 51.1914 32.49C51.1914 31.4517 50.3498 30.6101 49.3115 30.6101C48.2732 30.6101 47.4316 31.4517 47.4316 32.49C47.4316 33.5283 48.2732 34.3701 49.3115 34.3701Z" fill="white"/>
<path d="M49.3228 29.52C50.2948 29.52 51.0825 28.732 51.0825 27.76C51.0825 26.788 50.2948 26 49.3228 26C48.3507 26 47.5625 26.788 47.5625 27.76C47.5625 28.732 48.3507 29.52 49.3228 29.52Z" fill="white"/>
<path d="M49.3315 24.6699C50.2373 24.6699 50.9717 23.9358 50.9717 23.03C50.9717 22.1243 50.2373 21.3901 49.3315 21.3901C48.4258 21.3901 47.6914 22.1243 47.6914 23.03C47.6914 23.9358 48.4258 24.6699 49.3315 24.6699Z" fill="white"/>
<path d="M45.3213 22.1401C46.1663 22.1401 46.8511 21.4551 46.8511 20.6101C46.8511 19.7651 46.1663 19.0801 45.3213 19.0801C44.4763 19.0801 43.791 19.7651 43.791 20.6101C43.791 21.4551 44.4763 22.1401 45.3213 22.1401Z" fill="white"/>
<path d="M41.2319 19.6599C42.0107 19.6599 42.6421 19.0287 42.6421 18.25C42.6421 17.4713 42.0107 16.8401 41.2319 16.8401C40.4532 16.8401 39.8223 17.4713 39.8223 18.25C39.8223 19.0287 40.4532 19.6599 41.2319 19.6599Z" fill="white"/>
<path d="M37.1313 17.1699C37.8438 17.1699 38.4214 16.5926 38.4214 15.8801C38.4214 15.1677 37.8438 14.5901 37.1313 14.5901C36.4189 14.5901 35.8418 15.1677 35.8418 15.8801C35.8418 16.5926 36.4189 17.1699 37.1313 17.1699Z" fill="white"/>
<path d="M33.041 14.6899C33.6872 14.6899 34.2109 14.1662 34.2109 13.52C34.2109 12.8738 33.6872 12.3501 33.041 12.3501C32.3948 12.3501 31.8711 12.8738 31.8711 13.52C31.8711 14.1662 32.3948 14.6899 33.041 14.6899Z" fill="white"/>
<path d="M28.9404 12.2C29.5203 12.2 29.9907 11.73 29.9907 11.1501C29.9907 10.5702 29.5203 10.1001 28.9404 10.1001C28.3605 10.1001 27.8906 10.5702 27.8906 11.1501C27.8906 11.73 28.3605 12.2 28.9404 12.2Z" fill="white"/>
<path d="M24.8521 9.71997C25.3657 9.71997 25.7822 9.30366 25.7822 8.79004C25.7822 8.27641 25.3657 7.86011 24.8521 7.86011C24.3384 7.86011 23.9219 8.27641 23.9219 8.79004C23.9219 9.30366 24.3384 9.71997 24.8521 9.71997Z" fill="white"/>
<path d="M20.7515 7.22998C21.1988 7.22998 21.5615 6.86727 21.5615 6.41992C21.5615 5.97257 21.1988 5.61011 20.7515 5.61011C20.3041 5.61011 19.9414 5.97257 19.9414 6.41992C19.9414 6.86727 20.3041 7.22998 20.7515 7.22998Z" fill="white"/>
<path d="M54.4619 31.3901C55.5002 31.3901 56.3423 30.5483 56.3423 29.51C56.3423 28.4717 55.5002 27.6301 54.4619 27.6301C53.4236 27.6301 52.582 28.4717 52.582 29.51C52.582 30.5483 53.4236 31.3901 54.4619 31.3901Z" fill="white"/>
<path d="M54.4731 26.54C55.4452 26.54 56.2329 25.7521 56.2329 24.78C56.2329 23.808 55.4452 23.02 54.4731 23.02C53.5011 23.02 52.7129 23.808 52.7129 24.78C52.7129 25.7521 53.5011 26.54 54.4731 26.54Z" fill="white"/>
<path d="M54.4917 21.7C55.3974 21.7 56.1313 20.9658 56.1313 20.0601C56.1313 19.1543 55.3974 18.4199 54.4917 18.4199C53.586 18.4199 52.8516 19.1543 52.8516 20.0601C52.8516 20.9658 53.586 21.7 54.4917 21.7Z" fill="white"/>
<path d="M50.4717 19.21C51.3167 19.21 52.0015 18.5249 52.0015 17.6799C52.0015 16.8349 51.3167 16.1501 50.4717 16.1501C49.6267 16.1501 48.9414 16.8349 48.9414 17.6799C48.9414 18.5249 49.6267 19.21 50.4717 19.21Z" fill="white"/>
<path d="M46.3516 16.77C47.1303 16.77 47.7617 16.1388 47.7617 15.3601C47.7617 14.5814 47.1303 13.95 46.3516 13.95C45.5728 13.95 44.9414 14.5814 44.9414 15.3601C44.9414 16.1388 45.5728 16.77 46.3516 16.77Z" fill="white"/>
<path d="M42.2432 14.3301C42.9556 14.3301 43.5332 13.7525 43.5332 13.04C43.5332 12.3276 42.9556 11.75 42.2432 11.75C41.5307 11.75 40.9531 12.3276 40.9531 13.04C40.9531 13.7525 41.5307 14.3301 42.2432 14.3301Z" fill="white"/>
<path d="M38.123 11.8901C38.7692 11.8901 39.293 11.3661 39.293 10.72C39.293 10.0738 38.7692 9.55005 38.123 9.55005C37.4769 9.55005 36.9531 10.0738 36.9531 10.72C36.9531 11.3661 37.4769 11.8901 38.123 11.8901Z" fill="white"/>
<path d="M34.0132 9.44995C34.5931 9.44995 35.063 8.98005 35.063 8.40015C35.063 7.82025 34.5931 7.3501 34.0132 7.3501C33.4333 7.3501 32.9629 7.82025 32.9629 8.40015C32.9629 8.98005 33.4333 9.44995 34.0132 9.44995Z" fill="white"/>
<path d="M29.8931 7.01001C30.4067 7.01001 30.8232 6.5937 30.8232 6.08008C30.8232 5.56645 30.4067 5.15015 29.8931 5.15015C29.3794 5.15015 28.9629 5.56645 28.9629 6.08008C28.9629 6.5937 29.3794 7.01001 29.8931 7.01001Z" fill="white"/>
<path d="M25.7827 4.57007C26.2301 4.57007 26.5928 4.20736 26.5928 3.76001C26.5928 3.31266 26.2301 2.94995 25.7827 2.94995C25.3354 2.94995 24.9727 3.31266 24.9727 3.76001C24.9727 4.20736 25.3354 4.57007 25.7827 4.57007Z" fill="white"/>
<path d="M58.8838 28.9299C59.9221 28.9299 60.7642 28.0883 60.7642 27.05C60.7642 26.0118 59.9221 25.1699 58.8838 25.1699C57.8455 25.1699 57.0039 26.0118 57.0039 27.05C57.0039 28.0883 57.8455 28.9299 58.8838 28.9299Z" fill="white"/>
<path d="M58.8931 24.0801C59.8651 24.0801 60.6528 23.2921 60.6528 22.3201C60.6528 21.348 59.8651 20.5601 58.8931 20.5601C57.921 20.5601 57.1328 21.348 57.1328 22.3201C57.1328 23.2921 57.921 24.0801 58.8931 24.0801Z" fill="white"/>
<path d="M58.9033 19.22C59.8091 19.22 60.5435 18.4858 60.5435 17.5801C60.5435 16.6743 59.8091 15.9399 58.9033 15.9399C57.9976 15.9399 57.2637 16.6743 57.2637 17.5801C57.2637 18.4858 57.9976 19.22 58.9033 19.22Z" fill="white"/>
<path d="M55.3037 16.46C56.1487 16.46 56.8335 15.7749 56.8335 14.9299C56.8335 14.0849 56.1487 13.4001 55.3037 13.4001C54.4587 13.4001 53.7734 14.0849 53.7734 14.9299C53.7734 15.7749 54.4587 16.46 55.3037 16.46Z" fill="white"/>
<path d="M51.1929 13.99C51.9716 13.99 52.603 13.3588 52.603 12.5801C52.603 11.8014 51.9716 11.1699 51.1929 11.1699C50.4141 11.1699 49.7832 11.8014 49.7832 12.5801C49.7832 13.3588 50.4141 13.99 51.1929 13.99Z" fill="white"/>
<path d="M47.0947 11.51C47.8072 11.51 48.3843 10.9324 48.3843 10.22C48.3843 9.50752 47.8072 8.92993 47.0947 8.92993C46.3823 8.92993 45.8047 9.50752 45.8047 10.22C45.8047 10.9324 46.3823 11.51 47.0947 11.51Z" fill="white"/>
<path d="M42.9824 9.04004C43.6286 9.04004 44.1523 8.51629 44.1523 7.87012C44.1523 7.22394 43.6286 6.69995 42.9824 6.69995C42.3362 6.69995 41.8125 7.22394 41.8125 7.87012C41.8125 8.51629 42.3362 9.04004 42.9824 9.04004Z" fill="white"/>
<path d="M38.874 6.57007C39.4539 6.57007 39.9238 6.09992 39.9238 5.52002C39.9238 4.94012 39.4539 4.46997 38.874 4.46997C38.2941 4.46997 37.8242 4.94012 37.8242 5.52002C37.8242 6.09992 38.2941 6.57007 38.874 6.57007Z" fill="white"/>
<path d="M34.7642 4.09009C35.2778 4.09009 35.6938 3.67354 35.6938 3.15991C35.6938 2.64629 35.2778 2.22998 34.7642 2.22998C34.2505 2.22998 33.834 2.64629 33.834 3.15991C33.834 3.67354 34.2505 4.09009 34.7642 4.09009Z" fill="white"/>
<path d="M30.6533 1.62012C31.1007 1.62012 31.4634 1.25741 31.4634 0.810059C31.4634 0.362708 31.1007 0 30.6533 0C30.206 0 29.8438 0.362708 29.8438 0.810059C29.8438 1.25741 30.206 1.62012 30.6533 1.62012Z" fill="white"/>
<path d="M23.405 51.3491C23.9175 50.4462 23.6008 49.2987 22.6979 48.7862C21.7949 48.2736 20.6476 48.5901 20.135 49.4931C19.6225 50.396 19.9389 51.5434 20.8419 52.0559C21.7449 52.5685 22.8924 52.2521 23.405 51.3491Z" fill="white"/>
<path d="M27.438 53.6443C27.9178 52.7989 27.6214 51.7249 26.7761 51.2451C25.9307 50.7652 24.8566 51.0613 24.3767 51.9067C23.8969 52.752 24.1931 53.8265 25.0384 54.3063C25.8838 54.7861 26.9582 54.4896 27.438 53.6443Z" fill="white"/>
<path d="M31.4764 55.9549C31.9235 55.1672 31.6473 54.166 30.8596 53.7189C30.0719 53.2718 29.071 53.5481 28.6238 54.3358C28.1767 55.1235 28.4529 56.1241 29.2406 56.5712C30.0283 57.0183 31.0293 56.7426 31.4764 55.9549Z" fill="white"/>
<path d="M35.5375 53.5774C35.9546 52.8425 35.6969 51.9088 34.962 51.4917C34.2272 51.0746 33.2934 51.3319 32.8763 52.0668C32.4591 52.8017 32.7168 53.7354 33.4517 54.1525C34.1866 54.5696 35.1204 54.3122 35.5375 53.5774Z" fill="white"/>
<path d="M39.5857 51.1839C39.9701 50.5066 39.7329 49.6459 39.0556 49.2615C38.3784 48.8771 37.5178 49.1147 37.1334 49.7919C36.749 50.4691 36.9864 51.3294 37.6637 51.7138C38.3409 52.0982 39.2013 51.8611 39.5857 51.1839Z" fill="white"/>
<path d="M43.6402 48.7817C43.9919 48.1621 43.7747 47.3747 43.1551 47.023C42.5355 46.6713 41.7483 46.8886 41.3966 47.5082C41.0449 48.1278 41.2619 48.9151 41.8815 49.2668C42.5011 49.6185 43.2885 49.4013 43.6402 48.7817Z" fill="white"/>
<path d="M47.681 46.3833C48 45.8214 47.803 45.1073 47.2411 44.7884C46.6791 44.4694 45.9649 44.6662 45.6459 45.2282C45.3269 45.7901 45.5241 46.5043 46.086 46.8232C46.648 47.1422 47.362 46.9453 47.681 46.3833Z" fill="white"/>
<path d="M51.7313 43.9799C52.0176 43.4756 51.8409 42.8344 51.3366 42.5482C50.8323 42.2619 50.1912 42.4389 49.9049 42.9432C49.6187 43.4475 49.7956 44.0883 50.2999 44.3745C50.8042 44.6608 51.4451 44.4842 51.7313 43.9799Z" fill="white"/>
<path d="M55.7839 41.5778C56.0374 41.1311 55.8808 40.5632 55.4341 40.3097C54.9874 40.0561 54.4197 40.2129 54.1662 40.6596C53.9127 41.1062 54.0691 41.674 54.5158 41.9276C54.9624 42.1811 55.5303 42.0245 55.7839 41.5778Z" fill="white"/>
<path d="M59.8342 39.1844C60.0551 38.7953 59.9187 38.3009 59.5296 38.08C59.1406 37.8592 58.6461 37.9956 58.4253 38.3846C58.2044 38.7737 58.3408 39.2682 58.7299 39.489C59.1189 39.7098 59.6134 39.5734 59.8342 39.1844Z" fill="white"/>
<path d="M23.4499 57.3015C23.9624 56.3986 23.6458 55.2511 22.7428 54.7386C21.8398 54.226 20.6925 54.5425 20.1799 55.4454C19.6674 56.3484 19.9839 57.4958 20.8868 58.0083C21.7898 58.5208 22.9374 58.2045 23.4499 57.3015Z" fill="white"/>
<path d="M27.4907 59.6116C27.9705 58.7662 27.6741 57.6922 26.8288 57.2123C25.9835 56.7325 24.9093 57.0286 24.4295 57.8739C23.9496 58.7193 24.2458 59.7938 25.0912 60.2736C25.9365 60.7534 27.0109 60.4569 27.4907 59.6116Z" fill="white"/>
<path d="M31.5213 61.9173C31.9684 61.1296 31.6925 60.1285 30.9048 59.6814C30.1171 59.2343 29.1159 59.5105 28.6688 60.2982C28.2217 61.0859 28.498 62.0866 29.2857 62.5338C30.0734 62.9809 31.0742 62.705 31.5213 61.9173Z" fill="white"/>
<path d="M35.5668 59.5024C35.9839 58.7676 35.7262 57.8339 34.9913 57.4167C34.2565 56.9996 33.3227 57.257 32.9056 57.9919C32.4884 58.7267 32.7461 59.6604 33.481 60.0775C34.2159 60.4947 35.1497 60.2373 35.5668 59.5024Z" fill="white"/>
<path d="M39.5898 57.0565C39.9742 56.3793 39.7368 55.5185 39.0595 55.1341C38.3823 54.7497 37.5217 54.9872 37.1373 55.6644C36.7529 56.3417 36.9903 57.202 37.6676 57.5864C38.3448 57.9708 39.2054 57.7338 39.5898 57.0565Z" fill="white"/>
<path d="M43.6148 54.6209C43.9664 54.0013 43.7493 53.2139 43.1297 52.8622C42.5101 52.5105 41.7226 52.7277 41.3709 53.3473C41.0193 53.9669 41.2367 54.7539 41.8563 55.1056C42.4759 55.4573 43.2631 55.2405 43.6148 54.6209Z" fill="white"/>
<path d="M47.64 52.1848C47.9589 51.6229 47.762 50.9088 47.2 50.5899C46.6381 50.2709 45.9238 50.4677 45.6049 51.0297C45.2859 51.5916 45.483 52.3058 46.045 52.6248C46.607 52.9437 47.321 52.7468 47.64 52.1848Z" fill="white"/>
<path d="M51.6688 49.7407C51.9551 49.2363 51.7784 48.5952 51.2741 48.3089C50.7698 48.0226 50.1287 48.1996 49.8424 48.704C49.5562 49.2083 49.7331 49.849 50.2374 50.1353C50.7417 50.4215 51.3826 50.245 51.6688 49.7407Z" fill="white"/>
<path d="M55.7038 47.3043C55.9573 46.8577 55.8007 46.2903 55.354 46.0368C54.9073 45.7832 54.3397 45.9394 54.0861 46.3861C53.8326 46.8328 53.9892 47.4007 54.4359 47.6542C54.8826 47.9078 55.4503 47.751 55.7038 47.3043Z" fill="white"/>
<path d="M59.7288 44.8687C59.9496 44.4797 59.8132 43.9852 59.4242 43.7644C59.0351 43.5435 58.5406 43.6799 58.3198 44.069C58.099 44.458 58.2354 44.9525 58.6244 45.1733C59.0134 45.3941 59.5079 45.2578 59.7288 44.8687Z" fill="white"/>
<path d="M23.4479 62.3792C23.9605 61.4762 23.6438 60.3287 22.7408 59.8162C21.8379 59.3037 20.6905 59.6201 20.178 60.5231C19.6654 61.4261 19.9819 62.5734 20.8849 63.0859C21.7878 63.5985 22.9354 63.2821 23.4479 62.3792Z" fill="white"/>
<path d="M27.4888 64.6892C27.9686 63.8439 27.6722 62.7698 26.8268 62.29C25.9815 61.8102 24.9073 62.1063 24.4275 62.9516C23.9477 63.7969 24.2439 64.8714 25.0892 65.3512C25.9346 65.8311 27.0089 65.5345 27.4888 64.6892Z" fill="white"/>
<path d="M31.5193 66.9849C31.9665 66.1972 31.6903 65.1961 30.9026 64.7489C30.1149 64.3018 29.1139 64.5781 28.6668 65.3658C28.2197 66.1535 28.4959 67.1542 29.2836 67.6013C30.0713 68.0484 31.0722 67.7726 31.5193 66.9849Z" fill="white"/>
<path d="M35.5433 65.0112C35.9605 64.2763 35.703 63.3422 34.9681 62.9251C34.2333 62.508 33.2992 62.7658 32.8821 63.5007C32.465 64.2355 32.7227 65.1692 33.4576 65.5863C34.1924 66.0035 35.1262 65.7461 35.5433 65.0112Z" fill="white"/>
<path d="M39.5722 62.5739C39.9566 61.8966 39.7192 61.0358 39.042 60.6514C38.3647 60.267 37.5041 60.5045 37.1197 61.1818C36.7353 61.859 36.9728 62.7193 37.65 63.1037C38.3272 63.4881 39.1878 63.2511 39.5722 62.5739Z" fill="white"/>
<path d="M43.5972 60.1382C43.9489 59.5186 43.7317 58.7312 43.1121 58.3795C42.4925 58.0278 41.7051 58.245 41.3534 58.8646C41.0017 59.4842 41.2191 60.2712 41.8387 60.6229C42.4583 60.9746 43.2455 60.7578 43.5972 60.1382Z" fill="white"/>
<path d="M47.6126 57.6873C47.9316 57.1253 47.7346 56.4113 47.1727 56.0923C46.6107 55.7733 45.8965 55.9702 45.5775 56.5321C45.2585 57.0941 45.4557 57.8082 46.0177 58.1272C46.5796 58.4462 47.2936 58.2492 47.6126 57.6873Z" fill="white"/>
<path d="M51.6337 55.2504C51.9199 54.7461 51.7433 54.1049 51.2389 53.8187C50.7346 53.5324 50.0935 53.7094 49.8073 54.2137C49.521 54.718 49.6979 55.3588 50.2023 55.6451C50.7066 55.9313 51.3474 55.7547 51.6337 55.2504Z" fill="white"/>
<path d="M55.6589 52.7992C55.9124 52.3525 55.7558 51.7852 55.3091 51.5316C54.8624 51.2781 54.2947 51.4343 54.0412 51.881C53.7877 52.3277 53.9443 52.8956 54.391 53.1491C54.8377 53.4027 55.4053 53.2459 55.6589 52.7992Z" fill="white"/>
<path d="M59.6838 50.3536C59.9047 49.9645 59.7683 49.47 59.3792 49.2492C58.9902 49.0284 58.4957 49.1648 58.2749 49.5538C58.054 49.9429 58.1904 50.4373 58.5795 50.6582C58.9685 50.879 59.463 50.7426 59.6838 50.3536Z" fill="white"/>
<path d="M21.2363 19.0927C22.1316 18.5669 22.4312 17.4151 21.9055 16.5197C21.3798 15.6244 20.2278 15.3245 19.3325 15.8503C18.4371 16.376 18.1372 17.5283 18.6629 18.4237C19.1886 19.319 20.3409 19.6184 21.2363 19.0927Z" fill="white"/>
<path d="M17.062 21.3936C17.9002 20.9014 18.1805 19.823 17.6883 18.9848C17.1961 18.1466 16.1179 17.8659 15.2797 18.3581C14.4414 18.8503 14.1607 19.9289 14.6529 20.7671C15.145 21.6053 16.2237 21.8857 17.062 21.3936Z" fill="white"/>
<path d="M12.874 23.6959C13.655 23.2373 13.9166 22.2324 13.458 21.4513C12.9994 20.6703 11.9942 20.4088 11.2132 20.8674C10.4321 21.326 10.1707 22.3312 10.6293 23.1122C11.0879 23.8933 12.0929 24.1545 12.874 23.6959Z" fill="white"/>
<path d="M12.7524 28.3576C13.4763 27.9326 13.7186 27.0011 13.2935 26.2772C12.8685 25.5533 11.937 25.311 11.2131 25.7361C10.4892 26.1612 10.2469 27.0926 10.672 27.8165C11.097 28.5404 12.0285 28.7827 12.7524 28.3576Z" fill="white"/>
<path d="M12.6523 33.0177C13.3191 32.6262 13.5426 31.7682 13.1511 31.1014C12.7596 30.4346 11.9013 30.2116 11.2345 30.6031C10.5678 30.9946 10.3448 31.8525 10.7363 32.5193C11.1278 33.186 11.9855 33.4092 12.6523 33.0177Z" fill="white"/>
<path d="M12.556 37.6963C13.1656 37.3383 13.3698 36.5538 13.0119 35.9442C12.6539 35.3346 11.8695 35.1309 11.2599 35.4888C10.6502 35.8468 10.4463 36.6308 10.8042 37.2404C11.1622 37.8501 11.9464 38.0542 12.556 37.6963Z" fill="white"/>
<path d="M12.4564 42.3562C13.0089 42.0319 13.1934 41.3211 12.869 40.7686C12.5446 40.2162 11.8342 40.0312 11.2817 40.3556C10.7292 40.6799 10.5442 41.3908 10.8686 41.9432C11.1929 42.4957 11.904 42.6806 12.4564 42.3562Z" fill="white"/>
<path d="M12.3563 47.0265C12.8516 46.7357 13.0174 46.0984 12.7266 45.603C12.4358 45.1077 11.7984 44.942 11.3031 45.2328C10.8078 45.5236 10.642 46.161 10.9329 46.6563C11.2237 47.1516 11.861 47.3173 12.3563 47.0265Z" fill="white"/>
<path d="M12.2562 51.6968C12.6944 51.4395 12.8409 50.8757 12.5836 50.4375C12.3263 49.9994 11.7627 49.8527 11.3245 50.11C10.8864 50.3673 10.7398 50.9309 10.997 51.3691C11.2543 51.8072 11.8181 51.9541 12.2562 51.6968Z" fill="white"/>
<path d="M12.1614 56.3655C12.5472 56.139 12.6763 55.6425 12.4498 55.2568C12.2233 54.871 11.7269 54.7419 11.3411 54.9684C10.9554 55.1949 10.8262 55.6913 11.0527 56.0771C11.2792 56.4629 11.7757 56.592 12.1614 56.3655Z" fill="white"/>
<path d="M16.0601 16.1503C16.9554 15.6246 17.255 14.4727 16.7293 13.5773C16.2036 12.682 15.0516 12.3822 14.1562 12.9079C13.2609 13.4336 12.9614 14.5857 13.4871 15.481C14.0129 16.3764 15.1647 16.676 16.0601 16.1503Z" fill="white"/>
<path d="M11.876 18.4612C12.7142 17.969 12.9949 16.8904 12.5028 16.0522C12.0106 15.214 10.9319 14.9336 10.0937 15.4257C9.25547 15.9179 8.97516 16.9963 9.46733 17.8345C9.95949 18.6727 11.0378 18.9534 11.876 18.4612Z" fill="white"/>
<path d="M7.69819 20.7533C8.47925 20.2947 8.74027 19.2898 8.28166 18.5087C7.82305 17.7277 6.81846 17.4662 6.0374 17.9248C5.25634 18.3834 4.99477 19.3883 5.45338 20.1694C5.91199 20.9504 6.91713 21.2119 7.69819 20.7533Z" fill="white"/>
<path d="M7.62934 25.4096C8.35325 24.9846 8.59553 24.0531 8.17047 23.3292C7.74542 22.6053 6.81397 22.363 6.09007 22.7881C5.36616 23.2132 5.12388 24.1446 5.54894 24.8685C5.97399 25.5924 6.90543 25.8347 7.62934 25.4096Z" fill="white"/>
<path d="M7.56245 30.0797C8.22921 29.6882 8.45219 28.8302 8.06069 28.1635C7.6692 27.4967 6.81145 27.2736 6.14469 27.6651C5.47793 28.0566 5.25482 28.9143 5.64632 29.5811C6.03782 30.2478 6.89569 30.4712 7.56245 30.0797Z" fill="white"/>
<path d="M7.50727 34.7495C8.11688 34.3915 8.3207 33.6072 7.96276 32.9976C7.60482 32.388 6.82064 32.1839 6.21103 32.5418C5.60142 32.8998 5.3976 33.684 5.75555 34.2936C6.11349 34.9032 6.89767 35.1074 7.50727 34.7495Z" fill="white"/>
<path d="M7.45057 39.4141C8.00302 39.0897 8.18755 38.3789 7.86316 37.8265C7.53878 37.274 6.82829 37.089 6.27584 37.4134C5.72338 37.7378 5.53831 38.4486 5.86269 39.0011C6.18708 39.5535 6.89811 39.7385 7.45057 39.4141Z" fill="white"/>
<path d="M7.40125 44.0927C7.89656 43.8019 8.06191 43.1648 7.77109 42.6695C7.48026 42.1742 6.84334 42.0081 6.34804 42.299C5.85273 42.5898 5.68695 43.2271 5.97778 43.7224C6.26861 44.2177 6.90595 44.3835 7.40125 44.0927Z" fill="white"/>
<path d="M7.33466 48.7525C7.77281 48.4952 7.91942 47.9316 7.66215 47.4934C7.40488 47.0553 6.84123 46.9087 6.40308 47.1659C5.96492 47.4232 5.81789 47.9871 6.07516 48.4252C6.33243 48.8634 6.8965 49.0098 7.33466 48.7525Z" fill="white"/>
<path d="M7.2923 53.426C7.67807 53.1995 7.80719 52.7031 7.58069 52.3173C7.35418 51.9315 6.85775 51.8024 6.47198 52.0289C6.08621 52.2554 5.95709 52.7519 6.1836 53.1376C6.41011 53.5234 6.90654 53.6525 7.2923 53.426Z" fill="white"/>
<path d="M11.6069 13.6476C12.5023 13.1219 12.8023 11.9698 12.2766 11.0744C11.7509 10.1791 10.5985 9.87948 9.70312 10.4052C8.80776 10.9309 8.50828 12.083 9.034 12.9784C9.55973 13.8737 10.7116 14.1733 11.6069 13.6476Z" fill="white"/>
<path d="M7.42915 15.9497C8.26736 15.4575 8.54767 14.3792 8.0555 13.541C7.56334 12.7027 6.48505 12.4221 5.64684 12.9143C4.80863 13.4064 4.52789 14.4851 5.02006 15.3233C5.51223 16.1615 6.59094 16.4419 7.42915 15.9497Z" fill="white"/>
<path d="M3.25832 18.2472C4.03938 17.7886 4.30082 16.7834 3.84221 16.0024C3.3836 15.2213 2.37858 14.9601 1.59752 15.4187C0.816464 15.8773 0.555317 16.882 1.01393 17.663C1.47254 18.4441 2.47726 18.7058 3.25832 18.2472Z" fill="white"/>
<path d="M2.85005 22.6943C3.57396 22.2693 3.81623 21.3378 3.39118 20.6139C2.96612 19.89 2.03468 19.6477 1.31077 20.0728C0.586861 20.4978 0.344584 21.4293 0.769639 22.1532C1.19469 22.8771 2.12614 23.1194 2.85005 22.6943Z" fill="white"/>
<path d="M2.79682 27.3507C3.46358 26.9592 3.68657 26.1012 3.29507 25.4344C2.90357 24.7677 2.04582 24.5446 1.37906 24.9361C0.712305 25.3276 0.489197 26.1853 0.880694 26.8521C1.27219 27.5188 2.13007 27.7422 2.79682 27.3507Z" fill="white"/>
<path d="M2.74598 32.0065C3.35558 31.6486 3.5594 30.8643 3.20146 30.2547C2.84352 29.6451 2.05934 29.441 1.44973 29.7989C0.840123 30.1568 0.635886 30.9414 0.993826 31.551C1.35177 32.1606 2.13637 32.3645 2.74598 32.0065Z" fill="white"/>
<path d="M2.69471 36.6631C3.24716 36.3387 3.43211 35.6277 3.10773 35.0753C2.78334 34.5228 2.07243 34.3381 1.51998 34.6625C0.96752 34.9868 0.782452 35.6977 1.10684 36.2501C1.43122 36.8026 2.14225 36.9875 2.69471 36.6631Z" fill="white"/>
<path d="M2.64149 41.319C3.13679 41.0282 3.30215 40.3911 3.01132 39.8958C2.72049 39.4005 2.08358 39.2344 1.58827 39.5253C1.09296 39.8161 0.927188 40.4534 1.21801 40.9487C1.50884 41.444 2.14618 41.6098 2.64149 41.319Z" fill="white"/>
<path d="M2.59009 45.9751C3.02825 45.7179 3.17486 45.1542 2.91759 44.7161C2.66032 44.2779 2.09667 44.1313 1.65852 44.3886C1.22036 44.6459 1.07375 45.2095 1.33102 45.6477C1.58829 46.0858 2.15194 46.2324 2.59009 45.9751Z" fill="white"/>
<path d="M2.54188 50.6401C2.92765 50.4136 3.05677 49.9172 2.83026 49.5314C2.60376 49.1457 2.10733 49.0165 1.72156 49.243C1.33579 49.4695 1.20709 49.9657 1.4336 50.3515C1.66011 50.7373 2.15611 50.8666 2.54188 50.6401Z" fill="white"/>
</svg>
