<svg width="19" height="20" viewBox="0 0 19 20" fill="none" xmlns="http://www.w3.org/2000/svg">
<path fill-rule="evenodd" clip-rule="evenodd" d="M16.2318 3.26112C14.4457 1.48154 12.0703 0.501 9.53967 0.5C4.32528 0.5 0.0814093 4.72326 0.0793225 9.91434C0.0786269 11.5737 0.51427 13.1935 1.34209 14.6212L0 19.5L5.01507 18.1908C6.39681 18.9408 7.95255 19.3361 9.53589 19.3368H9.53978C14.7536 19.3368 18.9979 15.113 19 9.92185C19.001 7.40618 18.0179 5.04069 16.2318 3.26112ZM9.53978 17.7466H9.53656C8.12565 17.7461 6.74177 17.3689 5.53454 16.6559L5.2474 16.4863L2.27142 17.2632L3.06578 14.3755L2.8788 14.0795C2.0917 12.8335 1.67598 11.3935 1.67659 9.91493C1.67832 5.60031 5.20569 2.09012 9.5429 2.09012C11.6431 2.09092 13.6173 2.90596 15.1019 4.38508C16.5864 5.8642 17.4036 7.83031 17.4028 9.92124C17.401 14.2362 13.8736 17.7466 9.53978 17.7466ZM13.8528 11.8859C13.6164 11.7681 12.4543 11.199 12.2376 11.1205C12.0209 11.042 11.8633 11.0028 11.7057 11.2383C11.5482 11.4738 11.0952 12.0037 10.9572 12.1606C10.8194 12.3177 10.6815 12.3373 10.4451 12.2195C10.2087 12.1018 9.44708 11.8534 8.54419 11.0519C7.84152 10.4282 7.36708 9.65774 7.2292 9.42225C7.09132 9.18673 7.21454 9.05939 7.33286 8.94213C7.43919 8.83672 7.56923 8.66738 7.68743 8.52998C7.8056 8.39262 7.845 8.29449 7.92378 8.13751C8.00259 7.98049 7.96319 7.8431 7.9041 7.72536C7.845 7.60761 7.37228 6.4497 7.17528 5.97869C6.98342 5.51996 6.78853 5.58203 6.64344 5.57485C6.50571 5.56802 6.34797 5.56656 6.1904 5.56656C6.03281 5.56656 5.77674 5.62545 5.56005 5.86094C5.34339 6.09646 4.73276 6.66559 4.73276 7.82348C4.73276 8.98137 5.57976 10.1 5.69795 10.257C5.81613 10.414 7.36476 12.7902 9.73598 13.8092C10.2999 14.0516 10.7403 14.1963 11.0835 14.3048C11.6498 14.4838 12.1651 14.4585 12.5724 14.3979C13.0266 14.3304 13.9709 13.8288 14.1679 13.2793C14.3649 12.7298 14.3649 12.2588 14.3058 12.1607C14.2468 12.0625 14.0892 12.0037 13.8528 11.8859Z" fill="white"/>
</svg>
