<svg width="465" height="430" viewBox="0 0 465 430" fill="none" xmlns="http://www.w3.org/2000/svg">
<g opacity="0.2">
<path d="M146.643 66.8679L174.972 83.329L146.643 66.8679Z" stroke="#E8E8E8" stroke-width="0.31" stroke-miterlimit="10"/>
<path d="M136.25 72.8866L118.291 83.329L89.9375 66.8679L118.291 83.329L136.25 72.8866Z" stroke="#E8E8E8" stroke-width="0.31" stroke-miterlimit="10"/>
<path d="M89.9351 66.8679L61.5818 83.329L33.2285 66.8679L61.5818 83.329L89.9351 66.8679Z" stroke="#E8E8E8" stroke-width="0.31" stroke-miterlimit="10"/>
<path d="M174.972 83.329L146.643 66.8679" stroke="#E8E8E8" stroke-width="0.31" stroke-miterlimit="10"/>
<path d="M61.582 83.3288V50.4067L89.9353 66.8678L61.582 83.3288Z" stroke="#E8E8E8" stroke-width="0.31" stroke-miterlimit="10"/>
<path d="M61.5818 83.3288L33.2285 66.8678L61.5818 50.4067V83.3288Z" stroke="#E8E8E8" stroke-width="0.31" stroke-miterlimit="10"/>
<path d="M61.5818 50.407L33.2285 66.8681V33.9224L61.5818 50.407Z" stroke="#E8E8E8" stroke-width="0.31" stroke-miterlimit="10"/>
<path d="M89.9353 33.9222L61.582 50.4069V17.4612L89.9353 33.9222Z" stroke="#E8E8E8" stroke-width="0.31" stroke-miterlimit="10"/>
<path d="M61.5818 50.4069L33.2285 33.9222L61.5818 17.4612V50.4069Z" stroke="#E8E8E8" stroke-width="0.31" stroke-miterlimit="10"/>
<path d="M89.9353 66.8681L61.582 50.407L89.9353 33.9224V66.8681Z" stroke="#E8E8E8" stroke-width="0.31" stroke-miterlimit="10"/>
<path d="M118.291 50.407L89.9375 33.9224" stroke="#E8E8E8" stroke-width="0.31" stroke-miterlimit="10"/>
<path d="M118.291 83.3288L89.9375 66.8678L118.291 50.4067V83.3288Z" stroke="#E8E8E8" stroke-width="0.31" stroke-miterlimit="10"/>
<path d="M146.644 66.8678L118.291 50.4067" stroke="#E8E8E8" stroke-width="0.31" stroke-miterlimit="10"/>
<path d="M146.644 66.8678L136.25 72.8865L118.291 83.3288V50.4067L146.644 66.8678Z" stroke="#E8E8E8" stroke-width="0.31" stroke-miterlimit="10"/>
<path d="M118.291 50.407L89.9375 66.8681V33.9224L118.291 50.407Z" stroke="#E8E8E8" stroke-width="0.31" stroke-miterlimit="10"/>
<path d="M89.9353 33.9222L61.582 17.4612" stroke="#E8E8E8" stroke-width="0.31" stroke-miterlimit="10"/>
<path d="M33.2285 33.9221V1L61.5818 17.461L33.2285 33.9221Z" stroke="#E8E8E8" stroke-width="0.31" stroke-miterlimit="10"/>
<path d="M61.5818 17.461L33.2285 1" stroke="#E8E8E8" stroke-width="0.31" stroke-miterlimit="10"/>
<path d="M231.678 116.275L203.324 99.8142" stroke="#E8E8E8" stroke-width="0.31" stroke-miterlimit="10"/>
<path d="M203.324 132.736V99.8142L231.678 116.275L203.324 132.736Z" stroke="#E8E8E8" stroke-width="0.31" stroke-miterlimit="10"/>
<path d="M203.326 99.8139L174.973 83.3286" stroke="#E8E8E8" stroke-width="0.31" stroke-miterlimit="10"/>
<path d="M203.326 132.736L174.973 116.275L203.326 99.8142V132.736Z" stroke="#E8E8E8" stroke-width="0.31" stroke-miterlimit="10"/>
<path d="M174.973 116.274V83.3286L203.326 99.8139L174.973 116.274Z" stroke="#E8E8E8" stroke-width="0.31" stroke-miterlimit="10"/>
<path d="M89.9375 198.627V165.682L118.291 182.142L89.9375 198.627Z" stroke="#E8E8E8" stroke-width="0.31" stroke-miterlimit="10"/>
<path d="M89.9353 198.627L61.582 182.142L89.9353 165.682V198.627Z" stroke="#E8E8E8" stroke-width="0.31" stroke-miterlimit="10"/>
<path d="M61.582 215.089V182.142L89.9353 198.628L61.582 215.089Z" stroke="#E8E8E8" stroke-width="0.31" stroke-miterlimit="10"/>
<path d="M33.2285 198.627V165.682L61.5818 182.142L33.2285 198.627Z" stroke="#E8E8E8" stroke-width="0.31" stroke-miterlimit="10"/>
<path d="M33.2285 231.573V198.627L61.5818 215.088L33.2285 231.573Z" stroke="#E8E8E8" stroke-width="0.31" stroke-miterlimit="10"/>
<path d="M61.5818 215.089L33.2285 198.628L61.5818 182.142V215.089Z" stroke="#E8E8E8" stroke-width="0.31" stroke-miterlimit="10"/>
<path d="M146.644 132.735V165.682L118.291 149.221L146.644 132.735Z" stroke="#E8E8E8" stroke-width="0.31" stroke-miterlimit="10"/>
<path d="M89.9375 132.735L118.291 116.274V149.22L89.9375 132.735Z" stroke="#E8E8E8" stroke-width="0.31" stroke-miterlimit="10"/>
<path d="M118.291 149.221L89.9375 165.682V132.735L118.291 149.221Z" stroke="#E8E8E8" stroke-width="0.31" stroke-miterlimit="10"/>
<path d="M118.291 182.142V149.221L146.644 165.682L118.291 182.142Z" stroke="#E8E8E8" stroke-width="0.31" stroke-miterlimit="10"/>
<path d="M118.291 182.142L89.9375 165.682L118.291 149.221V182.142Z" stroke="#E8E8E8" stroke-width="0.31" stroke-miterlimit="10"/>
<path d="M118.291 149.22V116.274L146.644 132.735L118.291 149.22Z" stroke="#E8E8E8" stroke-width="0.31" stroke-miterlimit="10"/>
<path d="M146.643 165.682V132.735L174.972 149.221L146.643 165.682Z" stroke="#E8E8E8" stroke-width="0.31" stroke-miterlimit="10"/>
<path d="M174.973 149.22V116.274L203.326 132.735L174.973 149.22Z" stroke="#E8E8E8" stroke-width="0.31" stroke-miterlimit="10"/>
<path d="M146.643 132.735L174.972 116.274V149.22L146.643 132.735Z" stroke="#E8E8E8" stroke-width="0.31" stroke-miterlimit="10"/>
<path d="M61.582 149.22V116.274L89.9353 132.735L61.582 149.22Z" stroke="#E8E8E8" stroke-width="0.31" stroke-miterlimit="10"/>
<path d="M61.5818 149.221L33.2285 165.682V132.735L61.5818 149.221Z" stroke="#E8E8E8" stroke-width="0.31" stroke-miterlimit="10"/>
<path d="M61.5818 182.142L33.2285 165.682L61.5818 149.221V182.142Z" stroke="#E8E8E8" stroke-width="0.31" stroke-miterlimit="10"/>
<path d="M89.9353 132.735V165.682L61.582 149.221L89.9353 132.735Z" stroke="#E8E8E8" stroke-width="0.31" stroke-miterlimit="10"/>
<path d="M61.582 182.142V149.221L89.9353 165.682L61.582 182.142Z" stroke="#E8E8E8" stroke-width="0.31" stroke-miterlimit="10"/>
<path d="M33.2285 132.735L61.5818 116.274V149.22L33.2285 132.735Z" stroke="#E8E8E8" stroke-width="0.31" stroke-miterlimit="10"/>
<path d="M61.582 83.329L89.9353 66.8679V99.8142L61.582 83.329Z" stroke="#E8E8E8" stroke-width="0.31" stroke-miterlimit="10"/>
<path d="M89.9375 132.736V99.8142L118.291 116.275L89.9375 132.736Z" stroke="#E8E8E8" stroke-width="0.31" stroke-miterlimit="10"/>
<path d="M89.9375 99.8139L118.291 83.3286V116.274L89.9375 99.8139Z" stroke="#E8E8E8" stroke-width="0.31" stroke-miterlimit="10"/>
<path d="M89.9353 132.736L61.582 116.275L89.9353 99.8142V132.736Z" stroke="#E8E8E8" stroke-width="0.31" stroke-miterlimit="10"/>
<path d="M89.9375 99.8142V66.8679L118.291 83.329L89.9375 99.8142Z" stroke="#E8E8E8" stroke-width="0.31" stroke-miterlimit="10"/>
<path d="M61.582 116.274V83.3286L89.9353 99.8139L61.582 116.274Z" stroke="#E8E8E8" stroke-width="0.31" stroke-miterlimit="10"/>
<path d="M89.9375 132.735L118.291 116.274L89.9375 132.735Z" stroke="#E8E8E8" stroke-width="0.31" stroke-miterlimit="10"/>
<path d="M89.9353 132.735L61.582 116.274L89.9353 132.735Z" stroke="#E8E8E8" stroke-width="0.31" stroke-miterlimit="10"/>
<path d="M146.644 99.8142L118.291 83.329L136.25 72.8866L146.644 66.8679V99.8142Z" stroke="#E8E8E8" stroke-width="0.31" stroke-miterlimit="10"/>
<path d="M146.644 99.8139L118.291 116.274V83.3286L146.644 99.8139Z" stroke="#E8E8E8" stroke-width="0.31" stroke-miterlimit="10"/>
<path d="M146.643 99.8142V66.8679L174.972 83.329L146.643 99.8142Z" stroke="#E8E8E8" stroke-width="0.31" stroke-miterlimit="10"/>
<path d="M146.643 132.736V99.8142L174.972 116.275L146.643 132.736Z" stroke="#E8E8E8" stroke-width="0.31" stroke-miterlimit="10"/>
<path d="M118.291 116.275L146.644 99.8142V132.736L118.291 116.275Z" stroke="#E8E8E8" stroke-width="0.31" stroke-miterlimit="10"/>
<path d="M174.972 116.274L146.643 99.8139L174.972 83.3286V116.274Z" stroke="#E8E8E8" stroke-width="0.31" stroke-miterlimit="10"/>
<path d="M146.642 66.8679L136.248 72.8866L146.642 66.8679Z" stroke="#E8E8E8" stroke-width="0.31" stroke-miterlimit="10"/>
<path d="M146.644 132.735L118.291 116.274L146.644 132.735Z" stroke="#E8E8E8" stroke-width="0.31" stroke-miterlimit="10"/>
<path d="M146.643 132.735L174.972 116.274" stroke="#E8E8E8" stroke-width="0.31" stroke-miterlimit="10"/>
<path d="M61.5818 116.274L33.2285 99.8139L61.5818 83.3286V116.274Z" stroke="#E8E8E8" stroke-width="0.31" stroke-miterlimit="10"/>
<path d="M33.2285 132.736V99.8142L61.5818 116.275L33.2285 132.736Z" stroke="#E8E8E8" stroke-width="0.31" stroke-miterlimit="10"/>
<path d="M33.2285 99.8142V66.8679L61.5818 83.329L33.2285 99.8142Z" stroke="#E8E8E8" stroke-width="0.31" stroke-miterlimit="10"/>
<path d="M61.5818 116.274L33.2285 132.735" stroke="#E8E8E8" stroke-width="0.31" stroke-miterlimit="10"/>
<path d="M430.128 231.574L401.799 215.089" stroke="#E8E8E8" stroke-width="0.31" stroke-miterlimit="10"/>
<path d="M316.738 198.628L288.385 215.089V182.142L316.738 198.628Z" stroke="#E8E8E8" stroke-width="0.31" stroke-miterlimit="10"/>
<path d="M316.738 231.573L288.385 215.088L316.738 198.627V231.573Z" stroke="#E8E8E8" stroke-width="0.31" stroke-miterlimit="10"/>
<path d="M316.738 198.627L288.385 182.142L316.738 165.682V198.627Z" stroke="#E8E8E8" stroke-width="0.31" stroke-miterlimit="10"/>
<path d="M316.74 198.627L345.094 215.088L316.74 231.573V198.627Z" stroke="#E8E8E8" stroke-width="0.31" stroke-miterlimit="10"/>
<path d="M345.094 182.142L316.74 198.627V165.682L345.094 182.142Z" stroke="#E8E8E8" stroke-width="0.31" stroke-miterlimit="10"/>
<path d="M345.094 182.142V215.089L316.74 198.628L345.094 182.142Z" stroke="#E8E8E8" stroke-width="0.31" stroke-miterlimit="10"/>
<path d="M288.385 149.221V182.142L260.031 165.682L288.385 149.221Z" stroke="#E8E8E8" stroke-width="0.31" stroke-miterlimit="10"/>
<path d="M316.738 165.682L288.385 182.142V149.221L316.738 165.682Z" stroke="#E8E8E8" stroke-width="0.31" stroke-miterlimit="10"/>
<path d="M316.738 165.682L288.385 149.221" stroke="#E8E8E8" stroke-width="0.31" stroke-miterlimit="10"/>
<path d="M260.031 165.682V132.735L288.385 149.221L260.031 165.682Z" stroke="#E8E8E8" stroke-width="0.31" stroke-miterlimit="10"/>
<path d="M288.385 149.221L260.031 132.735" stroke="#E8E8E8" stroke-width="0.31" stroke-miterlimit="10"/>
<path d="M345.094 182.142L316.74 165.682" stroke="#E8E8E8" stroke-width="0.31" stroke-miterlimit="10"/>
<path d="M373.445 231.573L345.092 215.088L373.445 198.627V231.573Z" stroke="#E8E8E8" stroke-width="0.31" stroke-miterlimit="10"/>
<path d="M401.799 215.088L373.445 198.627" stroke="#E8E8E8" stroke-width="0.31" stroke-miterlimit="10"/>
<path d="M373.445 198.628L345.092 215.089V182.142L373.445 198.628Z" stroke="#E8E8E8" stroke-width="0.31" stroke-miterlimit="10"/>
<path d="M373.445 198.628L345.092 182.142" stroke="#E8E8E8" stroke-width="0.31" stroke-miterlimit="10"/>
<path d="M401.799 215.088L373.445 231.573V198.627L401.799 215.088Z" stroke="#E8E8E8" stroke-width="0.31" stroke-miterlimit="10"/>
<path d="M203.326 198.627L174.973 182.142L203.326 165.682V198.627Z" stroke="#E8E8E8" stroke-width="0.31" stroke-miterlimit="10"/>
<path d="M231.678 182.142V215.089L203.324 198.628L231.678 182.142Z" stroke="#E8E8E8" stroke-width="0.31" stroke-miterlimit="10"/>
<path d="M231.678 215.088L203.324 231.573V198.627L231.678 215.088Z" stroke="#E8E8E8" stroke-width="0.31" stroke-miterlimit="10"/>
<path d="M203.324 198.627V165.682L231.678 182.142L203.324 198.627Z" stroke="#E8E8E8" stroke-width="0.31" stroke-miterlimit="10"/>
<path d="M174.973 215.089V182.142L203.326 198.628L174.973 215.089Z" stroke="#E8E8E8" stroke-width="0.31" stroke-miterlimit="10"/>
<path d="M203.326 231.573L174.973 215.088L203.326 198.627V231.573Z" stroke="#E8E8E8" stroke-width="0.31" stroke-miterlimit="10"/>
<path d="M231.678 149.22L203.324 132.735L231.678 116.274V149.22Z" stroke="#E8E8E8" stroke-width="0.31" stroke-miterlimit="10"/>
<path d="M203.324 165.682L231.678 149.221V182.142L203.324 165.682Z" stroke="#E8E8E8" stroke-width="0.31" stroke-miterlimit="10"/>
<path d="M260.031 165.682L231.678 149.221L260.031 132.735V165.682Z" stroke="#E8E8E8" stroke-width="0.31" stroke-miterlimit="10"/>
<path d="M203.324 165.682V132.735L231.678 149.221L203.324 165.682Z" stroke="#E8E8E8" stroke-width="0.31" stroke-miterlimit="10"/>
<path d="M231.678 149.22V116.274L260.031 132.735L231.678 149.22Z" stroke="#E8E8E8" stroke-width="0.31" stroke-miterlimit="10"/>
<path d="M231.678 182.142V149.221L260.031 165.682L231.678 182.142Z" stroke="#E8E8E8" stroke-width="0.31" stroke-miterlimit="10"/>
<path d="M260.031 132.735L231.678 116.274" stroke="#E8E8E8" stroke-width="0.31" stroke-miterlimit="10"/>
<path d="M260.031 198.627L231.678 182.142L260.031 165.682V198.627Z" stroke="#E8E8E8" stroke-width="0.31" stroke-miterlimit="10"/>
<path d="M260.031 198.628L288.385 182.142V215.089L260.031 198.628Z" stroke="#E8E8E8" stroke-width="0.31" stroke-miterlimit="10"/>
<path d="M260.031 198.628L231.678 215.089V182.142L260.031 198.628Z" stroke="#E8E8E8" stroke-width="0.31" stroke-miterlimit="10"/>
<path d="M260.031 198.627V231.573L231.678 215.088L260.031 198.627Z" stroke="#E8E8E8" stroke-width="0.31" stroke-miterlimit="10"/>
<path d="M288.385 215.088L260.031 231.573V198.627L288.385 215.088Z" stroke="#E8E8E8" stroke-width="0.31" stroke-miterlimit="10"/>
<path d="M288.385 182.142L260.031 198.627V165.682L288.385 182.142Z" stroke="#E8E8E8" stroke-width="0.31" stroke-miterlimit="10"/>
<path d="M118.291 215.089L89.9375 198.628L118.291 182.142V215.089Z" stroke="#E8E8E8" stroke-width="0.31" stroke-miterlimit="10"/>
<path d="M89.9353 231.573L61.582 215.088L89.9353 198.627V231.573Z" stroke="#E8E8E8" stroke-width="0.31" stroke-miterlimit="10"/>
<path d="M89.9375 231.573V198.627L118.291 215.088L89.9375 231.573Z" stroke="#E8E8E8" stroke-width="0.31" stroke-miterlimit="10"/>
<path d="M174.972 215.089L146.643 198.628L174.972 182.142V215.089Z" stroke="#E8E8E8" stroke-width="0.31" stroke-miterlimit="10"/>
<path d="M146.644 198.627V231.573L118.291 215.088L146.644 198.627Z" stroke="#E8E8E8" stroke-width="0.31" stroke-miterlimit="10"/>
<path d="M146.643 198.627V165.682L174.972 182.142L146.643 198.627Z" stroke="#E8E8E8" stroke-width="0.31" stroke-miterlimit="10"/>
<path d="M146.643 231.573V198.627L174.972 215.088L146.643 231.573Z" stroke="#E8E8E8" stroke-width="0.31" stroke-miterlimit="10"/>
<path d="M146.644 198.627L118.291 182.142L146.644 165.682V198.627Z" stroke="#E8E8E8" stroke-width="0.31" stroke-miterlimit="10"/>
<path d="M118.291 215.089V182.142L146.644 198.628L118.291 215.089Z" stroke="#E8E8E8" stroke-width="0.31" stroke-miterlimit="10"/>
<path d="M174.973 182.142V149.221L203.326 165.682L174.973 182.142Z" stroke="#E8E8E8" stroke-width="0.31" stroke-miterlimit="10"/>
<path d="M174.973 149.221L203.326 132.735V165.682L174.973 149.221Z" stroke="#E8E8E8" stroke-width="0.31" stroke-miterlimit="10"/>
<path d="M174.972 182.142L146.643 165.682L174.972 149.221V182.142Z" stroke="#E8E8E8" stroke-width="0.31" stroke-miterlimit="10"/>
<path d="M4.87695 50.4069V17.4612L33.2303 33.9222L4.87695 50.4069Z" stroke="#E8E8E8" stroke-width="0.31" stroke-miterlimit="10"/>
<path d="M4.87695 83.3288V50.4067L33.2303 66.8678L4.87695 83.3288Z" stroke="#E8E8E8" stroke-width="0.31" stroke-miterlimit="10"/>
<path d="M33.2303 66.8681L4.87695 50.407L33.2303 33.9224V66.8681Z" stroke="#E8E8E8" stroke-width="0.31" stroke-miterlimit="10"/>
<path d="M4.87695 17.461L33.2303 1V33.9221L4.87695 17.461Z" stroke="#E8E8E8" stroke-width="0.31" stroke-miterlimit="10"/>
<path d="M33.2303 198.628L4.87695 215.089V182.142L33.2303 198.628Z" stroke="#E8E8E8" stroke-width="0.31" stroke-miterlimit="10"/>
<path d="M33.2303 231.573L4.87695 215.088L33.2303 198.627V231.573Z" stroke="#E8E8E8" stroke-width="0.31" stroke-miterlimit="10"/>
<path d="M33.2303 198.627L4.87695 182.142L33.2303 165.682V198.627Z" stroke="#E8E8E8" stroke-width="0.31" stroke-miterlimit="10"/>
<path d="M33.2303 132.735L4.87695 149.22V116.274L33.2303 132.735Z" stroke="#E8E8E8" stroke-width="0.31" stroke-miterlimit="10"/>
<path d="M33.2303 165.682L4.87695 182.142V149.221L33.2303 165.682Z" stroke="#E8E8E8" stroke-width="0.31" stroke-miterlimit="10"/>
<path d="M33.2303 165.682L4.87695 149.221L33.2303 132.735V165.682Z" stroke="#E8E8E8" stroke-width="0.31" stroke-miterlimit="10"/>
<path d="M33.2303 99.8139L4.87695 116.274V83.3286L33.2303 99.8139Z" stroke="#E8E8E8" stroke-width="0.31" stroke-miterlimit="10"/>
<path d="M33.2303 99.8142L4.87695 83.329L33.2303 66.8679V99.8142Z" stroke="#E8E8E8" stroke-width="0.31" stroke-miterlimit="10"/>
<path d="M33.2303 132.736L4.87695 116.275L33.2303 99.8142V132.736Z" stroke="#E8E8E8" stroke-width="0.31" stroke-miterlimit="10"/>
<path d="M401.799 346.848L430.128 363.309L401.799 379.794V346.848Z" stroke="#E8E8E8" stroke-width="0.31" stroke-miterlimit="10"/>
<path d="M430.129 363.309L458.482 346.848V379.794L430.129 363.309Z" stroke="#E8E8E8" stroke-width="0.31" stroke-miterlimit="10"/>
<path d="M401.799 379.794L430.128 363.31V396.255L401.799 379.794Z" stroke="#E8E8E8" stroke-width="0.31" stroke-miterlimit="10"/>
<path d="M430.129 396.255V363.31L458.482 379.794L430.129 396.255Z" stroke="#E8E8E8" stroke-width="0.31" stroke-miterlimit="10"/>
<path d="M430.129 363.309V330.387L458.482 346.848L430.129 363.309Z" stroke="#E8E8E8" stroke-width="0.31" stroke-miterlimit="10"/>
<path d="M401.799 346.848L430.128 330.387V363.309L401.799 346.848Z" stroke="#E8E8E8" stroke-width="0.31" stroke-miterlimit="10"/>
<path d="M373.445 396.255V363.31L401.799 379.794L373.445 396.255Z" stroke="#E8E8E8" stroke-width="0.31" stroke-miterlimit="10"/>
<path d="M373.445 363.309L401.799 346.848V379.794L373.445 363.309Z" stroke="#E8E8E8" stroke-width="0.31" stroke-miterlimit="10"/>
<path d="M345.092 379.794L373.445 363.31V396.255L345.092 379.794Z" stroke="#E8E8E8" stroke-width="0.31" stroke-miterlimit="10"/>
<path d="M345.092 346.848L373.445 363.309L345.092 379.794V346.848Z" stroke="#E8E8E8" stroke-width="0.31" stroke-miterlimit="10"/>
<path d="M373.445 363.309V330.387L401.799 346.848L373.445 363.309Z" stroke="#E8E8E8" stroke-width="0.31" stroke-miterlimit="10"/>
<path d="M373.445 363.309L345.092 346.848L373.445 330.387V363.309Z" stroke="#E8E8E8" stroke-width="0.31" stroke-miterlimit="10"/>
<path d="M373.445 330.387V297.441L401.799 313.902L373.445 330.387Z" stroke="#E8E8E8" stroke-width="0.31" stroke-miterlimit="10"/>
<path d="M373.445 330.387L401.799 313.902V346.848L373.445 330.387Z" stroke="#E8E8E8" stroke-width="0.31" stroke-miterlimit="10"/>
<path d="M373.445 297.442L401.799 280.98V313.902L373.445 297.442Z" stroke="#E8E8E8" stroke-width="0.31" stroke-miterlimit="10"/>
<path d="M401.799 313.902L430.128 297.441V330.387L401.799 313.902Z" stroke="#E8E8E8" stroke-width="0.31" stroke-miterlimit="10"/>
<path d="M401.799 313.902L430.128 330.387L401.799 346.848V313.902Z" stroke="#E8E8E8" stroke-width="0.31" stroke-miterlimit="10"/>
<path d="M401.799 280.98L430.128 297.442L401.799 313.902V280.98Z" stroke="#E8E8E8" stroke-width="0.31" stroke-miterlimit="10"/>
<path d="M458.482 313.902V280.98" stroke="#E8E8E8" stroke-width="0.31" stroke-miterlimit="10"/>
<path d="M458.482 313.902L430.129 330.387V297.441L458.482 313.902Z" stroke="#E8E8E8" stroke-width="0.31" stroke-miterlimit="10"/>
<path d="M458.482 346.848V313.902" stroke="#E8E8E8" stroke-width="0.31" stroke-miterlimit="10"/>
<path d="M430.129 297.442L458.482 280.98V313.902L430.129 297.442Z" stroke="#E8E8E8" stroke-width="0.31" stroke-miterlimit="10"/>
<path d="M430.129 330.387L458.482 313.902V346.848L430.129 330.387Z" stroke="#E8E8E8" stroke-width="0.31" stroke-miterlimit="10"/>
<path d="M458.482 379.794V346.848" stroke="#E8E8E8" stroke-width="0.31" stroke-miterlimit="10"/>
<path d="M430.129 429.201V396.255L458.482 412.716L430.129 429.201Z" stroke="#E8E8E8" stroke-width="0.31" stroke-miterlimit="10"/>
<path d="M430.129 429.202L458.482 412.716V445.662L430.129 429.202Z" stroke="#E8E8E8" stroke-width="0.31" stroke-miterlimit="10"/>
<path d="M430.129 396.255L458.482 379.794V412.716L430.129 396.255Z" stroke="#E8E8E8" stroke-width="0.31" stroke-miterlimit="10"/>
<path d="M458.482 445.662V412.716" stroke="#E8E8E8" stroke-width="0.31" stroke-miterlimit="10"/>
<path d="M458.482 412.716V379.794" stroke="#E8E8E8" stroke-width="0.31" stroke-miterlimit="10"/>
<path d="M401.799 379.794L430.128 396.255L401.799 412.716V379.794Z" stroke="#E8E8E8" stroke-width="0.31" stroke-miterlimit="10"/>
<path d="M401.799 412.716L430.128 396.255V429.201L401.799 412.716Z" stroke="#E8E8E8" stroke-width="0.31" stroke-miterlimit="10"/>
<path d="M373.445 396.255L401.799 379.794V412.716L373.445 396.255Z" stroke="#E8E8E8" stroke-width="0.31" stroke-miterlimit="10"/>
<path d="M316.74 363.309L345.094 346.848V379.794L316.74 363.309Z" stroke="#E8E8E8" stroke-width="0.31" stroke-miterlimit="10"/>
<path d="M316.74 363.309V330.387L345.094 346.848L316.74 363.309Z" stroke="#E8E8E8" stroke-width="0.31" stroke-miterlimit="10"/>
<path d="M288.385 346.848L316.738 330.387V363.309L288.385 346.848Z" stroke="#E8E8E8" stroke-width="0.31" stroke-miterlimit="10"/>
<path d="M260.031 330.387V297.441L288.385 313.902L260.031 330.387Z" stroke="#E8E8E8" stroke-width="0.31" stroke-miterlimit="10"/>
<path d="M260.031 330.387L288.385 313.902V346.848L260.031 330.387Z" stroke="#E8E8E8" stroke-width="0.31" stroke-miterlimit="10"/>
<path d="M288.385 313.902L316.738 330.387L288.385 346.848V313.902Z" stroke="#E8E8E8" stroke-width="0.31" stroke-miterlimit="10"/>
<path d="M288.385 280.98L316.738 297.442L288.385 313.902V280.98Z" stroke="#E8E8E8" stroke-width="0.31" stroke-miterlimit="10"/>
<path d="M288.385 313.902L316.738 297.441V330.387L288.385 313.902Z" stroke="#E8E8E8" stroke-width="0.31" stroke-miterlimit="10"/>
<path d="M260.031 297.442L288.385 280.98V313.902L260.031 297.442Z" stroke="#E8E8E8" stroke-width="0.31" stroke-miterlimit="10"/>
<path d="M345.092 280.98L373.445 297.442L345.092 313.902V280.98Z" stroke="#E8E8E8" stroke-width="0.31" stroke-miterlimit="10"/>
<path d="M316.74 330.387L345.094 313.902V346.848L316.74 330.387Z" stroke="#E8E8E8" stroke-width="0.31" stroke-miterlimit="10"/>
<path d="M345.092 313.902L373.445 330.387L345.092 346.848V313.902Z" stroke="#E8E8E8" stroke-width="0.31" stroke-miterlimit="10"/>
<path d="M345.092 313.902L373.445 297.441V330.387L345.092 313.902Z" stroke="#E8E8E8" stroke-width="0.31" stroke-miterlimit="10"/>
<path d="M316.74 297.442L345.094 280.98V313.902L316.74 297.442Z" stroke="#E8E8E8" stroke-width="0.31" stroke-miterlimit="10"/>
<path d="M345.094 313.902L316.74 330.387V297.441L345.094 313.902Z" stroke="#E8E8E8" stroke-width="0.31" stroke-miterlimit="10"/>
<path d="M146.643 297.442L174.972 280.98V313.902L146.643 297.442Z" stroke="#E8E8E8" stroke-width="0.31" stroke-miterlimit="10"/>
<path d="M174.973 280.98L203.326 297.442L174.973 313.902V280.98Z" stroke="#E8E8E8" stroke-width="0.31" stroke-miterlimit="10"/>
<path d="M146.643 330.387V297.441L174.972 313.902L146.643 330.387Z" stroke="#E8E8E8" stroke-width="0.31" stroke-miterlimit="10"/>
<path d="M231.678 313.902L260.031 297.441V330.387L231.678 313.902Z" stroke="#E8E8E8" stroke-width="0.31" stroke-miterlimit="10"/>
<path d="M203.324 297.442L231.678 280.98V313.902L203.324 297.442Z" stroke="#E8E8E8" stroke-width="0.31" stroke-miterlimit="10"/>
<path d="M231.678 280.98L260.031 297.442L231.678 313.902V280.98Z" stroke="#E8E8E8" stroke-width="0.31" stroke-miterlimit="10"/>
<path d="M89.9375 363.309V330.387L118.291 346.848L89.9375 363.309Z" stroke="#E8E8E8" stroke-width="0.31" stroke-miterlimit="10"/>
<path d="M61.582 346.848L89.9353 330.387V363.309L61.582 346.848Z" stroke="#E8E8E8" stroke-width="0.31" stroke-miterlimit="10"/>
<path d="M61.582 346.848L89.9353 363.309L61.582 379.794V346.848Z" stroke="#E8E8E8" stroke-width="0.31" stroke-miterlimit="10"/>
<path d="M61.5818 379.794L33.2285 396.255V363.31L61.5818 379.794Z" stroke="#E8E8E8" stroke-width="0.31" stroke-miterlimit="10"/>
<path d="M33.2285 363.309V330.387L61.5818 346.848L33.2285 363.309Z" stroke="#E8E8E8" stroke-width="0.31" stroke-miterlimit="10"/>
<path d="M33.2285 363.309L61.5818 346.848V379.794L33.2285 363.309Z" stroke="#E8E8E8" stroke-width="0.31" stroke-miterlimit="10"/>
<path d="M33.2285 297.442L61.5818 280.98V313.902L33.2285 297.442Z" stroke="#E8E8E8" stroke-width="0.31" stroke-miterlimit="10"/>
<path d="M61.582 313.902L89.9353 297.441V330.387L61.582 313.902Z" stroke="#E8E8E8" stroke-width="0.31" stroke-miterlimit="10"/>
<path d="M61.582 280.98L89.9353 297.442L61.582 313.902V280.98Z" stroke="#E8E8E8" stroke-width="0.31" stroke-miterlimit="10"/>
<path d="M61.5818 313.902L33.2285 330.387V297.441L61.5818 313.902Z" stroke="#E8E8E8" stroke-width="0.31" stroke-miterlimit="10"/>
<path d="M61.582 346.848V313.902L89.9353 330.387L61.582 346.848Z" stroke="#E8E8E8" stroke-width="0.31" stroke-miterlimit="10"/>
<path d="M33.2285 330.387L61.5818 313.902V346.848L33.2285 330.387Z" stroke="#E8E8E8" stroke-width="0.31" stroke-miterlimit="10"/>
<path d="M89.9353 330.387L61.582 346.848" stroke="#E8E8E8" stroke-width="0.31" stroke-miterlimit="10"/>
<path d="M31.0059 338.605H63.7822H31.0059Z" stroke="#E8E8E8" stroke-width="0.31" stroke-miterlimit="10"/>
<path d="M118.291 280.98L146.644 297.442L118.291 313.902V280.98Z" stroke="#E8E8E8" stroke-width="0.31" stroke-miterlimit="10"/>
<path d="M118.291 313.902V346.848L89.9375 330.387L118.291 313.902Z" stroke="#E8E8E8" stroke-width="0.31" stroke-miterlimit="10"/>
<path d="M146.644 297.441V330.387L118.291 313.902L146.644 297.441Z" stroke="#E8E8E8" stroke-width="0.31" stroke-miterlimit="10"/>
<path d="M89.9375 330.387V297.441L118.291 313.902L89.9375 330.387Z" stroke="#E8E8E8" stroke-width="0.31" stroke-miterlimit="10"/>
<path d="M118.291 313.902L146.644 330.387L136.25 336.406L118.291 346.848V313.902Z" stroke="#E8E8E8" stroke-width="0.31" stroke-miterlimit="10"/>
<path d="M89.9375 297.442L118.291 280.98V313.902L89.9375 297.442Z" stroke="#E8E8E8" stroke-width="0.31" stroke-miterlimit="10"/>
<path d="M89.9375 330.387L118.291 346.848L89.9375 330.387Z" stroke="#E8E8E8" stroke-width="0.31" stroke-miterlimit="10"/>
<path d="M118.291 346.848L136.25 336.406L118.291 346.848Z" stroke="#E8E8E8" stroke-width="0.31" stroke-miterlimit="10"/>
<path d="M61.582 248.034V215.089L89.9353 231.574L61.582 248.034Z" stroke="#E8E8E8" stroke-width="0.31" stroke-miterlimit="10"/>
<path d="M118.291 248.034L89.9375 231.574L118.291 215.089V248.034Z" stroke="#E8E8E8" stroke-width="0.31" stroke-miterlimit="10"/>
<path d="M118.291 248.034L89.9375 264.495V231.574L118.291 248.034Z" stroke="#E8E8E8" stroke-width="0.31" stroke-miterlimit="10"/>
<path d="M89.9353 264.495L61.582 248.034L89.9353 231.574V264.495Z" stroke="#E8E8E8" stroke-width="0.31" stroke-miterlimit="10"/>
<path d="M118.291 280.981L89.9375 297.442V264.495L118.291 280.981Z" stroke="#E8E8E8" stroke-width="0.31" stroke-miterlimit="10"/>
<path d="M146.644 264.495V297.442L118.291 280.981L146.644 264.495Z" stroke="#E8E8E8" stroke-width="0.31" stroke-miterlimit="10"/>
<path d="M118.291 280.98L89.9375 264.495L118.291 248.034V280.98Z" stroke="#E8E8E8" stroke-width="0.31" stroke-miterlimit="10"/>
<path d="M146.644 264.495L118.291 280.98V248.034L146.644 264.495Z" stroke="#E8E8E8" stroke-width="0.31" stroke-miterlimit="10"/>
<path d="M61.582 280.98V248.034L89.9353 264.495L61.582 280.98Z" stroke="#E8E8E8" stroke-width="0.31" stroke-miterlimit="10"/>
<path d="M89.9353 264.495V297.442L61.582 280.981L89.9353 264.495Z" stroke="#E8E8E8" stroke-width="0.31" stroke-miterlimit="10"/>
<path d="M61.5818 280.98L33.2285 264.495L61.5818 248.034V280.98Z" stroke="#E8E8E8" stroke-width="0.31" stroke-miterlimit="10"/>
<path d="M61.5818 280.981L33.2285 297.442V264.495L61.5818 280.981Z" stroke="#E8E8E8" stroke-width="0.31" stroke-miterlimit="10"/>
<path d="M61.5818 248.034L33.2285 264.495V231.574L61.5818 248.034Z" stroke="#E8E8E8" stroke-width="0.31" stroke-miterlimit="10"/>
<path d="M33.2285 231.574L61.5818 215.089V248.034L33.2285 231.574Z" stroke="#E8E8E8" stroke-width="0.31" stroke-miterlimit="10"/>
<path d="M231.678 248.034L203.324 231.574L231.678 215.089V248.034Z" stroke="#E8E8E8" stroke-width="0.31" stroke-miterlimit="10"/>
<path d="M203.326 231.574L174.973 248.034V215.089L203.326 231.574Z" stroke="#E8E8E8" stroke-width="0.31" stroke-miterlimit="10"/>
<path d="M203.326 231.574V264.495L174.973 248.034L203.326 231.574Z" stroke="#E8E8E8" stroke-width="0.31" stroke-miterlimit="10"/>
<path d="M231.678 248.034L203.324 264.495V231.574L231.678 248.034Z" stroke="#E8E8E8" stroke-width="0.31" stroke-miterlimit="10"/>
<path d="M260.031 231.574L231.678 248.034V215.089L260.031 231.574Z" stroke="#E8E8E8" stroke-width="0.31" stroke-miterlimit="10"/>
<path d="M288.385 248.034L260.031 231.574L288.385 215.089V248.034Z" stroke="#E8E8E8" stroke-width="0.31" stroke-miterlimit="10"/>
<path d="M260.031 231.574V264.495L231.678 248.034L260.031 231.574Z" stroke="#E8E8E8" stroke-width="0.31" stroke-miterlimit="10"/>
<path d="M260.031 231.574L288.385 248.034L260.031 264.495V231.574Z" stroke="#E8E8E8" stroke-width="0.31" stroke-miterlimit="10"/>
<path d="M260.031 264.495V297.442L231.678 280.981L260.031 264.495Z" stroke="#E8E8E8" stroke-width="0.31" stroke-miterlimit="10"/>
<path d="M260.031 264.495L231.678 280.98V248.034L260.031 264.495Z" stroke="#E8E8E8" stroke-width="0.31" stroke-miterlimit="10"/>
<path d="M231.678 280.981L203.324 297.442V264.495L231.678 280.981Z" stroke="#E8E8E8" stroke-width="0.31" stroke-miterlimit="10"/>
<path d="M231.678 280.98L203.324 264.495L231.678 248.034V280.98Z" stroke="#E8E8E8" stroke-width="0.31" stroke-miterlimit="10"/>
<path d="M174.972 280.981L146.643 297.442V264.495L174.972 280.981Z" stroke="#E8E8E8" stroke-width="0.31" stroke-miterlimit="10"/>
<path d="M174.973 280.981L203.326 264.495V297.442L174.973 280.981Z" stroke="#E8E8E8" stroke-width="0.31" stroke-miterlimit="10"/>
<path d="M174.972 280.98L146.643 264.495L174.972 248.034V280.98Z" stroke="#E8E8E8" stroke-width="0.31" stroke-miterlimit="10"/>
<path d="M203.326 264.495L174.973 280.98V248.034L203.326 264.495Z" stroke="#E8E8E8" stroke-width="0.31" stroke-miterlimit="10"/>
<path d="M174.972 248.034L146.643 231.574L174.972 215.089V248.034Z" stroke="#E8E8E8" stroke-width="0.31" stroke-miterlimit="10"/>
<path d="M146.643 231.574L174.972 248.034L146.643 264.495V231.574Z" stroke="#E8E8E8" stroke-width="0.31" stroke-miterlimit="10"/>
<path d="M146.644 231.574V264.495L118.291 248.034L146.644 231.574Z" stroke="#E8E8E8" stroke-width="0.31" stroke-miterlimit="10"/>
<path d="M146.644 231.574L118.291 248.034V215.089L146.644 231.574Z" stroke="#E8E8E8" stroke-width="0.31" stroke-miterlimit="10"/>
<path d="M373.445 231.574L345.092 248.034V215.089L373.445 231.574Z" stroke="#E8E8E8" stroke-width="0.31" stroke-miterlimit="10"/>
<path d="M401.799 248.034L373.445 231.574L401.799 215.089V248.034Z" stroke="#E8E8E8" stroke-width="0.31" stroke-miterlimit="10"/>
<path d="M373.445 231.574V264.495L345.092 248.034L373.445 231.574Z" stroke="#E8E8E8" stroke-width="0.31" stroke-miterlimit="10"/>
<path d="M373.445 231.574L401.799 248.034L373.445 264.495V231.574Z" stroke="#E8E8E8" stroke-width="0.31" stroke-miterlimit="10"/>
<path d="M316.738 231.574L288.385 248.034V215.089L316.738 231.574Z" stroke="#E8E8E8" stroke-width="0.31" stroke-miterlimit="10"/>
<path d="M316.738 231.574V264.495L288.385 248.034L316.738 231.574Z" stroke="#E8E8E8" stroke-width="0.31" stroke-miterlimit="10"/>
<path d="M345.094 248.034L316.74 264.495V231.574L345.094 248.034Z" stroke="#E8E8E8" stroke-width="0.31" stroke-miterlimit="10"/>
<path d="M345.094 248.034L316.74 231.574L345.094 215.089V248.034Z" stroke="#E8E8E8" stroke-width="0.31" stroke-miterlimit="10"/>
<path d="M458.482 248.034L430.129 264.495V231.574L458.482 248.034Z" stroke="#E8E8E8" stroke-width="0.31" stroke-miterlimit="10"/>
<path d="M430.128 231.574V264.495L401.799 248.034L430.128 231.574Z" stroke="#E8E8E8" stroke-width="0.31" stroke-miterlimit="10"/>
<path d="M458.482 248.034L430.129 231.574" stroke="#E8E8E8" stroke-width="0.31" stroke-miterlimit="10"/>
<path d="M430.128 231.574L401.799 248.034V215.089L430.128 231.574Z" stroke="#E8E8E8" stroke-width="0.31" stroke-miterlimit="10"/>
<path d="M373.445 264.495V297.442L345.092 280.981L373.445 264.495Z" stroke="#E8E8E8" stroke-width="0.31" stroke-miterlimit="10"/>
<path d="M373.445 264.495L345.092 280.98V248.034L373.445 264.495Z" stroke="#E8E8E8" stroke-width="0.31" stroke-miterlimit="10"/>
<path d="M345.094 280.98L316.74 264.495L345.094 248.034V280.98Z" stroke="#E8E8E8" stroke-width="0.31" stroke-miterlimit="10"/>
<path d="M345.094 280.981L316.74 297.442V264.495L345.094 280.981Z" stroke="#E8E8E8" stroke-width="0.31" stroke-miterlimit="10"/>
<path d="M316.738 264.495L288.385 280.98V248.034L316.738 264.495Z" stroke="#E8E8E8" stroke-width="0.31" stroke-miterlimit="10"/>
<path d="M288.385 280.98L260.031 264.495L288.385 248.034V280.98Z" stroke="#E8E8E8" stroke-width="0.31" stroke-miterlimit="10"/>
<path d="M288.385 280.981L260.031 297.442V264.495L288.385 280.981Z" stroke="#E8E8E8" stroke-width="0.31" stroke-miterlimit="10"/>
<path d="M288.385 280.981L316.738 264.495V297.442L288.385 280.981Z" stroke="#E8E8E8" stroke-width="0.31" stroke-miterlimit="10"/>
<path d="M458.482 280.98L430.129 264.495L458.482 248.034V280.98Z" stroke="#E8E8E8" stroke-width="0.31" stroke-miterlimit="10"/>
<path d="M458.482 280.981L430.129 297.442V264.495L458.482 280.981Z" stroke="#E8E8E8" stroke-width="0.31" stroke-miterlimit="10"/>
<path d="M458.482 280.98V248.034" stroke="#E8E8E8" stroke-width="0.31" stroke-miterlimit="10"/>
<path d="M401.799 280.981L373.445 297.442V264.495L401.799 280.981Z" stroke="#E8E8E8" stroke-width="0.31" stroke-miterlimit="10"/>
<path d="M401.799 280.98L373.445 264.495L401.799 248.034V280.98Z" stroke="#E8E8E8" stroke-width="0.31" stroke-miterlimit="10"/>
<path d="M430.128 264.495L401.799 280.98V248.034L430.128 264.495Z" stroke="#E8E8E8" stroke-width="0.31" stroke-miterlimit="10"/>
<path d="M401.799 280.981L430.128 264.495V297.442L401.799 280.981Z" stroke="#E8E8E8" stroke-width="0.31" stroke-miterlimit="10"/>
<path d="M4.87695 379.794L33.2303 396.255L4.87695 412.716V379.794Z" stroke="#E8E8E8" stroke-width="0.31" stroke-miterlimit="10"/>
<path d="M4.87695 346.848L33.2303 330.387V363.309L4.87695 346.848Z" stroke="#E8E8E8" stroke-width="0.31" stroke-miterlimit="10"/>
<path d="M4.87695 379.794L33.2303 363.31V396.255L4.87695 379.794Z" stroke="#E8E8E8" stroke-width="0.31" stroke-miterlimit="10"/>
<path d="M4.87695 346.848L33.2303 363.309L4.87695 379.794V346.848Z" stroke="#E8E8E8" stroke-width="0.31" stroke-miterlimit="10"/>
<path d="M4.87695 313.902L33.2303 330.387L4.87695 346.848V313.902Z" stroke="#E8E8E8" stroke-width="0.31" stroke-miterlimit="10"/>
<path d="M4.87695 280.98L33.2303 297.442L4.87695 313.902V280.98Z" stroke="#E8E8E8" stroke-width="0.31" stroke-miterlimit="10"/>
<path d="M4.87695 313.902L33.2303 297.441V330.387L4.87695 313.902Z" stroke="#E8E8E8" stroke-width="0.31" stroke-miterlimit="10"/>
<path d="M33.2303 231.574L4.87695 248.034V215.089L33.2303 231.574Z" stroke="#E8E8E8" stroke-width="0.31" stroke-miterlimit="10"/>
<path d="M33.2303 231.574V264.495L4.87695 248.034L33.2303 231.574Z" stroke="#E8E8E8" stroke-width="0.31" stroke-miterlimit="10"/>
<path d="M33.2303 264.495L4.87695 280.98V248.034L33.2303 264.495Z" stroke="#E8E8E8" stroke-width="0.31" stroke-miterlimit="10"/>
<path d="M4.87695 280.981L33.2303 264.495V297.442L4.87695 280.981Z" stroke="#E8E8E8" stroke-width="0.31" stroke-miterlimit="10"/>
<path d="M373.445 429.202L401.799 412.716V445.662L373.445 429.202Z" stroke="#E8E8E8" stroke-width="0.31" stroke-miterlimit="10"/>
<path d="M401.799 412.716L430.128 429.202L401.799 445.662V412.716Z" stroke="#E8E8E8" stroke-width="0.31" stroke-miterlimit="10"/>
<path d="M373.445 429.201V396.255L401.799 412.716L373.445 429.201Z" stroke="#E8E8E8" stroke-width="0.31" stroke-miterlimit="10"/>
<path d="M430.129 462.123V429.201L458.482 445.662L430.129 462.123Z" stroke="#E8E8E8" stroke-width="0.31" stroke-miterlimit="10"/>
<path d="M401.799 445.662L430.128 429.201V462.123L401.799 445.662Z" stroke="#E8E8E8" stroke-width="0.31" stroke-miterlimit="10"/>
<path d="M373.445 462.123L345.092 445.662L373.445 429.201V462.123Z" stroke="#E8E8E8" stroke-width="0.31" stroke-miterlimit="10"/>
<path d="M373.445 462.123V429.201L401.799 445.662L373.445 462.123Z" stroke="#E8E8E8" stroke-width="0.31" stroke-miterlimit="10"/>
<path d="M288.385 412.716L316.738 396.255V429.201L288.385 412.716Z" stroke="#E8E8E8" stroke-width="0.31" stroke-miterlimit="10"/>
<path d="M288.385 412.716L316.738 429.202L288.385 445.662V412.716Z" stroke="#E8E8E8" stroke-width="0.31" stroke-miterlimit="10"/>
<path d="M260.031 429.202L288.385 412.716V445.662L260.031 429.202Z" stroke="#E8E8E8" stroke-width="0.31" stroke-miterlimit="10"/>
<path d="M260.031 429.201V396.255L288.385 412.716L260.031 429.201Z" stroke="#E8E8E8" stroke-width="0.31" stroke-miterlimit="10"/>
<path d="M260.031 396.255L288.385 379.794V412.716L260.031 396.255Z" stroke="#E8E8E8" stroke-width="0.31" stroke-miterlimit="10"/>
<path d="M288.385 379.794L316.738 396.255L288.385 412.716V379.794Z" stroke="#E8E8E8" stroke-width="0.31" stroke-miterlimit="10"/>
<path d="M231.678 379.794L260.031 363.31V396.255L231.678 379.794Z" stroke="#E8E8E8" stroke-width="0.31" stroke-miterlimit="10"/>
<path d="M260.031 363.309L288.385 346.848V379.794L260.031 363.309Z" stroke="#E8E8E8" stroke-width="0.31" stroke-miterlimit="10"/>
<path d="M231.678 346.848L260.031 363.309L231.678 379.794V346.848Z" stroke="#E8E8E8" stroke-width="0.31" stroke-miterlimit="10"/>
<path d="M260.031 396.255V363.31L288.385 379.794L260.031 396.255Z" stroke="#E8E8E8" stroke-width="0.31" stroke-miterlimit="10"/>
<path d="M260.031 363.309V330.387L288.385 346.848L260.031 363.309Z" stroke="#E8E8E8" stroke-width="0.31" stroke-miterlimit="10"/>
<path d="M260.031 363.309L231.678 346.848L260.031 330.387V363.309Z" stroke="#E8E8E8" stroke-width="0.31" stroke-miterlimit="10"/>
<path d="M316.74 396.255V363.31L345.094 379.794L316.74 396.255Z" stroke="#E8E8E8" stroke-width="0.31" stroke-miterlimit="10"/>
<path d="M288.385 379.794L316.738 363.31V396.255L288.385 379.794Z" stroke="#E8E8E8" stroke-width="0.31" stroke-miterlimit="10"/>
<path d="M288.385 346.848L316.738 363.309L288.385 379.794V346.848Z" stroke="#E8E8E8" stroke-width="0.31" stroke-miterlimit="10"/>
<path d="M316.74 429.202L345.094 412.716V445.662L316.74 429.202Z" stroke="#E8E8E8" stroke-width="0.31" stroke-miterlimit="10"/>
<path d="M345.092 412.716L373.445 429.202L345.092 445.662V412.716Z" stroke="#E8E8E8" stroke-width="0.31" stroke-miterlimit="10"/>
<path d="M316.74 396.255L345.094 379.794V412.716L316.74 396.255Z" stroke="#E8E8E8" stroke-width="0.31" stroke-miterlimit="10"/>
<path d="M345.092 412.716L373.445 396.255V429.201L345.092 412.716Z" stroke="#E8E8E8" stroke-width="0.31" stroke-miterlimit="10"/>
<path d="M345.092 379.794L373.445 396.255L345.092 412.716V379.794Z" stroke="#E8E8E8" stroke-width="0.31" stroke-miterlimit="10"/>
<path d="M316.74 429.201V396.255L345.094 412.716L316.74 429.201Z" stroke="#E8E8E8" stroke-width="0.31" stroke-miterlimit="10"/>
<path d="M316.74 462.123V429.201L345.094 445.662L316.74 462.123Z" stroke="#E8E8E8" stroke-width="0.31" stroke-miterlimit="10"/>
<path d="M288.385 445.662L316.738 429.201V462.123L288.385 445.662Z" stroke="#E8E8E8" stroke-width="0.31" stroke-miterlimit="10"/>
<path d="M260.031 462.123L231.678 445.662L260.031 429.201V462.123Z" stroke="#E8E8E8" stroke-width="0.31" stroke-miterlimit="10"/>
<path d="M260.031 462.123V429.201L288.385 445.662L260.031 462.123Z" stroke="#E8E8E8" stroke-width="0.31" stroke-miterlimit="10"/>
<path d="M174.973 445.662V412.716L203.326 429.202L174.973 445.662Z" stroke="#E8E8E8" stroke-width="0.31" stroke-miterlimit="10"/>
<path d="M174.973 412.716L203.326 396.255V429.201L174.973 412.716Z" stroke="#E8E8E8" stroke-width="0.31" stroke-miterlimit="10"/>
<path d="M174.973 412.716V379.794L203.326 396.255L174.973 412.716Z" stroke="#E8E8E8" stroke-width="0.31" stroke-miterlimit="10"/>
<path d="M146.643 429.202L174.972 412.716V445.662L146.643 429.202Z" stroke="#E8E8E8" stroke-width="0.31" stroke-miterlimit="10"/>
<path d="M146.643 429.201V396.255L174.972 412.716L146.643 429.201Z" stroke="#E8E8E8" stroke-width="0.31" stroke-miterlimit="10"/>
<path d="M146.643 396.255L174.972 379.794V412.716L146.643 396.255Z" stroke="#E8E8E8" stroke-width="0.31" stroke-miterlimit="10"/>
<path d="M174.973 346.848L203.326 330.387V363.309L174.973 346.848Z" stroke="#E8E8E8" stroke-width="0.31" stroke-miterlimit="10"/>
<path d="M203.324 363.309V330.387L231.678 346.848L203.324 363.309Z" stroke="#E8E8E8" stroke-width="0.31" stroke-miterlimit="10"/>
<path d="M174.973 379.794V346.848L203.326 363.309L174.973 379.794Z" stroke="#E8E8E8" stroke-width="0.31" stroke-miterlimit="10"/>
<path d="M203.324 363.309L231.678 346.848V379.794L203.324 363.309Z" stroke="#E8E8E8" stroke-width="0.31" stroke-miterlimit="10"/>
<path d="M174.973 379.794L203.326 363.31V396.255L174.973 379.794Z" stroke="#E8E8E8" stroke-width="0.31" stroke-miterlimit="10"/>
<path d="M203.324 396.255V363.31L231.678 379.794L203.324 396.255Z" stroke="#E8E8E8" stroke-width="0.31" stroke-miterlimit="10"/>
<path d="M174.973 313.902L203.326 330.387L174.973 346.848V313.902Z" stroke="#E8E8E8" stroke-width="0.31" stroke-miterlimit="10"/>
<path d="M174.973 313.902L203.326 297.441V330.387L174.973 313.902Z" stroke="#E8E8E8" stroke-width="0.31" stroke-miterlimit="10"/>
<path d="M174.972 346.848L146.643 330.387L174.972 313.902V346.848Z" stroke="#E8E8E8" stroke-width="0.31" stroke-miterlimit="10"/>
<path d="M231.678 313.902L260.031 330.387L231.678 346.848V313.902Z" stroke="#E8E8E8" stroke-width="0.31" stroke-miterlimit="10"/>
<path d="M203.324 330.387L231.678 313.902V346.848L203.324 330.387Z" stroke="#E8E8E8" stroke-width="0.31" stroke-miterlimit="10"/>
<path d="M231.678 313.902L203.324 330.387V297.441L231.678 313.902Z" stroke="#E8E8E8" stroke-width="0.31" stroke-miterlimit="10"/>
<path d="M203.324 396.255L231.678 379.794V412.716L203.324 396.255Z" stroke="#E8E8E8" stroke-width="0.31" stroke-miterlimit="10"/>
<path d="M231.678 412.716L260.031 429.202L231.678 445.662V412.716Z" stroke="#E8E8E8" stroke-width="0.31" stroke-miterlimit="10"/>
<path d="M231.678 379.794L260.031 396.255L231.678 412.716V379.794Z" stroke="#E8E8E8" stroke-width="0.31" stroke-miterlimit="10"/>
<path d="M203.324 429.201V396.255L231.678 412.716L203.324 429.201Z" stroke="#E8E8E8" stroke-width="0.31" stroke-miterlimit="10"/>
<path d="M203.324 429.202L231.678 412.716V445.662L203.324 429.202Z" stroke="#E8E8E8" stroke-width="0.31" stroke-miterlimit="10"/>
<path d="M231.678 412.716L260.031 396.255V429.201L231.678 412.716Z" stroke="#E8E8E8" stroke-width="0.31" stroke-miterlimit="10"/>
<path d="M203.324 462.123V429.201L231.678 445.662L203.324 462.123Z" stroke="#E8E8E8" stroke-width="0.31" stroke-miterlimit="10"/>
<path d="M174.973 445.662L203.326 429.201V462.123L174.973 445.662Z" stroke="#E8E8E8" stroke-width="0.31" stroke-miterlimit="10"/>
<path d="M89.9375 462.123V429.201L118.291 445.662L89.9375 462.123Z" stroke="#E8E8E8" stroke-width="0.31" stroke-miterlimit="10"/>
<path d="M89.9353 462.123L61.582 445.662L89.9353 429.201V462.123Z" stroke="#E8E8E8" stroke-width="0.31" stroke-miterlimit="10"/>
<path d="M89.9353 429.201L61.582 412.716L89.9353 396.255V429.201Z" stroke="#E8E8E8" stroke-width="0.31" stroke-miterlimit="10"/>
<path d="M61.5818 445.662L33.2285 429.202L61.5818 412.716V445.662Z" stroke="#E8E8E8" stroke-width="0.31" stroke-miterlimit="10"/>
<path d="M61.5818 412.716L33.2285 396.255L61.5818 379.794V412.716Z" stroke="#E8E8E8" stroke-width="0.31" stroke-miterlimit="10"/>
<path d="M61.582 412.716V379.794L89.9353 396.255L61.582 412.716Z" stroke="#E8E8E8" stroke-width="0.31" stroke-miterlimit="10"/>
<path d="M33.2285 429.201V396.255L61.5818 412.716L33.2285 429.201Z" stroke="#E8E8E8" stroke-width="0.31" stroke-miterlimit="10"/>
<path d="M61.582 445.662V412.716L89.9353 429.202L61.582 445.662Z" stroke="#E8E8E8" stroke-width="0.31" stroke-miterlimit="10"/>
<path d="M89.9375 429.201V396.255L118.291 412.716L89.9375 429.201Z" stroke="#E8E8E8" stroke-width="0.31" stroke-miterlimit="10"/>
<path d="M118.291 412.716L146.644 429.202L118.291 445.662V412.716Z" stroke="#E8E8E8" stroke-width="0.31" stroke-miterlimit="10"/>
<path d="M118.291 412.716L146.644 396.255V429.201L118.291 412.716Z" stroke="#E8E8E8" stroke-width="0.31" stroke-miterlimit="10"/>
<path d="M118.291 445.662L89.9375 429.202L118.291 412.716V445.662Z" stroke="#E8E8E8" stroke-width="0.31" stroke-miterlimit="10"/>
<path d="M118.291 379.794L146.644 396.255L118.291 412.716V379.794Z" stroke="#E8E8E8" stroke-width="0.31" stroke-miterlimit="10"/>
<path d="M89.9375 396.255L118.291 379.794V412.716L89.9375 396.255Z" stroke="#E8E8E8" stroke-width="0.31" stroke-miterlimit="10"/>
<path d="M146.644 462.123L118.291 445.662L146.644 429.201V462.123Z" stroke="#E8E8E8" stroke-width="0.31" stroke-miterlimit="10"/>
<path d="M146.643 429.201L174.972 445.662L146.643 462.123V429.201Z" stroke="#E8E8E8" stroke-width="0.31" stroke-miterlimit="10"/>
<path d="M146.643 429.201L174.972 445.662L146.643 429.201Z" stroke="#E8E8E8" stroke-width="0.31" stroke-miterlimit="10"/>
<path d="M118.291 346.848V379.794L89.9375 363.309L118.291 346.848Z" stroke="#E8E8E8" stroke-width="0.31" stroke-miterlimit="10"/>
<path d="M61.582 379.794L89.9353 363.31V396.255L61.582 379.794Z" stroke="#E8E8E8" stroke-width="0.31" stroke-miterlimit="10"/>
<path d="M89.9375 363.31L118.291 379.794L89.9375 396.255V363.31Z" stroke="#E8E8E8" stroke-width="0.31" stroke-miterlimit="10"/>
<path d="M118.291 379.794L146.644 363.31V396.255L118.291 379.794Z" stroke="#E8E8E8" stroke-width="0.31" stroke-miterlimit="10"/>
<path d="M118.291 346.848L146.644 363.309L118.291 379.794V346.848Z" stroke="#E8E8E8" stroke-width="0.31" stroke-miterlimit="10"/>
<path d="M146.643 396.255V363.31L174.972 379.794L146.643 396.255Z" stroke="#E8E8E8" stroke-width="0.31" stroke-miterlimit="10"/>
<path d="M146.644 363.309L118.291 346.848L136.25 336.406L146.644 330.387V363.309Z" stroke="#E8E8E8" stroke-width="0.31" stroke-miterlimit="10"/>
<path d="M146.643 363.309V330.387L174.972 346.848L146.643 363.309Z" stroke="#E8E8E8" stroke-width="0.31" stroke-miterlimit="10"/>
<path d="M146.643 363.309L174.972 346.848V379.794L146.643 363.309Z" stroke="#E8E8E8" stroke-width="0.31" stroke-miterlimit="10"/>
<path d="M33.2285 462.123V429.201L61.5818 445.662L33.2285 462.123Z" stroke="#E8E8E8" stroke-width="0.31" stroke-miterlimit="10"/>
<path d="M4.87695 412.716L33.2303 396.255V429.201L4.87695 412.716Z" stroke="#E8E8E8" stroke-width="0.31" stroke-miterlimit="10"/>
<path d="M4.87695 412.716L33.2303 429.202L4.87695 445.662V412.716Z" stroke="#E8E8E8" stroke-width="0.31" stroke-miterlimit="10"/>
<path d="M4.87695 445.662L33.2303 429.201V462.123L4.87695 445.662Z" stroke="#E8E8E8" stroke-width="0.31" stroke-miterlimit="10"/>
</g>
<g opacity="0.2">
<g opacity="0.56">
<path d="M258.565 303.425C262.877 303.425 266.373 300.081 266.373 295.956C266.373 291.831 262.877 288.487 258.565 288.487C254.253 288.487 250.758 291.831 250.758 295.956C250.758 300.081 254.253 303.425 258.565 303.425Z" fill="#E8E8E8"/>
<path opacity="0.92" d="M287.015 319.427C291.02 319.427 294.267 316.321 294.267 312.49C294.267 308.658 291.02 305.552 287.015 305.552C283.01 305.552 279.764 308.658 279.764 312.49C279.764 316.321 283.01 319.427 287.015 319.427Z" fill="#E8E8E8"/>
<path opacity="0.83" d="M315.294 335.549C318.979 335.549 321.966 332.681 321.966 329.143C321.966 325.606 318.979 322.738 315.294 322.738C311.61 322.738 308.623 325.606 308.623 329.143C308.623 332.681 311.61 335.549 315.294 335.549Z" fill="#E8E8E8"/>
<path opacity="0.75" d="M315.295 367.939C318.673 367.939 321.411 365.309 321.411 362.065C321.411 358.821 318.673 356.192 315.295 356.192C311.918 356.192 309.18 358.821 309.18 362.065C309.18 365.309 311.918 367.939 315.295 367.939Z" fill="#E8E8E8"/>
<path opacity="0.67" d="M315.298 400.329C318.368 400.329 320.857 397.937 320.857 394.987C320.857 392.037 318.368 389.645 315.298 389.645C312.227 389.645 309.738 392.037 309.738 394.987C309.738 397.937 312.227 400.329 315.298 400.329Z" fill="#E8E8E8"/>
<path opacity="0.59" d="M315.295 432.719C318.058 432.719 320.298 430.566 320.298 427.909C320.298 425.252 318.058 423.099 315.295 423.099C312.531 423.099 310.291 425.252 310.291 427.909C310.291 430.566 312.531 432.719 315.295 432.719Z" fill="#E8E8E8"/>
</g>
<g opacity="0.56">
<path d="M230.305 287.616C234.617 287.616 238.113 284.272 238.113 280.147C238.113 276.022 234.617 272.678 230.305 272.678C225.994 272.678 222.498 276.022 222.498 280.147C222.498 284.272 225.994 287.616 230.305 287.616Z" fill="#E8E8E8"/>
<path opacity="0.92" d="M201.931 270.696C205.936 270.696 209.183 267.591 209.183 263.759C209.183 259.928 205.936 256.822 201.931 256.822C197.926 256.822 194.68 259.928 194.68 263.759C194.68 267.591 197.926 270.696 201.931 270.696Z" fill="#E8E8E8"/>
<path opacity="0.83" d="M173.648 253.631C177.332 253.631 180.319 250.763 180.319 247.226C180.319 243.688 177.332 240.82 173.648 240.82C169.963 240.82 166.977 243.688 166.977 247.226C166.977 250.763 169.963 253.631 173.648 253.631Z" fill="#E8E8E8"/>
<path opacity="0.75" d="M145.199 236.856C148.577 236.856 151.315 234.227 151.315 230.983C151.315 227.739 148.577 225.109 145.199 225.109C141.822 225.109 139.084 227.739 139.084 230.983C139.084 234.227 141.822 236.856 145.199 236.856Z" fill="#E8E8E8"/>
<path opacity="0.67" d="M116.821 219.936C119.892 219.936 122.381 217.544 122.381 214.594C122.381 211.644 119.892 209.252 116.821 209.252C113.751 209.252 111.262 211.644 111.262 214.594C111.262 217.544 113.751 219.936 116.821 219.936Z" fill="#E8E8E8"/>
<path opacity="0.59" d="M88.4412 203.016C91.2046 203.016 93.4449 200.862 93.4449 198.205C93.4449 195.549 91.2046 193.395 88.4412 193.395C85.6778 193.395 83.4375 195.549 83.4375 198.205C83.4375 200.862 85.6778 203.016 88.4412 203.016Z" fill="#E8E8E8"/>
<path opacity="0.51" d="M60.065 186.095C62.5213 186.095 64.5128 184.18 64.5128 181.817C64.5128 179.454 62.5213 177.539 60.065 177.539C57.6087 177.539 55.6172 179.454 55.6172 181.817C55.6172 184.18 57.6087 186.095 60.065 186.095Z" fill="#E8E8E8"/>
<path opacity="0.42" d="M31.7142 169.176C33.8635 169.176 35.6061 167.498 35.6061 165.429C35.6061 163.36 33.8635 161.682 31.7142 161.682C29.5649 161.682 27.8223 163.36 27.8223 165.429C27.8223 167.498 29.5649 169.176 31.7142 169.176Z" fill="#E8E8E8"/>
<path opacity="0.34" d="M3.336 152.255C5.17825 152.255 6.6714 150.816 6.6714 149.04C6.6714 147.265 5.17825 145.826 3.336 145.826C1.49375 145.826 0 147.265 0 149.04C0 150.816 1.49375 152.255 3.336 152.255Z" fill="#E8E8E8"/>
</g>
<g opacity="0.56">
<path d="M258.563 270.624C262.875 270.624 266.371 267.28 266.371 263.155C266.371 259.03 262.875 255.686 258.563 255.686C254.251 255.686 250.756 259.03 250.756 263.155C250.756 267.28 254.251 270.624 258.563 270.624Z" fill="#E8E8E8"/>
<path opacity="0.92" d="M230.185 253.703C234.19 253.703 237.437 250.598 237.437 246.766C237.437 242.935 234.19 239.829 230.185 239.829C226.18 239.829 222.934 242.935 222.934 246.766C222.934 250.598 226.18 253.703 230.185 253.703Z" fill="#E8E8E8"/>
<path opacity="0.83" d="M201.88 236.638C205.565 236.638 208.552 233.771 208.552 230.233C208.552 226.695 205.565 223.828 201.88 223.828C198.196 223.828 195.209 226.695 195.209 230.233C195.209 233.771 198.196 236.638 201.88 236.638Z" fill="#E8E8E8"/>
<path opacity="0.75" d="M173.429 219.863C176.807 219.863 179.545 217.234 179.545 213.99C179.545 210.746 176.807 208.116 173.429 208.116C170.052 208.116 167.314 210.746 167.314 213.99C167.314 217.234 170.052 219.863 173.429 219.863Z" fill="#E8E8E8"/>
<path opacity="0.67" d="M145.051 202.943C148.122 202.943 150.611 200.551 150.611 197.601C150.611 194.651 148.122 192.259 145.051 192.259C141.981 192.259 139.492 194.651 139.492 197.601C139.492 200.551 141.981 202.943 145.051 202.943Z" fill="#E8E8E8"/>
<path opacity="0.59" d="M116.7 186.023C119.464 186.023 121.704 183.869 121.704 181.213C121.704 178.556 119.464 176.403 116.7 176.403C113.937 176.403 111.697 178.556 111.697 181.213C111.697 183.869 113.937 186.023 116.7 186.023Z" fill="#E8E8E8"/>
<path opacity="0.51" d="M88.3203 169.103C90.7766 169.103 92.7681 167.187 92.7681 164.824C92.7681 162.461 90.7766 160.546 88.3203 160.546C85.8639 160.546 83.873 162.461 83.873 164.824C83.873 167.187 85.8639 169.103 88.3203 169.103Z" fill="#E8E8E8"/>
<path opacity="0.42" d="M59.944 152.183C62.0933 152.183 63.8359 150.505 63.8359 148.436C63.8359 146.367 62.0933 144.69 59.944 144.69C57.7947 144.69 56.0527 146.367 56.0527 148.436C56.0527 150.505 57.7947 152.183 59.944 152.183Z" fill="#E8E8E8"/>
<path opacity="0.34" d="M31.5659 135.262C33.4081 135.262 34.9019 133.824 34.9019 132.048C34.9019 130.273 33.4081 128.833 31.5659 128.833C29.7236 128.833 28.2305 130.273 28.2305 132.048C28.2305 133.824 29.7236 135.262 31.5659 135.262Z" fill="#E8E8E8"/>
</g>
<g opacity="0.56">
<path d="M286.845 254.599C291.156 254.599 294.652 251.254 294.652 247.129C294.652 243.004 291.156 239.66 286.845 239.66C282.533 239.66 279.037 243.004 279.037 247.129C279.037 251.254 282.533 254.599 286.845 254.599Z" fill="#E8E8E8"/>
<path opacity="0.92" d="M258.47 237.678C262.475 237.678 265.722 234.572 265.722 230.741C265.722 226.909 262.475 223.804 258.47 223.804C254.465 223.804 251.219 226.909 251.219 230.741C251.219 234.572 254.465 237.678 258.47 237.678Z" fill="#E8E8E8"/>
<path opacity="0.83" d="M230.187 220.613C233.872 220.613 236.858 217.745 236.858 214.208C236.858 210.67 233.872 207.802 230.187 207.802C226.503 207.802 223.516 210.67 223.516 214.208C223.516 217.745 226.503 220.613 230.187 220.613Z" fill="#E8E8E8"/>
<path opacity="0.75" d="M201.739 203.838C205.116 203.838 207.854 201.208 207.854 197.964C207.854 194.72 205.116 192.091 201.739 192.091C198.361 192.091 195.623 194.72 195.623 197.964C195.623 201.208 198.361 203.838 201.739 203.838Z" fill="#E8E8E8"/>
<path opacity="0.67" d="M173.36 186.894C176.431 186.894 178.919 184.502 178.919 181.552C178.919 178.602 176.431 176.209 173.36 176.209C170.29 176.209 167.801 178.602 167.801 181.552C167.801 184.502 170.29 186.894 173.36 186.894Z" fill="#E8E8E8"/>
<path opacity="0.59" d="M144.98 169.973C147.744 169.973 149.983 167.82 149.983 165.163C149.983 162.507 147.744 160.353 144.98 160.353C142.217 160.353 139.977 162.507 139.977 165.163C139.977 167.82 142.217 169.973 144.98 169.973Z" fill="#E8E8E8"/>
<path opacity="0.51" d="M116.604 153.054C119.06 153.054 121.051 151.138 121.051 148.775C121.051 146.412 119.06 144.497 116.604 144.497C114.148 144.497 112.156 146.412 112.156 148.775C112.156 151.138 114.148 153.054 116.604 153.054Z" fill="#E8E8E8"/>
<path opacity="0.42" d="M88.2526 136.133C90.4019 136.133 92.1445 134.456 92.1445 132.387C92.1445 130.317 90.4019 128.64 88.2526 128.64C86.1033 128.64 84.3613 130.317 84.3613 132.387C84.3613 134.456 86.1033 136.133 88.2526 136.133Z" fill="#E8E8E8"/>
<path opacity="0.34" d="M59.8745 119.213C61.7167 119.213 63.2105 117.773 63.2105 115.998C63.2105 114.222 61.7167 112.783 59.8745 112.783C58.0322 112.783 56.5391 114.222 56.5391 115.998C56.5391 117.773 58.0322 119.213 59.8745 119.213Z" fill="#E8E8E8"/>
</g>
<g opacity="0.56">
<path d="M286.846 287.617C291.158 287.617 294.654 284.272 294.654 280.147C294.654 276.022 291.158 272.679 286.846 272.679C282.535 272.679 279.039 276.022 279.039 280.147C279.039 284.272 282.535 287.617 286.846 287.617Z" fill="#E8E8E8"/>
<path opacity="0.92" d="M315.32 303.619C319.325 303.619 322.571 300.512 322.571 296.681C322.571 292.85 319.325 289.744 315.32 289.744C311.315 289.744 308.068 292.85 308.068 296.681C308.068 300.512 311.315 303.619 315.32 303.619Z" fill="#E8E8E8"/>
<path opacity="0.83" d="M343.603 319.741C347.288 319.741 350.274 316.873 350.274 313.336C350.274 309.798 347.288 306.93 343.603 306.93C339.919 306.93 336.932 309.798 336.932 313.336C336.932 316.873 339.919 319.741 343.603 319.741Z" fill="#E8E8E8"/>
<path opacity="0.75" d="M343.6 352.131C346.977 352.131 349.715 349.501 349.715 346.257C349.715 343.013 346.977 340.384 343.6 340.384C340.222 340.384 337.484 343.013 337.484 346.257C337.484 349.501 340.222 352.131 343.6 352.131Z" fill="#E8E8E8"/>
<path opacity="0.67" d="M343.603 384.521C346.673 384.521 349.162 382.13 349.162 379.179C349.162 376.229 346.673 373.837 343.603 373.837C340.532 373.837 338.043 376.229 338.043 379.179C338.043 382.13 340.532 384.521 343.603 384.521Z" fill="#E8E8E8"/>
<path opacity="0.59" d="M343.599 416.911C346.363 416.911 348.603 414.757 348.603 412.101C348.603 409.444 346.363 407.291 343.599 407.291C340.836 407.291 338.596 409.444 338.596 412.101C338.596 414.757 340.836 416.911 343.599 416.911Z" fill="#E8E8E8"/>
</g>
<g opacity="0.56">
<path d="M315.512 271.277C319.824 271.277 323.32 267.932 323.32 263.807C323.32 259.682 319.824 256.339 315.512 256.339C311.201 256.339 307.705 259.682 307.705 263.807C307.705 267.932 311.201 271.277 315.512 271.277Z" fill="#E8E8E8"/>
<path opacity="0.92" d="M343.962 287.279C347.967 287.279 351.214 284.172 351.214 280.341C351.214 276.51 347.967 273.404 343.962 273.404C339.958 273.404 336.711 276.51 336.711 280.341C336.711 284.172 339.958 287.279 343.962 287.279Z" fill="#E8E8E8"/>
<path opacity="0.83" d="M372.245 303.401C375.93 303.401 378.916 300.533 378.916 296.995C378.916 293.458 375.93 290.59 372.245 290.59C368.561 290.59 365.574 293.458 365.574 296.995C365.574 300.533 368.561 303.401 372.245 303.401Z" fill="#E8E8E8"/>
<path opacity="0.75" d="M372.242 335.791C375.619 335.791 378.357 333.161 378.357 329.917C378.357 326.673 375.619 324.044 372.242 324.044C368.864 324.044 366.127 326.673 366.127 329.917C366.127 333.161 368.864 335.791 372.242 335.791Z" fill="#E8E8E8"/>
<path opacity="0.67" d="M372.243 368.181C375.313 368.181 377.802 365.79 377.802 362.839C377.802 359.889 375.313 357.497 372.243 357.497C369.172 357.497 366.684 359.889 366.684 362.839C366.684 365.79 369.172 368.181 372.243 368.181Z" fill="#E8E8E8"/>
<path opacity="0.59" d="M372.241 400.571C375.005 400.571 377.245 398.417 377.245 395.761C377.245 393.104 375.005 390.951 372.241 390.951C369.478 390.951 367.238 393.104 367.238 395.761C367.238 398.417 369.478 400.571 372.241 400.571Z" fill="#E8E8E8"/>
<path opacity="0.51" d="M372.246 432.961C374.702 432.961 376.694 431.046 376.694 428.683C376.694 426.32 374.702 424.405 372.246 424.405C369.79 424.405 367.799 426.32 367.799 428.683C367.799 431.046 369.79 432.961 372.246 432.961Z" fill="#E8E8E8"/>
</g>
<g opacity="0.56">
<path d="M343.624 254.719C347.936 254.719 351.431 251.375 351.431 247.25C351.431 243.125 347.936 239.781 343.624 239.781C339.312 239.781 335.816 243.125 335.816 247.25C335.816 251.375 339.312 254.719 343.624 254.719Z" fill="#E8E8E8"/>
<path opacity="0.92" d="M372.097 270.721C376.102 270.721 379.349 267.615 379.349 263.784C379.349 259.952 376.102 256.846 372.097 256.846C368.092 256.846 364.846 259.952 364.846 263.784C364.846 267.615 368.092 270.721 372.097 270.721Z" fill="#E8E8E8"/>
<path opacity="0.83" d="M400.38 286.843C404.065 286.843 407.052 283.975 407.052 280.437C407.052 276.9 404.065 274.032 400.38 274.032C396.696 274.032 393.709 276.9 393.709 280.437C393.709 283.975 396.696 286.843 400.38 286.843Z" fill="#E8E8E8"/>
<path opacity="0.75" d="M400.379 319.233C403.757 319.233 406.495 316.603 406.495 313.359C406.495 310.115 403.757 307.486 400.379 307.486C397.002 307.486 394.264 310.115 394.264 313.359C394.264 316.603 397.002 319.233 400.379 319.233Z" fill="#E8E8E8"/>
<path opacity="0.67" d="M400.38 351.623C403.45 351.623 405.94 349.232 405.94 346.281C405.94 343.331 403.45 340.939 400.38 340.939C397.309 340.939 394.82 343.331 394.82 346.281C394.82 349.232 397.309 351.623 400.38 351.623Z" fill="#E8E8E8"/>
<path opacity="0.59" d="M400.377 384.013C403.14 384.013 405.38 381.86 405.38 379.203C405.38 376.547 403.14 374.393 400.377 374.393C397.613 374.393 395.373 376.547 395.373 379.203C395.373 381.86 397.613 384.013 400.377 384.013Z" fill="#E8E8E8"/>
<path opacity="0.51" d="M400.379 416.403C402.836 416.403 404.827 414.488 404.827 412.125C404.827 409.762 402.836 407.846 400.379 407.846C397.923 407.846 395.932 409.762 395.932 412.125C395.932 414.488 397.923 416.403 400.379 416.403Z" fill="#E8E8E8"/>
</g>
<g opacity="0.56">
<path d="M315.392 238.911C319.704 238.911 323.199 235.566 323.199 231.441C323.199 227.316 319.704 223.972 315.392 223.972C311.08 223.972 307.584 227.316 307.584 231.441C307.584 235.566 311.08 238.911 315.392 238.911Z" fill="#E8E8E8"/>
<path opacity="0.92" d="M287.017 221.99C291.022 221.99 294.269 218.884 294.269 215.053C294.269 211.221 291.022 208.116 287.017 208.116C283.012 208.116 279.766 211.221 279.766 215.053C279.766 218.884 283.012 221.99 287.017 221.99Z" fill="#E8E8E8"/>
<path opacity="0.83" d="M258.734 204.95C262.418 204.95 265.405 202.081 265.405 198.544C265.405 195.006 262.418 192.138 258.734 192.138C255.049 192.138 252.062 195.006 252.062 198.544C252.062 202.081 255.049 204.95 258.734 204.95Z" fill="#E8E8E8"/>
<path opacity="0.75" d="M230.285 188.15C233.662 188.15 236.4 185.52 236.4 182.276C236.4 179.032 233.662 176.403 230.285 176.403C226.907 176.403 224.17 179.032 224.17 182.276C224.17 185.52 226.907 188.15 230.285 188.15Z" fill="#E8E8E8"/>
<path opacity="0.67" d="M201.907 171.23C204.977 171.23 207.466 168.838 207.466 165.888C207.466 162.938 204.977 160.546 201.907 160.546C198.836 160.546 196.348 162.938 196.348 165.888C196.348 168.838 198.836 171.23 201.907 171.23Z" fill="#E8E8E8"/>
<path opacity="0.59" d="M173.53 154.31C176.294 154.31 178.534 152.156 178.534 149.5C178.534 146.843 176.294 144.689 173.53 144.689C170.767 144.689 168.527 146.843 168.527 149.5C168.527 152.156 170.767 154.31 173.53 154.31Z" fill="#E8E8E8"/>
<path opacity="0.51" d="M145.15 137.389C147.607 137.389 149.598 135.474 149.598 133.111C149.598 130.748 147.607 128.833 145.15 128.833C142.694 128.833 140.703 130.748 140.703 133.111C140.703 135.474 142.694 137.389 145.15 137.389Z" fill="#E8E8E8"/>
<path opacity="0.42" d="M116.774 120.47C118.923 120.47 120.666 118.792 120.666 116.723C120.666 114.654 118.923 112.976 116.774 112.976C114.625 112.976 112.883 114.654 112.883 116.723C112.883 118.792 114.625 120.47 116.774 120.47Z" fill="#E8E8E8"/>
<path opacity="0.34" d="M88.4213 103.549C90.2636 103.549 91.7573 102.11 91.7573 100.334C91.7573 98.5589 90.2636 97.1194 88.4213 97.1194C86.5791 97.1194 85.0859 98.5589 85.0859 100.334C85.0859 102.11 86.5791 103.549 88.4213 103.549Z" fill="#E8E8E8"/>
</g>
<g opacity="0.56">
<path d="M343.624 221.918C347.936 221.918 351.431 218.574 351.431 214.449C351.431 210.324 347.936 206.98 343.624 206.98C339.312 206.98 335.816 210.324 335.816 214.449C335.816 218.574 339.312 221.918 343.624 221.918Z" fill="#E8E8E8"/>
<path opacity="0.92" d="M315.271 204.998C319.276 204.998 322.523 201.892 322.523 198.061C322.523 194.229 319.276 191.124 315.271 191.124C311.266 191.124 308.02 194.229 308.02 198.061C308.02 201.892 311.266 204.998 315.271 204.998Z" fill="#E8E8E8"/>
<path opacity="0.83" d="M286.966 187.957C290.651 187.957 293.638 185.089 293.638 181.552C293.638 178.014 290.651 175.146 286.966 175.146C283.282 175.146 280.295 178.014 280.295 181.552C280.295 185.089 283.282 187.957 286.966 187.957Z" fill="#E8E8E8"/>
<path opacity="0.75" d="M258.516 171.158C261.893 171.158 264.631 168.528 264.631 165.284C264.631 162.04 261.893 159.41 258.516 159.41C255.138 159.41 252.4 162.04 252.4 165.284C252.4 168.528 255.138 171.158 258.516 171.158Z" fill="#E8E8E8"/>
<path opacity="0.67" d="M230.14 154.237C233.21 154.237 235.699 151.846 235.699 148.896C235.699 145.945 233.21 143.553 230.14 143.553C227.069 143.553 224.58 145.945 224.58 148.896C224.58 151.846 227.069 154.237 230.14 154.237Z" fill="#E8E8E8"/>
<path opacity="0.59" d="M201.763 137.318C204.527 137.318 206.767 135.164 206.767 132.507C206.767 129.851 204.527 127.697 201.763 127.697C199 127.697 196.76 129.851 196.76 132.507C196.76 135.164 199 137.318 201.763 137.318Z" fill="#E8E8E8"/>
<path opacity="0.51" d="M173.409 120.397C175.865 120.397 177.856 118.482 177.856 116.119C177.856 113.756 175.865 111.841 173.409 111.841C170.952 111.841 168.961 113.756 168.961 116.119C168.961 118.482 170.952 120.397 173.409 120.397Z" fill="#E8E8E8"/>
<path opacity="0.42" d="M145.03 103.477C147.179 103.477 148.922 101.8 148.922 99.7304C148.922 97.6612 147.179 95.9836 145.03 95.9836C142.881 95.9836 141.139 97.6612 141.139 99.7304C141.139 101.8 142.881 103.477 145.03 103.477Z" fill="#E8E8E8"/>
<path opacity="0.34" d="M116.652 86.5567C118.494 86.5567 119.988 85.1172 119.988 83.3417C119.988 81.5662 118.494 80.1267 116.652 80.1267C114.81 80.1267 113.316 81.5662 113.316 83.3417C113.316 85.1172 114.81 86.5567 116.652 86.5567Z" fill="#E8E8E8"/>
</g>
<g opacity="0.56">
<path d="M371.927 205.892C376.238 205.892 379.734 202.549 379.734 198.424C379.734 194.299 376.238 190.954 371.927 190.954C367.615 190.954 364.119 194.299 364.119 198.424C364.119 202.549 367.615 205.892 371.927 205.892Z" fill="#E8E8E8"/>
<path opacity="0.92" d="M343.552 188.972C347.557 188.972 350.804 185.866 350.804 182.035C350.804 178.204 347.557 175.097 343.552 175.097C339.547 175.097 336.301 178.204 336.301 182.035C336.301 185.866 339.547 188.972 343.552 188.972Z" fill="#E8E8E8"/>
<path opacity="0.83" d="M315.269 171.907C318.954 171.907 321.94 169.039 321.94 165.501C321.94 161.964 318.954 159.096 315.269 159.096C311.585 159.096 308.598 161.964 308.598 165.501C308.598 169.039 311.585 171.907 315.269 171.907Z" fill="#E8E8E8"/>
<path opacity="0.75" d="M286.821 155.131C290.198 155.131 292.936 152.502 292.936 149.258C292.936 146.014 290.198 143.384 286.821 143.384C283.443 143.384 280.705 146.014 280.705 149.258C280.705 152.502 283.443 155.131 286.821 155.131Z" fill="#E8E8E8"/>
<path opacity="0.67" d="M258.442 138.212C261.513 138.212 264.002 135.82 264.002 132.87C264.002 129.92 261.513 127.528 258.442 127.528C255.372 127.528 252.883 129.92 252.883 132.87C252.883 135.82 255.372 138.212 258.442 138.212Z" fill="#E8E8E8"/>
<path opacity="0.59" d="M230.062 121.291C232.826 121.291 235.065 119.138 235.065 116.481C235.065 113.825 232.826 111.671 230.062 111.671C227.299 111.671 225.059 113.825 225.059 116.481C225.059 119.138 227.299 121.291 230.062 121.291Z" fill="#E8E8E8"/>
<path opacity="0.51" d="M201.686 104.371C204.142 104.371 206.133 102.456 206.133 100.093C206.133 97.7298 204.142 95.8142 201.686 95.8142C199.23 95.8142 197.238 97.7298 197.238 100.093C197.238 102.456 199.23 104.371 201.686 104.371Z" fill="#E8E8E8"/>
<path opacity="0.42" d="M173.31 87.4506C175.459 87.4506 177.201 85.7737 177.201 83.7045C177.201 81.6353 175.459 79.9578 173.31 79.9578C171.161 79.9578 169.418 81.6353 169.418 83.7045C169.418 85.7737 171.161 87.4506 173.31 87.4506Z" fill="#E8E8E8"/>
<path opacity="0.34" d="M144.957 70.5066C146.799 70.5066 148.292 69.0677 148.292 67.2922C148.292 65.5167 146.799 64.0771 144.957 64.0771C143.115 64.0771 141.621 65.5167 141.621 67.2922C141.621 69.0677 143.115 70.5066 144.957 70.5066Z" fill="#E8E8E8"/>
</g>
<g opacity="0.56">
<path d="M371.928 238.911C376.24 238.911 379.736 235.567 379.736 231.442C379.736 227.317 376.24 223.973 371.928 223.973C367.617 223.973 364.121 227.317 364.121 231.442C364.121 235.567 367.617 238.911 371.928 238.911Z" fill="#E8E8E8"/>
<path opacity="0.92" d="M400.402 254.937C404.407 254.937 407.653 251.831 407.653 248C407.653 244.168 404.407 241.062 400.402 241.062C396.397 241.062 393.15 244.168 393.15 248C393.15 251.831 396.397 254.937 400.402 254.937Z" fill="#E8E8E8"/>
<path opacity="0.83" d="M428.66 271.035C432.344 271.035 435.331 268.167 435.331 264.629C435.331 261.092 432.344 258.224 428.66 258.224C424.975 258.224 421.988 261.092 421.988 264.629C421.988 268.167 424.975 271.035 428.66 271.035Z" fill="#E8E8E8"/>
<path opacity="0.75" d="M428.658 303.425C432.036 303.425 434.774 300.796 434.774 297.552C434.774 294.308 432.036 291.677 428.658 291.677C425.281 291.677 422.543 294.308 422.543 297.552C422.543 300.796 425.281 303.425 428.658 303.425Z" fill="#E8E8E8"/>
<path opacity="0.67" d="M428.661 335.815C431.732 335.815 434.221 333.423 434.221 330.473C434.221 327.523 431.732 325.131 428.661 325.131C425.591 325.131 423.102 327.523 423.102 330.473C423.102 333.423 425.591 335.815 428.661 335.815Z" fill="#E8E8E8"/>
<path opacity="0.59" d="M428.658 368.23C431.421 368.23 433.662 366.076 433.662 363.42C433.662 360.763 431.421 358.609 428.658 358.609C425.895 358.609 423.654 360.763 423.654 363.42C423.654 366.076 425.895 368.23 428.658 368.23Z" fill="#E8E8E8"/>
<path opacity="0.51" d="M428.657 400.619C431.113 400.619 433.105 398.704 433.105 396.341C433.105 393.978 431.113 392.062 428.657 392.062C426.2 392.062 424.209 393.978 424.209 396.341C424.209 398.704 426.2 400.619 428.657 400.619Z" fill="#E8E8E8"/>
<path opacity="0.42" d="M428.659 433.009C430.808 433.009 432.551 431.332 432.551 429.263C432.551 427.194 430.808 425.516 428.659 425.516C426.51 425.516 424.768 427.194 424.768 429.263C424.768 431.332 426.51 433.009 428.659 433.009Z" fill="#E8E8E8"/>
</g>
<g opacity="0.56">
<path d="M400.573 222.571C404.885 222.571 408.38 219.227 408.38 215.102C408.38 210.977 404.885 207.633 400.573 207.633C396.261 207.633 392.766 210.977 392.766 215.102C392.766 219.227 396.261 222.571 400.573 222.571Z" fill="#E8E8E8"/>
<path opacity="0.92" d="M429.046 238.573C433.051 238.573 436.298 235.467 436.298 231.636C436.298 227.804 433.051 224.698 429.046 224.698C425.042 224.698 421.795 227.804 421.795 231.636C421.795 235.467 425.042 238.573 429.046 238.573Z" fill="#E8E8E8"/>
<path opacity="0.83" d="M457.33 254.695C461.014 254.695 464.001 251.827 464.001 248.289C464.001 244.752 461.014 241.884 457.33 241.884C453.645 241.884 450.658 244.752 450.658 248.289C450.658 251.827 453.645 254.695 457.33 254.695Z" fill="#E8E8E8"/>
<path opacity="0.75" d="M457.326 287.085C460.704 287.085 463.442 284.456 463.442 281.212C463.442 277.968 460.704 275.337 457.326 275.337C453.949 275.337 451.211 277.968 451.211 281.212C451.211 284.456 453.949 287.085 457.326 287.085Z" fill="#E8E8E8"/>
<path opacity="0.67" d="M457.329 319.475C460.4 319.475 462.888 317.083 462.888 314.133C462.888 311.183 460.4 308.791 457.329 308.791C454.259 308.791 451.77 311.183 451.77 314.133C451.77 317.083 454.259 319.475 457.329 319.475Z" fill="#E8E8E8"/>
<path opacity="0.59" d="M457.326 351.865C460.089 351.865 462.329 349.712 462.329 347.055C462.329 344.399 460.089 342.245 457.326 342.245C454.563 342.245 452.322 344.399 452.322 347.055C452.322 349.712 454.563 351.865 457.326 351.865Z" fill="#E8E8E8"/>
<path opacity="0.51" d="M457.329 384.255C459.785 384.255 461.776 382.34 461.776 379.977C461.776 377.614 459.785 375.698 457.329 375.698C454.872 375.698 452.881 377.614 452.881 379.977C452.881 382.34 454.872 384.255 457.329 384.255Z" fill="#E8E8E8"/>
<path opacity="0.42" d="M457.327 416.646C459.477 416.646 461.219 414.968 461.219 412.899C461.219 410.83 459.477 409.152 457.327 409.152C455.178 409.152 453.436 410.83 453.436 412.899C453.436 414.968 455.178 416.646 457.327 416.646Z" fill="#E8E8E8"/>
</g>
</g>
</svg>
