<svg width="448" height="414" viewBox="0 0 448 414" fill="none" xmlns="http://www.w3.org/2000/svg">
<g opacity="0.2">
<path d="M79.7615 138.51L53.5117 153.79L79.7615 138.51Z" stroke="#E8E8E8" stroke-width="0.34" stroke-miterlimit="10"/>
<path d="M89.3711 144.1L106.021 153.79L132.271 138.51L106.021 153.79L89.3711 144.1Z" stroke="#E8E8E8" stroke-width="0.34" stroke-miterlimit="10"/>
<path d="M132.271 138.51L158.531 153.79L184.781 138.51L158.531 153.79L132.271 138.51Z" stroke="#E8E8E8" stroke-width="0.34" stroke-miterlimit="10"/>
<path d="M53.5117 153.79L79.7615 138.51L53.5117 123.23V153.79Z" stroke="#E8E8E8" stroke-width="0.34" stroke-miterlimit="10"/>
<path d="M53.5117 153.79V123.23L27.2617 138.51L53.5117 153.79Z" stroke="#E8E8E8" stroke-width="0.34" stroke-miterlimit="10"/>
<path d="M27.2617 138.51L53.5117 123.23L27.2617 107.95V138.51Z" stroke="#E8E8E8" stroke-width="0.34" stroke-miterlimit="10"/>
<path d="M53.5117 123.23L79.7615 107.95L53.5117 92.6699V123.23Z" stroke="#E8E8E8" stroke-width="0.34" stroke-miterlimit="10"/>
<path d="M53.5117 123.23V92.6699L27.2617 107.95L53.5117 123.23Z" stroke="#E8E8E8" stroke-width="0.34" stroke-miterlimit="10"/>
<path d="M79.7615 138.51V107.95L53.5117 123.23L79.7615 138.51Z" stroke="#E8E8E8" stroke-width="0.34" stroke-miterlimit="10"/>
<path d="M27.2617 77.3904L53.5117 92.6703V62.1104L27.2617 77.3904Z" stroke="#E8E8E8" stroke-width="0.34" stroke-miterlimit="10"/>
<path d="M1 92.6703L27.26 77.3904L1 62.1104V92.6703Z" stroke="#E8E8E8" stroke-width="0.34" stroke-miterlimit="10"/>
<path d="M27.2617 107.95L53.5117 92.6701L27.2617 77.3901V107.95Z" stroke="#E8E8E8" stroke-width="0.34" stroke-miterlimit="10"/>
<path d="M1 62.1101L27.26 77.3901V46.8301L1 62.1101Z" stroke="#E8E8E8" stroke-width="0.34" stroke-miterlimit="10"/>
<path d="M27.26 107.95V77.3901L1 92.6701L27.26 107.95Z" stroke="#E8E8E8" stroke-width="0.34" stroke-miterlimit="10"/>
<path d="M27.2617 77.3901L53.5117 62.1101L27.2617 46.8301V77.3901Z" stroke="#E8E8E8" stroke-width="0.34" stroke-miterlimit="10"/>
<path d="M53.5117 31.5603L27.2617 16.2803V46.8303L53.5117 31.5603Z" stroke="#E8E8E8" stroke-width="0.34" stroke-miterlimit="10"/>
<path d="M27.2617 46.83L53.5117 62.11V31.5601L27.2617 46.83Z" stroke="#E8E8E8" stroke-width="0.34" stroke-miterlimit="10"/>
<path d="M79.7615 16.28L53.5117 1V31.56L79.7615 16.28Z" stroke="#E8E8E8" stroke-width="0.34" stroke-miterlimit="10"/>
<path d="M53.5117 62.11L79.7615 46.83L53.5117 31.5601V62.11Z" stroke="#E8E8E8" stroke-width="0.34" stroke-miterlimit="10"/>
<path d="M53.5117 31.56V1L27.2617 16.28L53.5117 31.56Z" stroke="#E8E8E8" stroke-width="0.34" stroke-miterlimit="10"/>
<path d="M79.7615 46.8303V16.2803L53.5117 31.5603L79.7615 46.8303Z" stroke="#E8E8E8" stroke-width="0.34" stroke-miterlimit="10"/>
<path d="M1 31.5603L27.26 46.8303V16.2803L1 31.5603Z" stroke="#E8E8E8" stroke-width="0.34" stroke-miterlimit="10"/>
<path d="M1 62.11L27.26 46.83L1 31.5601V62.11Z" stroke="#E8E8E8" stroke-width="0.34" stroke-miterlimit="10"/>
<path d="M1 123.23L27.26 107.95L1 92.6699V123.23Z" stroke="#E8E8E8" stroke-width="0.34" stroke-miterlimit="10"/>
<path d="M1 153.79L27.26 138.51L1 123.23V153.79Z" stroke="#E8E8E8" stroke-width="0.34" stroke-miterlimit="10"/>
<path d="M1 123.23L27.26 138.51V107.95L1 123.23Z" stroke="#E8E8E8" stroke-width="0.34" stroke-miterlimit="10"/>
<path d="M79.7617 46.8303L106.022 31.5603L79.7617 16.2803V46.8303Z" stroke="#E8E8E8" stroke-width="0.34" stroke-miterlimit="10"/>
<path d="M106.021 62.11L132.271 46.83L106.021 31.5601V62.11Z" stroke="#E8E8E8" stroke-width="0.34" stroke-miterlimit="10"/>
<path d="M106.022 62.11V31.5601L79.7617 46.83L106.022 62.11Z" stroke="#E8E8E8" stroke-width="0.34" stroke-miterlimit="10"/>
<path d="M158.531 153.79V123.23L132.271 138.51L158.531 153.79Z" stroke="#E8E8E8" stroke-width="0.34" stroke-miterlimit="10"/>
<path d="M158.531 153.79L184.781 138.51L158.531 123.23V153.79Z" stroke="#E8E8E8" stroke-width="0.34" stroke-miterlimit="10"/>
<path d="M158.531 123.23L184.781 138.51V107.95L158.531 123.23Z" stroke="#E8E8E8" stroke-width="0.34" stroke-miterlimit="10"/>
<path d="M132.271 107.95L158.531 123.23V92.6699L132.271 107.95Z" stroke="#E8E8E8" stroke-width="0.34" stroke-miterlimit="10"/>
<path d="M158.531 123.23L184.781 107.95L158.531 92.6699V123.23Z" stroke="#E8E8E8" stroke-width="0.34" stroke-miterlimit="10"/>
<path d="M132.271 138.51L158.531 123.23L132.271 107.95V138.51Z" stroke="#E8E8E8" stroke-width="0.34" stroke-miterlimit="10"/>
<path d="M106.021 123.23L132.271 107.95L106.021 92.6699V123.23Z" stroke="#E8E8E8" stroke-width="0.34" stroke-miterlimit="10"/>
<path d="M106.021 153.79L132.271 138.51L106.021 123.23V153.79Z" stroke="#E8E8E8" stroke-width="0.34" stroke-miterlimit="10"/>
<path d="M79.7617 138.51L106.022 123.23L79.7617 107.95V138.51Z" stroke="#E8E8E8" stroke-width="0.34" stroke-miterlimit="10"/>
<path d="M79.7617 138.51L89.3721 144.1L106.022 153.79V123.23L79.7617 138.51Z" stroke="#E8E8E8" stroke-width="0.34" stroke-miterlimit="10"/>
<path d="M79.7617 107.95L106.022 123.23V92.6699L79.7617 107.95Z" stroke="#E8E8E8" stroke-width="0.34" stroke-miterlimit="10"/>
<path d="M106.021 123.23L132.271 138.51V107.95L106.021 123.23Z" stroke="#E8E8E8" stroke-width="0.34" stroke-miterlimit="10"/>
<path d="M106.021 92.6703L132.271 77.3904L106.021 62.1104V92.6703Z" stroke="#E8E8E8" stroke-width="0.34" stroke-miterlimit="10"/>
<path d="M132.271 77.3901V46.8301L106.021 62.1101L132.271 77.3901Z" stroke="#E8E8E8" stroke-width="0.34" stroke-miterlimit="10"/>
<path d="M132.271 77.3901L158.531 62.1101L132.271 46.8301V77.3901Z" stroke="#E8E8E8" stroke-width="0.34" stroke-miterlimit="10"/>
<path d="M158.531 92.6703V62.1104L132.271 77.3904L158.531 92.6703Z" stroke="#E8E8E8" stroke-width="0.34" stroke-miterlimit="10"/>
<path d="M132.271 107.95L158.531 92.6701L132.271 77.3901V107.95Z" stroke="#E8E8E8" stroke-width="0.34" stroke-miterlimit="10"/>
<path d="M106.021 92.6701L132.271 107.95V77.3901L106.021 92.6701Z" stroke="#E8E8E8" stroke-width="0.34" stroke-miterlimit="10"/>
<path d="M53.5117 92.6701L79.7615 107.95V77.3901L53.5117 92.6701Z" stroke="#E8E8E8" stroke-width="0.34" stroke-miterlimit="10"/>
<path d="M79.7617 77.3904L106.022 92.6703V62.1104L79.7617 77.3904Z" stroke="#E8E8E8" stroke-width="0.34" stroke-miterlimit="10"/>
<path d="M79.7617 77.3901V107.95L106.022 92.6701L79.7617 77.3901Z" stroke="#E8E8E8" stroke-width="0.34" stroke-miterlimit="10"/>
<path d="M79.7615 77.3901V46.8301L53.5117 62.1101L79.7615 77.3901Z" stroke="#E8E8E8" stroke-width="0.34" stroke-miterlimit="10"/>
<path d="M53.5117 62.1104V92.6703L79.7615 77.3904L53.5117 62.1104Z" stroke="#E8E8E8" stroke-width="0.34" stroke-miterlimit="10"/>
<path d="M79.7617 77.3901L106.022 62.1101L79.7617 46.8301V77.3901Z" stroke="#E8E8E8" stroke-width="0.34" stroke-miterlimit="10"/>
<path d="M184.781 107.95V77.3901L158.531 92.6701L184.781 107.95Z" stroke="#E8E8E8" stroke-width="0.34" stroke-miterlimit="10"/>
<path d="M158.531 92.6703L184.781 77.3904L158.531 62.1104V92.6703Z" stroke="#E8E8E8" stroke-width="0.34" stroke-miterlimit="10"/>
<path d="M1 184.34L27.26 169.06L1 153.79V184.34Z" stroke="#E8E8E8" stroke-width="0.34" stroke-miterlimit="10"/>
<path d="M27.26 169.06V138.51L1 153.79L27.26 169.06Z" stroke="#E8E8E8" stroke-width="0.34" stroke-miterlimit="10"/>
<path d="M27.26 199.62V169.06L1 184.34L27.26 199.62Z" stroke="#E8E8E8" stroke-width="0.34" stroke-miterlimit="10"/>
<path d="M27.2617 169.06L53.5117 153.79L27.2617 138.51V169.06Z" stroke="#E8E8E8" stroke-width="0.34" stroke-miterlimit="10"/>
<path d="M27.2617 199.62L53.5117 184.34L27.2617 169.06V199.62Z" stroke="#E8E8E8" stroke-width="0.34" stroke-miterlimit="10"/>
<path d="M53.5117 184.34V153.79L27.2617 169.06L53.5117 184.34Z" stroke="#E8E8E8" stroke-width="0.34" stroke-miterlimit="10"/>
<path d="M132.271 260.74V230.18L106.021 245.46L132.271 260.74Z" stroke="#E8E8E8" stroke-width="0.34" stroke-miterlimit="10"/>
<path d="M132.271 260.74L158.531 245.46L132.271 230.18V260.74Z" stroke="#E8E8E8" stroke-width="0.34" stroke-miterlimit="10"/>
<path d="M158.531 276.01V245.46L132.271 260.74L158.531 276.01Z" stroke="#E8E8E8" stroke-width="0.34" stroke-miterlimit="10"/>
<path d="M184.781 260.74V230.18L158.531 245.46L184.781 260.74Z" stroke="#E8E8E8" stroke-width="0.34" stroke-miterlimit="10"/>
<path d="M184.781 291.29V260.74L158.531 276.01L184.781 291.29Z" stroke="#E8E8E8" stroke-width="0.34" stroke-miterlimit="10"/>
<path d="M158.531 276.01L184.781 260.74L158.531 245.46V276.01Z" stroke="#E8E8E8" stroke-width="0.34" stroke-miterlimit="10"/>
<path d="M79.7617 199.62V230.18L106.022 214.9L79.7617 199.62Z" stroke="#E8E8E8" stroke-width="0.34" stroke-miterlimit="10"/>
<path d="M132.271 199.62L106.021 184.34V214.9L132.271 199.62Z" stroke="#E8E8E8" stroke-width="0.34" stroke-miterlimit="10"/>
<path d="M106.021 214.9L132.271 230.18V199.62L106.021 214.9Z" stroke="#E8E8E8" stroke-width="0.34" stroke-miterlimit="10"/>
<path d="M106.022 245.46V214.9L79.7617 230.18L106.022 245.46Z" stroke="#E8E8E8" stroke-width="0.34" stroke-miterlimit="10"/>
<path d="M106.021 245.46L132.271 230.18L106.021 214.9V245.46Z" stroke="#E8E8E8" stroke-width="0.34" stroke-miterlimit="10"/>
<path d="M106.022 214.9V184.34L79.7617 199.62L106.022 214.9Z" stroke="#E8E8E8" stroke-width="0.34" stroke-miterlimit="10"/>
<path d="M79.7615 230.18V199.62L53.5117 214.9L79.7615 230.18Z" stroke="#E8E8E8" stroke-width="0.34" stroke-miterlimit="10"/>
<path d="M53.5117 214.9V184.34L27.2617 199.62L53.5117 214.9Z" stroke="#E8E8E8" stroke-width="0.34" stroke-miterlimit="10"/>
<path d="M79.7615 199.62L53.5117 184.34V214.9L79.7615 199.62Z" stroke="#E8E8E8" stroke-width="0.34" stroke-miterlimit="10"/>
<path d="M158.531 214.9V184.34L132.271 199.62L158.531 214.9Z" stroke="#E8E8E8" stroke-width="0.34" stroke-miterlimit="10"/>
<path d="M158.531 214.9L184.781 230.18V199.62L158.531 214.9Z" stroke="#E8E8E8" stroke-width="0.34" stroke-miterlimit="10"/>
<path d="M158.531 245.46L184.781 230.18L158.531 214.9V245.46Z" stroke="#E8E8E8" stroke-width="0.34" stroke-miterlimit="10"/>
<path d="M132.271 199.62V230.18L158.531 214.9L132.271 199.62Z" stroke="#E8E8E8" stroke-width="0.34" stroke-miterlimit="10"/>
<path d="M158.531 245.46V214.9L132.271 230.18L158.531 245.46Z" stroke="#E8E8E8" stroke-width="0.34" stroke-miterlimit="10"/>
<path d="M184.781 199.62L158.531 184.34V214.9L184.781 199.62Z" stroke="#E8E8E8" stroke-width="0.34" stroke-miterlimit="10"/>
<path d="M158.531 153.79L132.271 138.51V169.06L158.531 153.79Z" stroke="#E8E8E8" stroke-width="0.34" stroke-miterlimit="10"/>
<path d="M132.271 199.62V169.06L106.021 184.34L132.271 199.62Z" stroke="#E8E8E8" stroke-width="0.34" stroke-miterlimit="10"/>
<path d="M132.271 169.06L106.021 153.79V184.34L132.271 169.06Z" stroke="#E8E8E8" stroke-width="0.34" stroke-miterlimit="10"/>
<path d="M132.271 199.62L158.531 184.34L132.271 169.06V199.62Z" stroke="#E8E8E8" stroke-width="0.34" stroke-miterlimit="10"/>
<path d="M132.271 169.06V138.51L106.021 153.79L132.271 169.06Z" stroke="#E8E8E8" stroke-width="0.34" stroke-miterlimit="10"/>
<path d="M158.531 184.34V153.79L132.271 169.06L158.531 184.34Z" stroke="#E8E8E8" stroke-width="0.34" stroke-miterlimit="10"/>
<path d="M132.271 199.62L106.021 184.34L132.271 199.62Z" stroke="#E8E8E8" stroke-width="0.34" stroke-miterlimit="10"/>
<path d="M132.271 199.62L158.531 184.34L132.271 199.62Z" stroke="#E8E8E8" stroke-width="0.34" stroke-miterlimit="10"/>
<path d="M79.7617 169.06L106.022 153.79L89.3721 144.1L79.7617 138.51V169.06Z" stroke="#E8E8E8" stroke-width="0.34" stroke-miterlimit="10"/>
<path d="M79.7617 169.06L106.022 184.34V153.79L79.7617 169.06Z" stroke="#E8E8E8" stroke-width="0.34" stroke-miterlimit="10"/>
<path d="M79.7615 169.06V138.51L53.5117 153.79L79.7615 169.06Z" stroke="#E8E8E8" stroke-width="0.34" stroke-miterlimit="10"/>
<path d="M79.7615 199.62V169.06L53.5117 184.34L79.7615 199.62Z" stroke="#E8E8E8" stroke-width="0.34" stroke-miterlimit="10"/>
<path d="M106.022 184.34L79.7617 169.06V199.62L106.022 184.34Z" stroke="#E8E8E8" stroke-width="0.34" stroke-miterlimit="10"/>
<path d="M53.5117 184.34L79.7615 169.06L53.5117 153.79V184.34Z" stroke="#E8E8E8" stroke-width="0.34" stroke-miterlimit="10"/>
<path d="M79.7617 138.51L89.3721 144.1L79.7617 138.51Z" stroke="#E8E8E8" stroke-width="0.34" stroke-miterlimit="10"/>
<path d="M79.7617 199.62L106.022 184.34L79.7617 199.62Z" stroke="#E8E8E8" stroke-width="0.34" stroke-miterlimit="10"/>
<path d="M79.7615 199.62L53.5117 184.34" stroke="#E8E8E8" stroke-width="0.34" stroke-miterlimit="10"/>
<path d="M158.531 184.34L184.781 169.06L158.531 153.79V184.34Z" stroke="#E8E8E8" stroke-width="0.34" stroke-miterlimit="10"/>
<path d="M184.781 199.62V169.06L158.531 184.34L184.781 199.62Z" stroke="#E8E8E8" stroke-width="0.34" stroke-miterlimit="10"/>
<path d="M184.781 169.06V138.51L158.531 153.79L184.781 169.06Z" stroke="#E8E8E8" stroke-width="0.34" stroke-miterlimit="10"/>
<path d="M158.531 184.34L184.781 199.62" stroke="#E8E8E8" stroke-width="0.34" stroke-miterlimit="10"/>
<path d="M27.2617 260.74L53.5117 245.46L27.2617 230.18V260.74Z" stroke="#E8E8E8" stroke-width="0.34" stroke-miterlimit="10"/>
<path d="M1 245.46V276.01L27.26 260.74L1 245.46Z" stroke="#E8E8E8" stroke-width="0.34" stroke-miterlimit="10"/>
<path d="M1 276.01L27.26 291.29V260.74L1 276.01Z" stroke="#E8E8E8" stroke-width="0.34" stroke-miterlimit="10"/>
<path d="M27.26 260.74V230.18L1 245.46L27.26 260.74Z" stroke="#E8E8E8" stroke-width="0.34" stroke-miterlimit="10"/>
<path d="M53.5117 276.01V245.46L27.2617 260.74L53.5117 276.01Z" stroke="#E8E8E8" stroke-width="0.34" stroke-miterlimit="10"/>
<path d="M27.2617 291.29L53.5117 276.01L27.2617 260.74V291.29Z" stroke="#E8E8E8" stroke-width="0.34" stroke-miterlimit="10"/>
<path d="M1 214.9L27.26 199.62L1 184.34V214.9Z" stroke="#E8E8E8" stroke-width="0.34" stroke-miterlimit="10"/>
<path d="M27.26 230.18L1 214.9V245.46L27.26 230.18Z" stroke="#E8E8E8" stroke-width="0.34" stroke-miterlimit="10"/>
<path d="M27.26 230.18V199.62L1 214.9L27.26 230.18Z" stroke="#E8E8E8" stroke-width="0.34" stroke-miterlimit="10"/>
<path d="M106.021 276.01L132.271 260.74L106.021 245.46V276.01Z" stroke="#E8E8E8" stroke-width="0.34" stroke-miterlimit="10"/>
<path d="M132.271 291.29L158.531 276.01L132.271 260.74V291.29Z" stroke="#E8E8E8" stroke-width="0.34" stroke-miterlimit="10"/>
<path d="M132.271 291.29V260.74L106.021 276.01L132.271 291.29Z" stroke="#E8E8E8" stroke-width="0.34" stroke-miterlimit="10"/>
<path d="M53.5117 276.01L79.7615 260.74L53.5117 245.46V276.01Z" stroke="#E8E8E8" stroke-width="0.34" stroke-miterlimit="10"/>
<path d="M79.7617 260.74V291.29L106.022 276.01L79.7617 260.74Z" stroke="#E8E8E8" stroke-width="0.34" stroke-miterlimit="10"/>
<path d="M79.7615 260.74V230.18L53.5117 245.46L79.7615 260.74Z" stroke="#E8E8E8" stroke-width="0.34" stroke-miterlimit="10"/>
<path d="M79.7615 291.29V260.74L53.5117 276.01L79.7615 291.29Z" stroke="#E8E8E8" stroke-width="0.34" stroke-miterlimit="10"/>
<path d="M79.7617 260.74L106.022 245.46L79.7617 230.18V260.74Z" stroke="#E8E8E8" stroke-width="0.34" stroke-miterlimit="10"/>
<path d="M106.022 276.01V245.46L79.7617 260.74L106.022 276.01Z" stroke="#E8E8E8" stroke-width="0.34" stroke-miterlimit="10"/>
<path d="M53.5117 245.46V214.9L27.2617 230.18L53.5117 245.46Z" stroke="#E8E8E8" stroke-width="0.34" stroke-miterlimit="10"/>
<path d="M53.5117 214.9L27.2617 199.62V230.18L53.5117 214.9Z" stroke="#E8E8E8" stroke-width="0.34" stroke-miterlimit="10"/>
<path d="M53.5117 245.46L79.7615 230.18L53.5117 214.9V245.46Z" stroke="#E8E8E8" stroke-width="0.34" stroke-miterlimit="10"/>
<path d="M211.031 123.23V92.6699L184.781 107.95L211.031 123.23Z" stroke="#E8E8E8" stroke-width="0.34" stroke-miterlimit="10"/>
<path d="M211.031 153.79L237.292 138.51L211.031 123.23V153.79Z" stroke="#E8E8E8" stroke-width="0.34" stroke-miterlimit="10"/>
<path d="M211.031 123.23L237.292 107.95L211.031 92.6699V123.23Z" stroke="#E8E8E8" stroke-width="0.34" stroke-miterlimit="10"/>
<path d="M211.031 153.79V123.23L184.781 138.51L211.031 153.79Z" stroke="#E8E8E8" stroke-width="0.34" stroke-miterlimit="10"/>
<path d="M237.292 138.51V107.95L211.031 123.23L237.292 138.51Z" stroke="#E8E8E8" stroke-width="0.34" stroke-miterlimit="10"/>
<path d="M184.781 138.51L211.031 123.23L184.781 107.95V138.51Z" stroke="#E8E8E8" stroke-width="0.34" stroke-miterlimit="10"/>
<path d="M211.031 92.6701L184.781 77.3901V107.95L211.031 92.6701Z" stroke="#E8E8E8" stroke-width="0.34" stroke-miterlimit="10"/>
<path d="M237.291 138.51L263.541 123.23L237.291 107.95V138.51Z" stroke="#E8E8E8" stroke-width="0.34" stroke-miterlimit="10"/>
<path d="M263.541 153.79L289.791 138.51L263.541 123.23V153.79Z" stroke="#E8E8E8" stroke-width="0.34" stroke-miterlimit="10"/>
<path d="M263.541 153.79V123.23L237.291 138.51L263.541 153.79Z" stroke="#E8E8E8" stroke-width="0.34" stroke-miterlimit="10"/>
<path d="M263.541 184.34L289.791 169.06L263.541 153.79V184.34Z" stroke="#E8E8E8" stroke-width="0.34" stroke-miterlimit="10"/>
<path d="M289.791 169.06V138.51L263.541 153.79L289.791 169.06Z" stroke="#E8E8E8" stroke-width="0.34" stroke-miterlimit="10"/>
<path d="M289.791 199.62V169.06L263.541 184.34L289.791 199.62Z" stroke="#E8E8E8" stroke-width="0.34" stroke-miterlimit="10"/>
<path d="M289.791 169.06L316.051 153.79L289.791 138.51V169.06Z" stroke="#E8E8E8" stroke-width="0.34" stroke-miterlimit="10"/>
<path d="M289.791 199.62L316.051 184.34L289.791 169.06V199.62Z" stroke="#E8E8E8" stroke-width="0.34" stroke-miterlimit="10"/>
<path d="M316.051 184.34V153.79L289.791 169.06L316.051 184.34Z" stroke="#E8E8E8" stroke-width="0.34" stroke-miterlimit="10"/>
<path d="M237.291 169.06L263.541 153.79L237.291 138.51V169.06Z" stroke="#E8E8E8" stroke-width="0.34" stroke-miterlimit="10"/>
<path d="M237.292 169.06V138.51L211.031 153.79L237.292 169.06Z" stroke="#E8E8E8" stroke-width="0.34" stroke-miterlimit="10"/>
<path d="M263.541 184.34V153.79L237.291 169.06L263.541 184.34Z" stroke="#E8E8E8" stroke-width="0.34" stroke-miterlimit="10"/>
<path d="M394.811 260.74V230.18L368.561 245.46L394.811 260.74Z" stroke="#E8E8E8" stroke-width="0.34" stroke-miterlimit="10"/>
<path d="M342.301 199.62V230.18L368.561 214.9L342.301 199.62Z" stroke="#E8E8E8" stroke-width="0.34" stroke-miterlimit="10"/>
<path d="M394.811 199.62L368.561 184.34V214.9L394.811 199.62Z" stroke="#E8E8E8" stroke-width="0.34" stroke-miterlimit="10"/>
<path d="M368.561 214.9L394.811 230.18V199.62L368.561 214.9Z" stroke="#E8E8E8" stroke-width="0.34" stroke-miterlimit="10"/>
<path d="M368.561 245.46V214.9L342.301 230.18L368.561 245.46Z" stroke="#E8E8E8" stroke-width="0.34" stroke-miterlimit="10"/>
<path d="M368.561 245.46L394.811 230.18L368.561 214.9V245.46Z" stroke="#E8E8E8" stroke-width="0.34" stroke-miterlimit="10"/>
<path d="M368.561 214.9V184.34L342.301 199.62L368.561 214.9Z" stroke="#E8E8E8" stroke-width="0.34" stroke-miterlimit="10"/>
<path d="M342.301 230.18V199.62L316.051 214.9L342.301 230.18Z" stroke="#E8E8E8" stroke-width="0.34" stroke-miterlimit="10"/>
<path d="M316.051 214.9V184.34L289.791 199.62L316.051 214.9Z" stroke="#E8E8E8" stroke-width="0.34" stroke-miterlimit="10"/>
<path d="M342.301 199.62L316.051 184.34V214.9L342.301 199.62Z" stroke="#E8E8E8" stroke-width="0.34" stroke-miterlimit="10"/>
<path d="M394.811 199.62L368.561 184.34L394.811 199.62Z" stroke="#E8E8E8" stroke-width="0.34" stroke-miterlimit="10"/>
<path d="M342.301 199.62V169.06L316.051 184.34L342.301 199.62Z" stroke="#E8E8E8" stroke-width="0.34" stroke-miterlimit="10"/>
<path d="M368.561 184.34L342.301 169.06V199.62L368.561 184.34Z" stroke="#E8E8E8" stroke-width="0.34" stroke-miterlimit="10"/>
<path d="M316.051 184.34L342.301 169.06L316.051 153.79V184.34Z" stroke="#E8E8E8" stroke-width="0.34" stroke-miterlimit="10"/>
<path d="M342.301 199.62L368.561 184.34L342.301 199.62Z" stroke="#E8E8E8" stroke-width="0.34" stroke-miterlimit="10"/>
<path d="M342.301 199.62L316.051 184.34" stroke="#E8E8E8" stroke-width="0.34" stroke-miterlimit="10"/>
<path d="M184.781 260.74L211.031 276.01V245.46L184.781 260.74Z" stroke="#E8E8E8" stroke-width="0.34" stroke-miterlimit="10"/>
<path d="M184.781 291.29L211.031 276.01L184.781 260.74V291.29Z" stroke="#E8E8E8" stroke-width="0.34" stroke-miterlimit="10"/>
<path d="M184.781 260.74L211.031 245.46L184.781 230.18V260.74Z" stroke="#E8E8E8" stroke-width="0.34" stroke-miterlimit="10"/>
<path d="M184.781 199.62L211.031 214.9V184.34L184.781 199.62Z" stroke="#E8E8E8" stroke-width="0.34" stroke-miterlimit="10"/>
<path d="M211.031 214.9V245.46L237.292 230.18L211.031 214.9Z" stroke="#E8E8E8" stroke-width="0.34" stroke-miterlimit="10"/>
<path d="M184.781 230.18L211.031 245.46V214.9L184.781 230.18Z" stroke="#E8E8E8" stroke-width="0.34" stroke-miterlimit="10"/>
<path d="M184.781 230.18L211.031 214.9L184.781 199.62V230.18Z" stroke="#E8E8E8" stroke-width="0.34" stroke-miterlimit="10"/>
<path d="M237.292 230.18V199.62L211.031 214.9L237.292 230.18Z" stroke="#E8E8E8" stroke-width="0.34" stroke-miterlimit="10"/>
<path d="M211.031 214.9L237.292 199.62L211.031 184.34V214.9Z" stroke="#E8E8E8" stroke-width="0.34" stroke-miterlimit="10"/>
<path d="M289.791 260.74L316.051 245.46L289.791 230.18V260.74Z" stroke="#E8E8E8" stroke-width="0.34" stroke-miterlimit="10"/>
<path d="M263.541 245.46V276.01L289.791 260.74L263.541 245.46Z" stroke="#E8E8E8" stroke-width="0.34" stroke-miterlimit="10"/>
<path d="M263.541 276.01L289.791 291.29V260.74L263.541 276.01Z" stroke="#E8E8E8" stroke-width="0.34" stroke-miterlimit="10"/>
<path d="M289.791 260.74V230.18L263.541 245.46L289.791 260.74Z" stroke="#E8E8E8" stroke-width="0.34" stroke-miterlimit="10"/>
<path d="M316.051 276.01V245.46L289.791 260.74L316.051 276.01Z" stroke="#E8E8E8" stroke-width="0.34" stroke-miterlimit="10"/>
<path d="M289.791 291.29L316.051 276.01L289.791 260.74V291.29Z" stroke="#E8E8E8" stroke-width="0.34" stroke-miterlimit="10"/>
<path d="M263.541 214.9L289.791 199.62L263.541 184.34V214.9Z" stroke="#E8E8E8" stroke-width="0.34" stroke-miterlimit="10"/>
<path d="M289.791 230.18L263.541 214.9V245.46L289.791 230.18Z" stroke="#E8E8E8" stroke-width="0.34" stroke-miterlimit="10"/>
<path d="M237.291 230.18L263.541 214.9L237.291 199.62V230.18Z" stroke="#E8E8E8" stroke-width="0.34" stroke-miterlimit="10"/>
<path d="M289.791 230.18V199.62L263.541 214.9L289.791 230.18Z" stroke="#E8E8E8" stroke-width="0.34" stroke-miterlimit="10"/>
<path d="M263.541 214.9V184.34L237.291 199.62L263.541 214.9Z" stroke="#E8E8E8" stroke-width="0.34" stroke-miterlimit="10"/>
<path d="M263.541 245.46V214.9L237.291 230.18L263.541 245.46Z" stroke="#E8E8E8" stroke-width="0.34" stroke-miterlimit="10"/>
<path d="M184.781 169.06L211.031 184.34V153.79L184.781 169.06Z" stroke="#E8E8E8" stroke-width="0.34" stroke-miterlimit="10"/>
<path d="M184.781 169.06L211.031 153.79L184.781 138.51V169.06Z" stroke="#E8E8E8" stroke-width="0.34" stroke-miterlimit="10"/>
<path d="M184.781 199.62L211.031 184.34L184.781 169.06V199.62Z" stroke="#E8E8E8" stroke-width="0.34" stroke-miterlimit="10"/>
<path d="M237.292 199.62V169.06L211.031 184.34L237.292 199.62Z" stroke="#E8E8E8" stroke-width="0.34" stroke-miterlimit="10"/>
<path d="M211.031 184.34L237.292 169.06L211.031 153.79V184.34Z" stroke="#E8E8E8" stroke-width="0.34" stroke-miterlimit="10"/>
<path d="M237.291 169.06V199.62L263.541 184.34L237.291 169.06Z" stroke="#E8E8E8" stroke-width="0.34" stroke-miterlimit="10"/>
<path d="M237.291 260.74L263.541 245.46L237.291 230.18V260.74Z" stroke="#E8E8E8" stroke-width="0.34" stroke-miterlimit="10"/>
<path d="M237.292 260.74L211.031 245.46V276.01L237.292 260.74Z" stroke="#E8E8E8" stroke-width="0.34" stroke-miterlimit="10"/>
<path d="M237.291 260.74L263.541 276.01V245.46L237.291 260.74Z" stroke="#E8E8E8" stroke-width="0.34" stroke-miterlimit="10"/>
<path d="M237.291 260.74V291.29L263.541 276.01L237.291 260.74Z" stroke="#E8E8E8" stroke-width="0.34" stroke-miterlimit="10"/>
<path d="M211.031 276.01L237.292 291.29V260.74L211.031 276.01Z" stroke="#E8E8E8" stroke-width="0.34" stroke-miterlimit="10"/>
<path d="M211.031 245.46L237.292 260.74V230.18L211.031 245.46Z" stroke="#E8E8E8" stroke-width="0.34" stroke-miterlimit="10"/>
<path d="M368.561 276.01L394.811 260.74L368.561 245.46V276.01Z" stroke="#E8E8E8" stroke-width="0.34" stroke-miterlimit="10"/>
<path d="M394.811 291.29V260.74L368.561 276.01L394.811 291.29Z" stroke="#E8E8E8" stroke-width="0.34" stroke-miterlimit="10"/>
<path d="M316.051 276.01L342.301 260.74L316.051 245.46V276.01Z" stroke="#E8E8E8" stroke-width="0.34" stroke-miterlimit="10"/>
<path d="M342.301 260.74V291.29L368.561 276.01L342.301 260.74Z" stroke="#E8E8E8" stroke-width="0.34" stroke-miterlimit="10"/>
<path d="M342.301 260.74V230.18L316.051 245.46L342.301 260.74Z" stroke="#E8E8E8" stroke-width="0.34" stroke-miterlimit="10"/>
<path d="M342.301 291.29V260.74L316.051 276.01L342.301 291.29Z" stroke="#E8E8E8" stroke-width="0.34" stroke-miterlimit="10"/>
<path d="M342.301 260.74L368.561 245.46L342.301 230.18V260.74Z" stroke="#E8E8E8" stroke-width="0.34" stroke-miterlimit="10"/>
<path d="M368.561 276.01V245.46L342.301 260.74L368.561 276.01Z" stroke="#E8E8E8" stroke-width="0.34" stroke-miterlimit="10"/>
<path d="M316.051 245.46V214.9L289.791 230.18L316.051 245.46Z" stroke="#E8E8E8" stroke-width="0.34" stroke-miterlimit="10"/>
<path d="M316.051 214.9L289.791 199.62V230.18L316.051 214.9Z" stroke="#E8E8E8" stroke-width="0.34" stroke-miterlimit="10"/>
<path d="M316.051 245.46L342.301 230.18L316.051 214.9V245.46Z" stroke="#E8E8E8" stroke-width="0.34" stroke-miterlimit="10"/>
<path d="M79.7615 352.41L53.5117 337.13V367.69L79.7615 352.41Z" stroke="#E8E8E8" stroke-width="0.34" stroke-miterlimit="10"/>
<path d="M53.5117 337.13L27.2617 352.41L53.5117 367.69V337.13Z" stroke="#E8E8E8" stroke-width="0.34" stroke-miterlimit="10"/>
<path d="M79.7615 382.97V352.41L53.5117 367.69L79.7615 382.97Z" stroke="#E8E8E8" stroke-width="0.34" stroke-miterlimit="10"/>
<path d="M27.26 352.41L1 337.13V367.69L27.26 352.41Z" stroke="#E8E8E8" stroke-width="0.34" stroke-miterlimit="10"/>
<path d="M132.271 413.52V382.97L106.021 398.24L132.271 413.52Z" stroke="#E8E8E8" stroke-width="0.34" stroke-miterlimit="10"/>
<path d="M158.531 398.24L132.271 382.97V413.52L158.531 398.24Z" stroke="#E8E8E8" stroke-width="0.34" stroke-miterlimit="10"/>
<path d="M184.781 413.52V382.97L158.531 398.24L184.781 413.52Z" stroke="#E8E8E8" stroke-width="0.34" stroke-miterlimit="10"/>
<path d="M184.781 352.41L158.531 337.13V367.69L184.781 352.41Z" stroke="#E8E8E8" stroke-width="0.34" stroke-miterlimit="10"/>
<path d="M158.531 367.69L132.271 352.41V382.97L158.531 367.69Z" stroke="#E8E8E8" stroke-width="0.34" stroke-miterlimit="10"/>
<path d="M158.531 337.13L132.271 352.41L158.531 367.69V337.13Z" stroke="#E8E8E8" stroke-width="0.34" stroke-miterlimit="10"/>
<path d="M158.531 367.69L184.781 382.97V352.41L158.531 367.69Z" stroke="#E8E8E8" stroke-width="0.34" stroke-miterlimit="10"/>
<path d="M158.531 398.24V367.69L132.271 382.97L158.531 398.24Z" stroke="#E8E8E8" stroke-width="0.34" stroke-miterlimit="10"/>
<path d="M184.781 382.97L158.531 367.69V398.24L184.781 382.97Z" stroke="#E8E8E8" stroke-width="0.34" stroke-miterlimit="10"/>
<path d="M132.271 382.97L158.531 398.24" stroke="#E8E8E8" stroke-width="0.34" stroke-miterlimit="10"/>
<path d="M156.461 390.6H186.841H156.461Z" stroke="#E8E8E8" stroke-width="0.34" stroke-miterlimit="10"/>
<path d="M106.022 337.13L79.7617 352.41L106.022 367.69V337.13Z" stroke="#E8E8E8" stroke-width="0.34" stroke-miterlimit="10"/>
<path d="M106.021 367.69V398.24L132.271 382.97L106.021 367.69Z" stroke="#E8E8E8" stroke-width="0.34" stroke-miterlimit="10"/>
<path d="M79.7617 352.41V382.97L106.022 367.69L79.7617 352.41Z" stroke="#E8E8E8" stroke-width="0.34" stroke-miterlimit="10"/>
<path d="M132.271 382.97V352.41L106.021 367.69L132.271 382.97Z" stroke="#E8E8E8" stroke-width="0.34" stroke-miterlimit="10"/>
<path d="M106.022 367.69L79.7617 382.97L89.3721 388.56L106.022 398.24V367.69Z" stroke="#E8E8E8" stroke-width="0.34" stroke-miterlimit="10"/>
<path d="M132.271 352.41L106.021 337.13V367.69L132.271 352.41Z" stroke="#E8E8E8" stroke-width="0.34" stroke-miterlimit="10"/>
<path d="M132.271 382.97L106.021 398.24L132.271 382.97Z" stroke="#E8E8E8" stroke-width="0.34" stroke-miterlimit="10"/>
<path d="M106.021 398.24L89.3711 388.56L106.021 398.24Z" stroke="#E8E8E8" stroke-width="0.34" stroke-miterlimit="10"/>
<path d="M158.531 306.57V276.01L132.271 291.29L158.531 306.57Z" stroke="#E8E8E8" stroke-width="0.34" stroke-miterlimit="10"/>
<path d="M106.021 306.57L132.271 291.29L106.021 276.01V306.57Z" stroke="#E8E8E8" stroke-width="0.34" stroke-miterlimit="10"/>
<path d="M106.021 306.57L132.271 321.85V291.29L106.021 306.57Z" stroke="#E8E8E8" stroke-width="0.34" stroke-miterlimit="10"/>
<path d="M132.271 321.85L158.531 306.57L132.271 291.29V321.85Z" stroke="#E8E8E8" stroke-width="0.34" stroke-miterlimit="10"/>
<path d="M106.021 337.13L132.271 352.41V321.85L106.021 337.13Z" stroke="#E8E8E8" stroke-width="0.34" stroke-miterlimit="10"/>
<path d="M79.7617 321.85V352.41L106.022 337.13L79.7617 321.85Z" stroke="#E8E8E8" stroke-width="0.34" stroke-miterlimit="10"/>
<path d="M106.021 337.13L132.271 321.85L106.021 306.57V337.13Z" stroke="#E8E8E8" stroke-width="0.34" stroke-miterlimit="10"/>
<path d="M79.7617 321.85L106.022 337.13V306.57L79.7617 321.85Z" stroke="#E8E8E8" stroke-width="0.34" stroke-miterlimit="10"/>
<path d="M158.531 337.13V306.57L132.271 321.85L158.531 337.13Z" stroke="#E8E8E8" stroke-width="0.34" stroke-miterlimit="10"/>
<path d="M132.271 321.85V352.41L158.531 337.13L132.271 321.85Z" stroke="#E8E8E8" stroke-width="0.34" stroke-miterlimit="10"/>
<path d="M158.531 337.13L184.781 321.85L158.531 306.57V337.13Z" stroke="#E8E8E8" stroke-width="0.34" stroke-miterlimit="10"/>
<path d="M158.531 337.13L184.781 352.41V321.85L158.531 337.13Z" stroke="#E8E8E8" stroke-width="0.34" stroke-miterlimit="10"/>
<path d="M158.531 306.57L184.781 321.85V291.29L158.531 306.57Z" stroke="#E8E8E8" stroke-width="0.34" stroke-miterlimit="10"/>
<path d="M184.781 291.29L158.531 276.01V306.57L184.781 291.29Z" stroke="#E8E8E8" stroke-width="0.34" stroke-miterlimit="10"/>
<path d="M1 306.57L27.26 291.29L1 276.01V306.57Z" stroke="#E8E8E8" stroke-width="0.34" stroke-miterlimit="10"/>
<path d="M27.2617 291.29L53.5117 306.57V276.01L27.2617 291.29Z" stroke="#E8E8E8" stroke-width="0.34" stroke-miterlimit="10"/>
<path d="M27.2617 291.29V321.85L53.5117 306.57L27.2617 291.29Z" stroke="#E8E8E8" stroke-width="0.34" stroke-miterlimit="10"/>
<path d="M1 306.57L27.26 321.85V291.29L1 306.57Z" stroke="#E8E8E8" stroke-width="0.34" stroke-miterlimit="10"/>
<path d="M1 337.13L27.26 352.41V321.85L1 337.13Z" stroke="#E8E8E8" stroke-width="0.34" stroke-miterlimit="10"/>
<path d="M1 337.13L27.26 321.85L1 306.57V337.13Z" stroke="#E8E8E8" stroke-width="0.34" stroke-miterlimit="10"/>
<path d="M53.5117 337.13L79.7615 352.41V321.85L53.5117 337.13Z" stroke="#E8E8E8" stroke-width="0.34" stroke-miterlimit="10"/>
<path d="M53.5117 337.13L27.2617 321.85V352.41L53.5117 337.13Z" stroke="#E8E8E8" stroke-width="0.34" stroke-miterlimit="10"/>
<path d="M53.5117 337.13L79.7615 321.85L53.5117 306.57V337.13Z" stroke="#E8E8E8" stroke-width="0.34" stroke-miterlimit="10"/>
<path d="M27.2617 321.85L53.5117 337.13V306.57L27.2617 321.85Z" stroke="#E8E8E8" stroke-width="0.34" stroke-miterlimit="10"/>
<path d="M53.5117 306.57L79.7615 291.29L53.5117 276.01V306.57Z" stroke="#E8E8E8" stroke-width="0.34" stroke-miterlimit="10"/>
<path d="M79.7615 291.29L53.5117 306.57L79.7615 321.85V291.29Z" stroke="#E8E8E8" stroke-width="0.34" stroke-miterlimit="10"/>
<path d="M79.7617 291.29V321.85L106.022 306.57L79.7617 291.29Z" stroke="#E8E8E8" stroke-width="0.34" stroke-miterlimit="10"/>
<path d="M79.7617 291.29L106.022 306.57V276.01L79.7617 291.29Z" stroke="#E8E8E8" stroke-width="0.34" stroke-miterlimit="10"/>
<path d="M237.292 413.52V382.97L211.031 398.24L237.292 413.52Z" stroke="#E8E8E8" stroke-width="0.34" stroke-miterlimit="10"/>
<path d="M237.291 413.52L263.541 398.24L237.291 382.97V413.52Z" stroke="#E8E8E8" stroke-width="0.34" stroke-miterlimit="10"/>
<path d="M211.031 398.24L184.781 382.97V413.52L211.031 398.24Z" stroke="#E8E8E8" stroke-width="0.34" stroke-miterlimit="10"/>
<path d="M316.051 398.24L289.791 382.97V413.52L316.051 398.24Z" stroke="#E8E8E8" stroke-width="0.34" stroke-miterlimit="10"/>
<path d="M289.791 413.52V382.97L263.541 398.24L289.791 413.52Z" stroke="#E8E8E8" stroke-width="0.34" stroke-miterlimit="10"/>
<path d="M237.292 382.97V352.41L211.031 367.69L237.292 382.97Z" stroke="#E8E8E8" stroke-width="0.34" stroke-miterlimit="10"/>
<path d="M237.292 382.97L211.031 367.69V398.24L237.292 382.97Z" stroke="#E8E8E8" stroke-width="0.34" stroke-miterlimit="10"/>
<path d="M211.031 367.69L184.781 382.97L211.031 398.24V367.69Z" stroke="#E8E8E8" stroke-width="0.34" stroke-miterlimit="10"/>
<path d="M211.031 337.13L184.781 352.41L211.031 367.69V337.13Z" stroke="#E8E8E8" stroke-width="0.34" stroke-miterlimit="10"/>
<path d="M211.031 367.69L184.781 352.41V382.97L211.031 367.69Z" stroke="#E8E8E8" stroke-width="0.34" stroke-miterlimit="10"/>
<path d="M237.292 352.41L211.031 337.13V367.69L237.292 352.41Z" stroke="#E8E8E8" stroke-width="0.34" stroke-miterlimit="10"/>
<path d="M342.301 352.41L316.051 337.13V367.69L342.301 352.41Z" stroke="#E8E8E8" stroke-width="0.34" stroke-miterlimit="10"/>
<path d="M316.051 337.13L289.791 352.41L316.051 367.69V337.13Z" stroke="#E8E8E8" stroke-width="0.34" stroke-miterlimit="10"/>
<path d="M342.301 382.97V352.41L316.051 367.69L342.301 382.97Z" stroke="#E8E8E8" stroke-width="0.34" stroke-miterlimit="10"/>
<path d="M316.051 367.69L289.791 382.97L316.051 398.24V367.69Z" stroke="#E8E8E8" stroke-width="0.34" stroke-miterlimit="10"/>
<path d="M316.051 367.69L289.791 352.41V382.97L316.051 367.69Z" stroke="#E8E8E8" stroke-width="0.34" stroke-miterlimit="10"/>
<path d="M316.051 398.24L342.301 382.97L316.051 367.69V398.24Z" stroke="#E8E8E8" stroke-width="0.34" stroke-miterlimit="10"/>
<path d="M263.541 367.69L237.291 352.41V382.97L263.541 367.69Z" stroke="#E8E8E8" stroke-width="0.34" stroke-miterlimit="10"/>
<path d="M263.541 367.69L237.291 382.97L263.541 398.24V367.69Z" stroke="#E8E8E8" stroke-width="0.34" stroke-miterlimit="10"/>
<path d="M289.791 352.41L263.541 337.13V367.69L289.791 352.41Z" stroke="#E8E8E8" stroke-width="0.34" stroke-miterlimit="10"/>
<path d="M263.541 337.13L237.291 352.41L263.541 367.69V337.13Z" stroke="#E8E8E8" stroke-width="0.34" stroke-miterlimit="10"/>
<path d="M289.791 382.97L263.541 367.69V398.24L289.791 382.97Z" stroke="#E8E8E8" stroke-width="0.34" stroke-miterlimit="10"/>
<path d="M263.541 367.69L289.791 382.97V352.41L263.541 367.69Z" stroke="#E8E8E8" stroke-width="0.34" stroke-miterlimit="10"/>
<path d="M394.811 413.52V382.97L368.561 398.24L394.811 413.52Z" stroke="#E8E8E8" stroke-width="0.34" stroke-miterlimit="10"/>
<path d="M342.301 413.52L368.561 398.24L351.911 388.56L342.301 382.97V413.52Z" stroke="#E8E8E8" stroke-width="0.34" stroke-miterlimit="10"/>
<path d="M342.301 413.52V382.97L316.051 398.24L342.301 413.52Z" stroke="#E8E8E8" stroke-width="0.34" stroke-miterlimit="10"/>
<path d="M368.561 337.13L342.301 352.41L368.561 367.69V337.13Z" stroke="#E8E8E8" stroke-width="0.34" stroke-miterlimit="10"/>
<path d="M368.561 367.69V398.24L394.811 382.97L368.561 367.69Z" stroke="#E8E8E8" stroke-width="0.34" stroke-miterlimit="10"/>
<path d="M342.301 352.41V382.97L368.561 367.69L342.301 352.41Z" stroke="#E8E8E8" stroke-width="0.34" stroke-miterlimit="10"/>
<path d="M394.811 382.97V352.41L368.561 367.69L394.811 382.97Z" stroke="#E8E8E8" stroke-width="0.34" stroke-miterlimit="10"/>
<path d="M368.561 367.69L342.301 382.97L351.911 388.56L368.561 398.24V367.69Z" stroke="#E8E8E8" stroke-width="0.34" stroke-miterlimit="10"/>
<path d="M394.811 352.41L368.561 337.13V367.69L394.811 352.41Z" stroke="#E8E8E8" stroke-width="0.34" stroke-miterlimit="10"/>
<path d="M394.811 382.97L368.561 398.24L394.811 382.97Z" stroke="#E8E8E8" stroke-width="0.34" stroke-miterlimit="10"/>
<path d="M368.56 398.24L351.91 388.56L368.56 398.24Z" stroke="#E8E8E8" stroke-width="0.34" stroke-miterlimit="10"/>
<path d="M368.561 306.57L394.811 291.29L368.561 276.01V306.57Z" stroke="#E8E8E8" stroke-width="0.34" stroke-miterlimit="10"/>
<path d="M368.561 306.57L394.811 321.85V291.29L368.561 306.57Z" stroke="#E8E8E8" stroke-width="0.34" stroke-miterlimit="10"/>
<path d="M368.561 337.13L394.811 352.41V321.85L368.561 337.13Z" stroke="#E8E8E8" stroke-width="0.34" stroke-miterlimit="10"/>
<path d="M342.301 321.85V352.41L368.561 337.13L342.301 321.85Z" stroke="#E8E8E8" stroke-width="0.34" stroke-miterlimit="10"/>
<path d="M368.561 337.13L394.811 321.85L368.561 306.57V337.13Z" stroke="#E8E8E8" stroke-width="0.34" stroke-miterlimit="10"/>
<path d="M342.301 321.85L368.561 337.13V306.57L342.301 321.85Z" stroke="#E8E8E8" stroke-width="0.34" stroke-miterlimit="10"/>
<path d="M263.541 306.57L289.791 291.29L263.541 276.01V306.57Z" stroke="#E8E8E8" stroke-width="0.34" stroke-miterlimit="10"/>
<path d="M289.791 291.29L316.051 306.57V276.01L289.791 291.29Z" stroke="#E8E8E8" stroke-width="0.34" stroke-miterlimit="10"/>
<path d="M289.791 291.29V321.85L316.051 306.57L289.791 291.29Z" stroke="#E8E8E8" stroke-width="0.34" stroke-miterlimit="10"/>
<path d="M263.541 306.57L289.791 321.85V291.29L263.541 306.57Z" stroke="#E8E8E8" stroke-width="0.34" stroke-miterlimit="10"/>
<path d="M237.291 291.29L263.541 306.57V276.01L237.291 291.29Z" stroke="#E8E8E8" stroke-width="0.34" stroke-miterlimit="10"/>
<path d="M211.031 306.57L237.292 291.29L211.031 276.01V306.57Z" stroke="#E8E8E8" stroke-width="0.34" stroke-miterlimit="10"/>
<path d="M237.291 291.29V321.85L263.541 306.57L237.291 291.29Z" stroke="#E8E8E8" stroke-width="0.34" stroke-miterlimit="10"/>
<path d="M237.292 291.29L211.031 306.57L237.292 321.85V291.29Z" stroke="#E8E8E8" stroke-width="0.34" stroke-miterlimit="10"/>
<path d="M237.291 321.85V352.41L263.541 337.13L237.291 321.85Z" stroke="#E8E8E8" stroke-width="0.34" stroke-miterlimit="10"/>
<path d="M237.291 321.85L263.541 337.13V306.57L237.291 321.85Z" stroke="#E8E8E8" stroke-width="0.34" stroke-miterlimit="10"/>
<path d="M263.541 337.13L289.791 352.41V321.85L263.541 337.13Z" stroke="#E8E8E8" stroke-width="0.34" stroke-miterlimit="10"/>
<path d="M263.541 337.13L289.791 321.85L263.541 306.57V337.13Z" stroke="#E8E8E8" stroke-width="0.34" stroke-miterlimit="10"/>
<path d="M316.051 337.13L342.301 352.41V321.85L316.051 337.13Z" stroke="#E8E8E8" stroke-width="0.34" stroke-miterlimit="10"/>
<path d="M316.051 337.13L289.791 321.85V352.41L316.051 337.13Z" stroke="#E8E8E8" stroke-width="0.34" stroke-miterlimit="10"/>
<path d="M316.051 337.13L342.301 321.85L316.051 306.57V337.13Z" stroke="#E8E8E8" stroke-width="0.34" stroke-miterlimit="10"/>
<path d="M289.791 321.85L316.051 337.13V306.57L289.791 321.85Z" stroke="#E8E8E8" stroke-width="0.34" stroke-miterlimit="10"/>
<path d="M316.051 306.57L342.301 291.29L316.051 276.01V306.57Z" stroke="#E8E8E8" stroke-width="0.34" stroke-miterlimit="10"/>
<path d="M342.301 291.29L316.051 306.57L342.301 321.85V291.29Z" stroke="#E8E8E8" stroke-width="0.34" stroke-miterlimit="10"/>
<path d="M342.301 291.29V321.85L368.561 306.57L342.301 291.29Z" stroke="#E8E8E8" stroke-width="0.34" stroke-miterlimit="10"/>
<path d="M342.301 291.29L368.561 306.57V276.01L342.301 291.29Z" stroke="#E8E8E8" stroke-width="0.34" stroke-miterlimit="10"/>
<path d="M184.781 291.29L211.031 306.57V276.01L184.781 291.29Z" stroke="#E8E8E8" stroke-width="0.34" stroke-miterlimit="10"/>
<path d="M184.781 291.29V321.85L211.031 306.57L184.781 291.29Z" stroke="#E8E8E8" stroke-width="0.34" stroke-miterlimit="10"/>
<path d="M184.781 321.85L211.031 337.13V306.57L184.781 321.85Z" stroke="#E8E8E8" stroke-width="0.34" stroke-miterlimit="10"/>
<path d="M211.031 337.13L237.292 321.85L211.031 306.57V337.13Z" stroke="#E8E8E8" stroke-width="0.34" stroke-miterlimit="10"/>
<path d="M211.031 337.13L237.292 352.41V321.85L211.031 337.13Z" stroke="#E8E8E8" stroke-width="0.34" stroke-miterlimit="10"/>
<path d="M211.031 337.13L184.781 321.85V352.41L211.031 337.13Z" stroke="#E8E8E8" stroke-width="0.34" stroke-miterlimit="10"/>
<path d="M53.5117 398.24L27.2617 382.97V413.52L53.5117 398.24Z" stroke="#E8E8E8" stroke-width="0.34" stroke-miterlimit="10"/>
<path d="M27.26 413.52V382.97L1 398.24L27.26 413.52Z" stroke="#E8E8E8" stroke-width="0.34" stroke-miterlimit="10"/>
<path d="M53.5117 367.69L27.2617 382.97L53.5117 398.24V367.69Z" stroke="#E8E8E8" stroke-width="0.34" stroke-miterlimit="10"/>
<path d="M53.5117 367.69L27.2617 352.41V382.97L53.5117 367.69Z" stroke="#E8E8E8" stroke-width="0.34" stroke-miterlimit="10"/>
<path d="M53.5117 398.24L79.7615 382.97L53.5117 367.69V398.24Z" stroke="#E8E8E8" stroke-width="0.34" stroke-miterlimit="10"/>
<path d="M27.26 382.97L1 367.69V398.24L27.26 382.97Z" stroke="#E8E8E8" stroke-width="0.34" stroke-miterlimit="10"/>
<path d="M1 367.69L27.26 382.97V352.41L1 367.69Z" stroke="#E8E8E8" stroke-width="0.34" stroke-miterlimit="10"/>
<path d="M79.7617 413.52L106.022 398.24L89.3721 388.56L79.7617 382.97V413.52Z" stroke="#E8E8E8" stroke-width="0.34" stroke-miterlimit="10"/>
<path d="M79.7615 413.52V382.97L53.5117 398.24L79.7615 413.52Z" stroke="#E8E8E8" stroke-width="0.34" stroke-miterlimit="10"/>
<path d="M447.32 260.74V230.18L421.061 245.46L447.32 260.74Z" stroke="#E8E8E8" stroke-width="0.34" stroke-miterlimit="10"/>
<path d="M394.811 199.62V230.18L421.061 214.9L394.811 199.62Z" stroke="#E8E8E8" stroke-width="0.34" stroke-miterlimit="10"/>
<path d="M421.061 245.46V214.9L394.811 230.18L421.061 245.46Z" stroke="#E8E8E8" stroke-width="0.34" stroke-miterlimit="10"/>
<path d="M421.061 245.46L447.32 230.18L421.061 214.9V245.46Z" stroke="#E8E8E8" stroke-width="0.34" stroke-miterlimit="10"/>
<path d="M421.061 276.01L447.32 260.74L421.061 245.46V276.01Z" stroke="#E8E8E8" stroke-width="0.34" stroke-miterlimit="10"/>
<path d="M447.32 291.29V260.74L421.061 276.01L447.32 291.29Z" stroke="#E8E8E8" stroke-width="0.34" stroke-miterlimit="10"/>
<path d="M394.811 260.74V291.29L421.061 276.01L394.811 260.74Z" stroke="#E8E8E8" stroke-width="0.34" stroke-miterlimit="10"/>
<path d="M394.811 260.74L421.061 245.46L394.811 230.18V260.74Z" stroke="#E8E8E8" stroke-width="0.34" stroke-miterlimit="10"/>
<path d="M421.061 276.01V245.46L394.811 260.74L421.061 276.01Z" stroke="#E8E8E8" stroke-width="0.34" stroke-miterlimit="10"/>
<path d="M447.32 413.52V382.97L421.061 398.24L447.32 413.52Z" stroke="#E8E8E8" stroke-width="0.34" stroke-miterlimit="10"/>
<path d="M394.811 413.52L421.061 398.24L404.42 388.56L394.811 382.97V413.52Z" stroke="#E8E8E8" stroke-width="0.34" stroke-miterlimit="10"/>
<path d="M421.061 337.13L394.811 352.41L421.061 367.69V337.13Z" stroke="#E8E8E8" stroke-width="0.34" stroke-miterlimit="10"/>
<path d="M421.061 367.69V398.24L447.32 382.97L421.061 367.69Z" stroke="#E8E8E8" stroke-width="0.34" stroke-miterlimit="10"/>
<path d="M394.811 352.41V382.97L421.061 367.69L394.811 352.41Z" stroke="#E8E8E8" stroke-width="0.34" stroke-miterlimit="10"/>
<path d="M447.32 382.97V352.41L421.061 367.69L447.32 382.97Z" stroke="#E8E8E8" stroke-width="0.34" stroke-miterlimit="10"/>
<path d="M421.061 367.69L394.811 382.97L404.42 388.56L421.061 398.24V367.69Z" stroke="#E8E8E8" stroke-width="0.34" stroke-miterlimit="10"/>
<path d="M447.32 352.41L421.061 337.13V367.69L447.32 352.41Z" stroke="#E8E8E8" stroke-width="0.34" stroke-miterlimit="10"/>
<path d="M447.32 382.97L421.061 398.24L447.32 382.97Z" stroke="#E8E8E8" stroke-width="0.34" stroke-miterlimit="10"/>
<path d="M421.062 398.24L404.422 388.56L421.062 398.24Z" stroke="#E8E8E8" stroke-width="0.34" stroke-miterlimit="10"/>
<path d="M421.061 306.57L447.32 291.29L421.061 276.01V306.57Z" stroke="#E8E8E8" stroke-width="0.34" stroke-miterlimit="10"/>
<path d="M421.061 306.57L447.32 321.85V291.29L421.061 306.57Z" stroke="#E8E8E8" stroke-width="0.34" stroke-miterlimit="10"/>
<path d="M421.061 337.13L447.32 352.41V321.85L421.061 337.13Z" stroke="#E8E8E8" stroke-width="0.34" stroke-miterlimit="10"/>
<path d="M394.811 321.85V352.41L421.061 337.13L394.811 321.85Z" stroke="#E8E8E8" stroke-width="0.34" stroke-miterlimit="10"/>
<path d="M421.061 337.13L447.32 321.85L421.061 306.57V337.13Z" stroke="#E8E8E8" stroke-width="0.34" stroke-miterlimit="10"/>
<path d="M394.811 321.85L421.061 337.13V306.57L394.811 321.85Z" stroke="#E8E8E8" stroke-width="0.34" stroke-miterlimit="10"/>
<path d="M394.811 291.29V321.85L421.061 306.57L394.811 291.29Z" stroke="#E8E8E8" stroke-width="0.34" stroke-miterlimit="10"/>
<path d="M394.811 291.29L421.061 306.57V276.01L394.811 291.29Z" stroke="#E8E8E8" stroke-width="0.34" stroke-miterlimit="10"/>
</g>
</svg>
