<svg width="297" height="300" viewBox="0 0 297 300" fill="none" xmlns="http://www.w3.org/2000/svg">
<g opacity="0.2">
<path d="M217.15 266.67C217.28 266.67 217.4 266.69 217.52 266.69C208.64 266.89 201.5 274.2 201.5 283.2C201.5 292.2 208.64 299.51 217.52 299.71C217.39 299.71 217.27 299.73 217.15 299.73C208.09 299.73 200.75 292.33 200.75 283.2C200.75 274.07 208.09 266.67 217.15 266.67Z" fill="#E8E8E8"/>
<path d="M117.621 239.63C112.011 239.68 106.571 242.62 103.561 247.88C99.0312 255.78 101.721 265.89 109.561 270.46C111.961 271.86 114.561 272.56 117.151 272.66C114.321 272.69 111.451 271.99 108.821 270.46C100.981 265.9 98.2914 255.79 102.821 247.88C105.961 242.39 111.761 239.42 117.631 239.63H117.621Z" fill="#E8E8E8"/>
<path d="M30.2413 190.51C33.2513 195.76 38.6914 198.71 44.3014 198.76C38.4314 198.98 32.6313 196 29.4913 190.51C24.9613 182.61 27.6513 172.5 35.4913 167.93C38.1213 166.4 40.9914 165.71 43.8214 165.73C41.2314 165.83 38.6316 166.53 36.2316 167.93C28.3916 172.49 25.7016 182.6 30.2316 190.51H30.2413Z" fill="#E8E8E8"/>
<path d="M1.21094 81.3C1.21094 90.3 8.35096 97.61 17.231 97.81C17.101 97.81 16.9808 97.83 16.8608 97.83C7.80084 97.83 0.460938 90.43 0.460938 81.3C0.460938 72.17 7.80084 64.77 16.8608 64.77C16.9908 64.77 17.111 64.79 17.231 64.79C8.35096 64.99 1.21094 72.3 1.21094 81.3Z" fill="#E8E8E8"/>
<path d="M233.551 283.19C233.551 274.19 226.411 266.88 217.531 266.68C217.661 266.68 217.781 266.66 217.901 266.66C226.961 266.66 234.301 274.06 234.301 283.19C234.301 292.32 226.961 299.72 217.901 299.72C217.771 299.72 217.651 299.7 217.531 299.7C226.411 299.5 233.551 292.19 233.551 283.19Z" fill="#E8E8E8"/>
<path d="M201.5 283.19C201.5 274.19 208.64 266.88 217.52 266.68C226.4 266.88 233.54 274.19 233.54 283.19C233.54 292.19 226.4 299.5 217.52 299.7C208.64 299.5 201.5 292.19 201.5 283.19Z" fill="#E8E8E8"/>
<path d="M131.201 264.41C135.731 256.51 133.041 246.4 125.201 241.83C122.801 240.43 120.201 239.73 117.611 239.63C120.441 239.6 123.311 240.3 125.941 241.83C133.781 246.39 136.471 256.5 131.941 264.41C128.801 269.9 123.001 272.87 117.131 272.66C122.741 272.61 128.181 269.67 131.191 264.41H131.201Z" fill="#E8E8E8"/>
<path d="M103.552 247.88C106.562 242.63 112.002 239.68 117.612 239.63C120.202 239.73 122.802 240.43 125.202 241.83C133.042 246.39 135.732 256.5 131.202 264.41C128.192 269.66 122.752 272.61 117.142 272.66C114.552 272.56 111.952 271.86 109.552 270.46C101.712 265.9 99.0219 255.79 103.552 247.88Z" fill="#E8E8E8"/>
<path d="M58.6396 173.98C63.1696 181.88 60.4796 191.99 52.6396 196.56C50.0096 198.09 47.1396 198.78 44.3096 198.76C46.8996 198.66 49.4999 197.96 51.8999 196.56C59.7399 192 62.4299 181.89 57.8999 173.98C54.8899 168.73 49.4498 165.78 43.8398 165.73C49.7098 165.51 55.5099 168.49 58.6499 173.98H58.6396Z" fill="#E8E8E8"/>
<path d="M57.8912 173.98C62.4212 181.88 59.7312 191.99 51.8912 196.56C49.4912 197.96 46.8914 198.66 44.3014 198.76C38.6914 198.71 33.2513 195.77 30.2413 190.51C25.7113 182.61 28.4013 172.5 36.2413 167.93C38.6413 166.53 41.2412 165.83 43.8312 165.73C49.4412 165.78 54.8812 168.72 57.8912 173.98Z" fill="#E8E8E8"/>
<path d="M17.6001 97.8198C17.4701 97.8198 17.3505 97.7998 17.2305 97.7998C26.1105 97.5998 33.2505 90.2898 33.2505 81.2898C33.2505 72.2898 26.1105 64.9798 17.2305 64.7798C17.3605 64.7798 17.4801 64.7598 17.6001 64.7598C26.6601 64.7598 34.0005 72.1598 34.0005 81.2898C34.0005 90.4198 26.6601 97.8198 17.6001 97.8198Z" fill="#E8E8E8"/>
<path d="M33.251 81.3C33.251 90.3 26.111 97.61 17.231 97.81C8.35096 97.61 1.21094 90.3 1.21094 81.3C1.21094 72.3 8.35096 64.99 17.231 64.79C26.111 64.99 33.251 72.3 33.251 81.3Z" fill="#E8E8E8"/>
<path d="M217.902 247.55C224.794 247.55 230.382 241.918 230.382 234.97C230.382 228.022 224.794 222.39 217.902 222.39C211.009 222.39 205.422 228.022 205.422 234.97C205.422 241.918 211.009 247.55 217.902 247.55Z" fill="#E8E8E8"/>
<path d="M130.86 208.09C134.31 202.07 141.94 200.01 147.91 203.49C153.88 206.96 155.921 214.66 152.481 220.67C149.031 226.69 141.4 228.75 135.43 225.27C129.46 221.8 127.42 214.1 130.86 208.09Z" fill="#E8E8E8"/>
<path d="M79.6203 147.24C85.5903 143.77 93.2206 145.83 96.6706 151.84C100.121 157.86 98.0703 165.55 92.1003 169.02C86.1303 172.49 78.5005 170.43 75.0505 164.42C71.6005 158.4 73.6503 150.71 79.6203 147.24Z" fill="#E8E8E8"/>
<path d="M65.4312 93.87C72.3237 93.87 77.9111 88.2377 77.9111 81.29C77.9111 74.3422 72.3237 68.71 65.4312 68.71C58.5386 68.71 52.9512 74.3422 52.9512 81.29C52.9512 88.2377 58.5386 93.87 65.4312 93.87Z" fill="#E8E8E8"/>
<path d="M96.6715 10.74C93.2215 16.76 85.5912 18.82 79.6212 15.34C74.2412 12.21 72.0713 5.66 74.2013 0H97.5314C98.8014 3.41 98.6115 7.34 96.6715 10.74Z" fill="#E8E8E8"/>
<path d="M283.332 220.67C279.882 214.65 281.932 206.96 287.902 203.49C290.832 201.78 294.162 201.42 297.202 202.2V226.58C291.922 227.93 286.192 225.67 283.332 220.68V220.67Z" fill="#E8E8E8"/>
<path d="M217.631 206.42C222.828 206.42 227.041 202.171 227.041 196.93C227.041 191.689 222.828 187.44 217.631 187.44C212.434 187.44 208.221 191.689 208.221 196.93C208.221 202.171 212.434 206.42 217.631 206.42Z" fill="#E8E8E8"/>
<path d="M151.982 176.65C154.582 172.11 160.341 170.56 164.841 173.18C169.341 175.8 170.882 181.6 168.292 186.14C165.692 190.68 159.931 192.23 155.431 189.61C150.931 186.99 149.392 181.19 151.982 176.65Z" fill="#E8E8E8"/>
<path d="M122.751 147.19C118.251 149.81 112.49 148.26 109.89 143.72C107.29 139.18 108.831 133.38 113.341 130.76C117.841 128.14 123.6 129.69 126.2 134.23C128.8 138.77 127.261 144.57 122.751 147.19Z" fill="#E8E8E8"/>
<path d="M112.05 81.0198C112.05 86.2598 107.84 90.5098 102.64 90.5098C97.4401 90.5098 93.2305 86.2598 93.2305 81.0198C93.2305 75.7798 97.4401 71.5298 102.64 71.5298C107.84 71.5298 112.05 75.7798 112.05 81.0198Z" fill="#E8E8E8"/>
<path d="M113.34 31.28C108.84 28.66 107.3 22.86 109.89 18.32C112.49 13.78 118.25 12.23 122.75 14.85C127.25 17.47 128.79 23.27 126.2 27.81C123.6 32.35 117.84 33.9 113.34 31.28Z" fill="#E8E8E8"/>
<path d="M270.421 173.18C274.921 170.56 280.681 172.11 283.281 176.65C285.881 181.19 284.34 186.99 279.83 189.61C275.32 192.23 269.57 190.68 266.97 186.14C264.37 181.6 265.911 175.8 270.421 173.18Z" fill="#E8E8E8"/>
<path d="M217.631 171.91C213.861 171.91 210.811 168.83 210.811 165.03C210.811 161.23 213.861 158.15 217.631 158.15C221.401 158.15 224.451 161.23 224.451 165.03C224.451 168.83 221.401 171.91 217.631 171.91Z" fill="#E8E8E8"/>
<path d="M217.631 3.88C214.931 3.88 212.631 2.29 211.521 0H223.751C222.641 2.29 220.331 3.88 217.641 3.88H217.631Z" fill="#E8E8E8"/>
<path d="M170.051 150.34C171.931 147.05 176.111 145.92 179.371 147.82C182.631 149.72 183.751 153.93 181.871 157.21C179.991 160.5 175.811 161.63 172.551 159.73C169.291 157.83 168.171 153.62 170.051 150.34Z" fill="#E8E8E8"/>
<path d="M255.891 14.2098C252.631 12.3098 251.511 8.09981 253.391 4.81981C255.271 1.52981 259.451 0.399812 262.711 2.29981C265.971 4.19981 267.091 8.40981 265.211 11.6898C263.331 14.9798 259.151 16.1098 255.891 14.2098Z" fill="#E8E8E8"/>
<path d="M148.861 128.98C145.601 130.88 141.421 129.75 139.541 126.46C137.661 123.17 138.771 118.96 142.041 117.07C145.311 115.18 149.481 116.3 151.361 119.59C153.241 122.88 152.131 127.09 148.861 128.98Z" fill="#E8E8E8"/>
<path d="M283.901 42.4501C282.021 39.1601 283.131 34.9501 286.401 33.0601C289.661 31.1601 293.84 32.2901 295.72 35.5801C297.6 38.8701 296.49 43.0801 293.22 44.9701C289.96 46.8701 285.781 45.7401 283.901 42.4501Z" fill="#E8E8E8"/>
<path d="M141.101 81.0201C141.101 84.8201 138.051 87.9001 134.281 87.9001C130.511 87.9001 127.461 84.8201 127.461 81.0201C127.461 77.2201 130.511 74.1401 134.281 74.1401C138.051 74.1401 141.101 77.2201 141.101 81.0201Z" fill="#E8E8E8"/>
<path d="M294.16 81.0198C294.16 78.6298 295.37 76.5398 297.2 75.2998V86.7398C295.37 85.5098 294.16 83.4098 294.16 81.0198Z" fill="#E8E8E8"/>
<path d="M142.041 44.9598C138.781 43.0598 137.661 38.8498 139.541 35.5698C141.421 32.2798 145.601 31.1498 148.861 33.0498C152.121 34.9498 153.241 39.1598 151.361 42.4398C149.481 45.7298 145.301 46.8598 142.041 44.9598Z" fill="#E8E8E8"/>
<path d="M283.9 119.58C285.78 116.29 289.96 115.16 293.22 117.06C296.48 118.96 297.6 123.17 295.72 126.45C293.84 129.74 289.66 130.87 286.4 128.97C283.14 127.07 282.02 122.86 283.9 119.58Z" fill="#E8E8E8"/>
<path d="M179.371 14.2098C176.111 16.1098 171.931 14.9798 170.051 11.6898C168.171 8.39976 169.281 4.18976 172.551 2.29976C175.821 0.409763 179.991 1.52976 181.871 4.81976C183.751 8.10976 182.641 12.3198 179.371 14.2098Z" fill="#E8E8E8"/>
<path d="M255.891 147.82C259.151 145.92 263.331 147.05 265.211 150.34C267.091 153.63 265.981 157.84 262.711 159.73C259.451 161.63 255.271 160.5 253.391 157.21C251.511 153.92 252.621 149.71 255.891 147.82Z" fill="#E8E8E8"/>
<path d="M217.631 145.55C214.951 145.55 212.791 143.36 212.791 140.67C212.791 137.98 214.961 135.79 217.631 135.79C220.301 135.79 222.471 137.98 222.471 140.67C222.471 143.36 220.301 145.55 217.631 145.55Z" fill="#E8E8E8"/>
<path d="M217.631 26.2502C214.951 26.2502 212.791 24.0602 212.791 21.3702C212.791 18.6802 214.961 16.4902 217.631 16.4902C220.301 16.4902 222.471 18.6802 222.471 21.3702C222.471 24.0602 220.301 26.2502 217.631 26.2502Z" fill="#E8E8E8"/>
<path d="M190.46 128.45C192.78 129.8 193.57 132.78 192.23 135.12C190.89 137.46 187.93 138.26 185.61 136.91C183.29 135.56 182.5 132.58 183.84 130.24C185.18 127.9 188.14 127.1 190.46 128.45Z" fill="#E8E8E8"/>
<path d="M244.801 33.5901C242.481 32.2401 241.691 29.2601 243.031 26.9201C244.371 24.5801 247.331 23.7801 249.651 25.1301C251.971 26.4801 252.761 29.4601 251.421 31.8001C250.081 34.1401 247.121 34.9401 244.801 33.5901Z" fill="#E8E8E8"/>
<path d="M163.961 106.61C166.281 105.26 169.241 106.06 170.581 108.4C171.921 110.74 171.121 113.72 168.811 115.07C166.491 116.42 163.531 115.62 162.191 113.28C160.851 110.94 161.651 107.96 163.961 106.61Z" fill="#E8E8E8"/>
<path d="M271.301 55.4202C268.981 56.7702 266.021 55.9702 264.681 53.6302C263.341 51.2902 264.141 48.3102 266.451 46.9602C268.771 45.6102 271.731 46.4102 273.071 48.7502C274.411 51.0902 273.611 54.0702 271.301 55.4202Z" fill="#E8E8E8"/>
<path d="M163.301 81.0201C163.301 83.7201 161.131 85.9001 158.461 85.9001C155.791 85.9001 153.621 83.7101 153.621 81.0201C153.621 78.3301 155.791 76.1401 158.461 76.1401C161.131 76.1401 163.301 78.3301 163.301 81.0201Z" fill="#E8E8E8"/>
<path d="M276.811 85.9001C274.131 85.9001 271.971 83.7101 271.971 81.0201C271.971 78.3301 274.141 76.1401 276.811 76.1401C279.481 76.1401 281.651 78.3301 281.651 81.0201C281.651 83.7101 279.481 85.9001 276.811 85.9001Z" fill="#E8E8E8"/>
<path d="M170.581 53.6302C169.241 55.9702 166.281 56.7702 163.961 55.4202C161.641 54.0702 160.851 51.0902 162.191 48.7502C163.531 46.4102 166.491 45.6102 168.811 46.9602C171.131 48.3102 171.921 51.2902 170.581 53.6302Z" fill="#E8E8E8"/>
<path d="M271.3 106.61C273.62 107.96 274.41 110.94 273.07 113.28C271.73 115.62 268.77 116.42 266.45 115.07C264.13 113.72 263.34 110.74 264.68 108.4C266.02 106.06 268.98 105.26 271.3 106.61Z" fill="#E8E8E8"/>
<path d="M190.462 33.5901C188.142 34.9401 185.182 34.1401 183.842 31.8001C182.502 29.4601 183.302 26.4801 185.612 25.1301C187.932 23.7801 190.892 24.5801 192.232 26.9201C193.572 29.2601 192.772 32.2401 190.462 33.5901Z" fill="#E8E8E8"/>
<path d="M244.801 128.45C247.121 127.1 250.081 127.9 251.421 130.24C252.761 132.58 251.961 135.56 249.651 136.91C247.331 138.26 244.371 137.46 243.031 135.12C241.691 132.78 242.491 129.8 244.801 128.45Z" fill="#E8E8E8"/>
<path d="M220.94 121.72C220.94 123.56 219.46 125.05 217.63 125.05C215.8 125.05 214.32 123.56 214.32 121.72C214.32 119.88 215.8 118.39 217.63 118.39C219.46 118.39 220.94 119.88 220.94 121.72Z" fill="#E8E8E8"/>
<path d="M217.63 36.98C219.46 36.98 220.94 38.47 220.94 40.31C220.94 42.15 219.46 43.64 217.63 43.64C215.8 43.64 214.32 42.15 214.32 40.31C214.32 38.47 215.8 36.98 217.63 36.98Z" fill="#E8E8E8"/>
<path d="M199.091 113.38C200.671 114.3 201.211 116.34 200.301 117.93C199.391 119.52 197.371 120.07 195.781 119.15C194.201 118.23 193.661 116.19 194.571 114.6C195.481 113.01 197.501 112.46 199.091 113.38Z" fill="#E8E8E8"/>
<path d="M239.47 42.8801C241.05 43.8001 241.59 45.8401 240.68 47.4301C239.77 49.0201 237.75 49.5701 236.16 48.6501C234.58 47.7301 234.04 45.6901 234.95 44.1001C235.86 42.5101 237.88 41.9601 239.47 42.8801Z" fill="#E8E8E8"/>
<path d="M184.311 104.25C182.731 105.17 180.712 104.62 179.792 103.03C178.882 101.44 179.422 99.4002 181.002 98.4802C182.582 97.5602 184.602 98.1102 185.522 99.7002C186.432 101.29 185.891 103.33 184.311 104.25Z" fill="#E8E8E8"/>
<path d="M250.951 57.78C252.531 56.86 254.551 57.41 255.471 59C256.381 60.59 255.841 62.63 254.261 63.55C252.681 64.47 250.661 63.92 249.741 62.33C248.831 60.74 249.371 58.7 250.951 57.78Z" fill="#E8E8E8"/>
<path d="M173.941 81.0199C173.941 79.1799 175.421 77.6899 177.251 77.6899C179.081 77.6899 180.561 79.1799 180.561 81.0199C180.561 82.8599 179.081 84.3499 177.251 84.3499C175.421 84.3499 173.941 82.8599 173.941 81.0199Z" fill="#E8E8E8"/>
<path d="M258.011 77.6802C259.841 77.6802 261.321 79.1702 261.321 81.0102C261.321 82.8502 259.841 84.3402 258.011 84.3402C256.181 84.3402 254.701 82.8502 254.701 81.0102C254.701 79.1702 256.181 77.6802 258.011 77.6802Z" fill="#E8E8E8"/>
<path d="M181.011 63.55C179.431 62.63 178.891 60.59 179.801 59C180.711 57.41 182.731 56.86 184.321 57.78C185.901 58.7 186.441 60.74 185.531 62.33C184.621 63.92 182.601 64.47 181.011 63.55Z" fill="#E8E8E8"/>
<path d="M250.951 104.25C249.371 103.33 248.831 101.29 249.741 99.7002C250.651 98.1102 252.671 97.5602 254.261 98.4802C255.841 99.4002 256.381 101.44 255.471 103.03C254.561 104.62 252.541 105.17 250.951 104.25Z" fill="#E8E8E8"/>
<path d="M199.091 48.6501C197.511 49.5701 195.491 49.0201 194.571 47.4301C193.661 45.8401 194.201 43.8001 195.781 42.8801C197.361 41.9601 199.381 42.5101 200.301 44.1001C201.211 45.6901 200.671 47.7301 199.091 48.6501Z" fill="#E8E8E8"/>
<path d="M236.171 113.38C237.751 112.46 239.771 113.01 240.691 114.6C241.601 116.19 241.061 118.23 239.481 119.15C237.901 120.07 235.881 119.52 234.961 117.93C234.051 116.34 234.591 114.3 236.171 113.38Z" fill="#E8E8E8"/>
<path d="M217.63 109.58C216.45 109.58 215.49 108.61 215.49 107.42C215.49 106.23 216.45 105.26 217.63 105.26C218.81 105.26 219.771 106.23 219.771 107.42C219.771 108.61 218.81 109.58 217.63 109.58Z" fill="#E8E8E8"/>
<path d="M217.63 56.78C216.45 56.78 215.49 55.81 215.49 54.62C215.49 53.43 216.45 52.46 217.63 52.46C218.81 52.46 219.771 53.43 219.771 54.62C219.771 55.81 218.81 56.78 217.63 56.78Z" fill="#E8E8E8"/>
<path d="M203.46 105.75C202.43 105.15 202.08 103.83 202.68 102.8C203.27 101.77 204.58 101.41 205.61 102.01C206.64 102.61 206.99 103.93 206.39 104.96C205.8 105.99 204.49 106.35 203.46 105.75Z" fill="#E8E8E8"/>
<path d="M229.652 60.02C228.622 59.42 228.271 58.1001 228.871 57.0701C229.471 56.0401 230.772 55.6801 231.802 56.2801C232.832 56.8801 233.181 58.2 232.581 59.23C231.991 60.26 230.682 60.62 229.652 60.02Z" fill="#E8E8E8"/>
<path d="M193.881 92.3401C194.911 91.7401 196.221 92.1001 196.811 93.1301C197.401 94.1601 197.051 95.4901 196.031 96.0801C195.001 96.6801 193.691 96.3201 193.101 95.2901C192.511 94.2601 192.861 92.9301 193.881 92.3401Z" fill="#E8E8E8"/>
<path d="M241.381 69.69C240.351 70.29 239.041 69.93 238.451 68.9C237.861 67.87 238.211 66.54 239.231 65.95C240.261 65.35 241.571 65.71 242.161 66.74C242.751 67.77 242.401 69.1 241.381 69.69Z" fill="#E8E8E8"/>
<path d="M193.581 81.0199C193.581 82.2099 192.621 83.1799 191.441 83.1799C190.261 83.1799 189.301 82.2099 189.301 81.0199C189.301 79.8299 190.261 78.8599 191.441 78.8599C192.621 78.8599 193.581 79.8299 193.581 81.0199Z" fill="#E8E8E8"/>
<path d="M243.82 78.8501C245 78.8501 245.96 79.8201 245.96 81.0101C245.96 82.2001 245 83.1701 243.82 83.1701C242.64 83.1701 241.68 82.2001 241.68 81.0101C241.68 79.8201 242.64 78.8501 243.82 78.8501Z" fill="#E8E8E8"/>
<path d="M196.02 65.9402C197.05 66.5402 197.4 67.8602 196.8 68.8902C196.21 69.9202 194.9 70.2802 193.87 69.6802C192.84 69.0802 192.49 67.7602 193.09 66.7302C193.68 65.7002 194.99 65.3402 196.02 65.9402Z" fill="#E8E8E8"/>
<path d="M239.241 96.0899C238.211 95.4899 237.861 94.1699 238.461 93.1399C239.051 92.1099 240.361 91.7499 241.391 92.3499C242.421 92.9499 242.771 94.2699 242.171 95.2999C241.581 96.3299 240.271 96.6899 239.241 96.0899Z" fill="#E8E8E8"/>
<path d="M205.611 60.02C204.581 60.62 203.271 60.26 202.681 59.23C202.091 58.2 202.441 56.8701 203.461 56.2801C204.491 55.6801 205.801 56.0401 206.391 57.0701C206.981 58.1001 206.631 59.43 205.611 60.02Z" fill="#E8E8E8"/>
<path d="M231.801 105.75C230.771 106.35 229.461 105.99 228.871 104.96C228.281 103.93 228.631 102.6 229.651 102.01C230.681 101.41 231.991 101.77 232.581 102.8C233.171 103.83 232.821 105.16 231.801 105.75Z" fill="#E8E8E8"/>
</g>
</svg>
