<svg width="123" height="519" viewBox="0 0 123 519" fill="none" xmlns="http://www.w3.org/2000/svg">
<g opacity="0.2">
<path d="M120.085 312.791C121.143 312.791 122.001 311.933 122.001 310.875C122.001 309.817 121.143 308.959 120.085 308.959C119.027 308.959 118.17 309.817 118.17 310.875C118.17 311.933 119.027 312.791 120.085 312.791Z" fill="#E8E8E8"/>
<path d="M120.085 278.46C121.143 278.46 122.001 277.602 122.001 276.544C122.001 275.486 121.143 274.628 120.085 274.628C119.027 274.628 118.17 275.486 118.17 276.544C118.17 277.602 119.027 278.46 120.085 278.46Z" fill="#E8E8E8"/>
<path d="M120.085 244.129C121.143 244.129 122.001 243.271 122.001 242.213C122.001 241.155 121.143 240.297 120.085 240.297C119.027 240.297 118.17 241.155 118.17 242.213C118.17 243.271 119.027 244.129 120.085 244.129Z" fill="#E8E8E8"/>
<path d="M120.085 209.797C121.143 209.797 122.001 208.94 122.001 207.882C122.001 206.824 121.143 205.966 120.085 205.966C119.027 205.966 118.17 206.824 118.17 207.882C118.17 208.94 119.027 209.797 120.085 209.797Z" fill="#E8E8E8"/>
<path d="M120.085 175.488C121.143 175.488 122.001 174.63 122.001 173.572C122.001 172.514 121.143 171.656 120.085 171.656C119.027 171.656 118.17 172.514 118.17 173.572C118.17 174.63 119.027 175.488 120.085 175.488Z" fill="#E8E8E8"/>
<path d="M120.085 450.116C121.143 450.116 122.001 449.258 122.001 448.2C122.001 447.142 121.143 446.285 120.085 446.285C119.027 446.285 118.17 447.142 118.17 448.2C118.17 449.258 119.027 450.116 120.085 450.116Z" fill="#E8E8E8"/>
<path d="M120.085 415.785C121.143 415.785 122.001 414.927 122.001 413.869C122.001 412.811 121.143 411.954 120.085 411.954C119.027 411.954 118.17 412.811 118.17 413.869C118.17 414.927 119.027 415.785 120.085 415.785Z" fill="#E8E8E8"/>
<path d="M120.085 518.778C121.143 518.778 122.001 517.921 122.001 516.863C122.001 515.805 121.143 514.947 120.085 514.947C119.027 514.947 118.17 515.805 118.17 516.863C118.17 517.921 119.027 518.778 120.085 518.778Z" fill="#E8E8E8"/>
<path d="M120.085 484.447C121.143 484.447 122.001 483.59 122.001 482.532C122.001 481.474 121.143 480.616 120.085 480.616C119.027 480.616 118.17 481.474 118.17 482.532C118.17 483.59 119.027 484.447 120.085 484.447Z" fill="#E8E8E8"/>
<path d="M120.085 381.453C121.143 381.453 122.001 380.596 122.001 379.538C122.001 378.48 121.143 377.622 120.085 377.622C119.027 377.622 118.17 378.48 118.17 379.538C118.17 380.596 119.027 381.453 120.085 381.453Z" fill="#E8E8E8"/>
<path d="M120.085 347.122C121.143 347.122 122.001 346.265 122.001 345.207C122.001 344.149 121.143 343.291 120.085 343.291C119.027 343.291 118.17 344.149 118.17 345.207C118.17 346.265 119.027 347.122 120.085 347.122Z" fill="#E8E8E8"/>
<path d="M120.085 141.156C121.143 141.156 122.001 140.299 122.001 139.241C122.001 138.183 121.143 137.325 120.085 137.325C119.027 137.325 118.17 138.183 118.17 139.241C118.17 140.299 119.027 141.156 120.085 141.156Z" fill="#E8E8E8"/>
<path d="M120.085 106.825C121.143 106.825 122.001 105.967 122.001 104.909C122.001 103.851 121.143 102.994 120.085 102.994C119.027 102.994 118.17 103.851 118.17 104.909C118.17 105.967 119.027 106.825 120.085 106.825Z" fill="#E8E8E8"/>
<path d="M120.085 72.4942C121.143 72.4942 122.001 71.6363 122.001 70.5783C122.001 69.5203 121.143 68.6628 120.085 68.6628C119.027 68.6628 118.17 69.5203 118.17 70.5783C118.17 71.6363 119.027 72.4942 120.085 72.4942Z" fill="#E8E8E8"/>
<path d="M120.085 38.1624C121.143 38.1624 122.001 37.305 122.001 36.247C122.001 35.189 121.143 34.3311 120.085 34.3311C119.027 34.3311 118.17 35.189 118.17 36.247C118.17 37.305 119.027 38.1624 120.085 38.1624Z" fill="#E8E8E8"/>
<path d="M120.085 3.83138C121.143 3.83138 122.001 2.97395 122.001 1.91596C122.001 0.857965 121.143 0 120.085 0C119.027 0 118.17 0.857965 118.17 1.91596C118.17 2.97395 119.027 3.83138 120.085 3.83138Z" fill="#E8E8E8"/>
<path d="M90.5307 329.967C91.5887 329.967 92.4466 329.11 92.4466 328.052C92.4466 326.994 91.5887 326.136 90.5307 326.136C89.4727 326.136 88.6152 326.994 88.6152 328.052C88.6152 329.11 89.4727 329.967 90.5307 329.967Z" fill="#E8E8E8"/>
<path d="M90.5307 295.636C91.5887 295.636 92.4466 294.778 92.4466 293.72C92.4466 292.662 91.5887 291.805 90.5307 291.805C89.4727 291.805 88.6152 292.662 88.6152 293.72C88.6152 294.778 89.4727 295.636 90.5307 295.636Z" fill="#E8E8E8"/>
<path d="M90.5307 261.305C91.5887 261.305 92.4466 260.447 92.4466 259.389C92.4466 258.331 91.5887 257.474 90.5307 257.474C89.4727 257.474 88.6152 258.331 88.6152 259.389C88.6152 260.447 89.4727 261.305 90.5307 261.305Z" fill="#E8E8E8"/>
<path d="M90.5307 226.973C91.5887 226.973 92.4466 226.116 92.4466 225.058C92.4466 224 91.5887 223.143 90.5307 223.143C89.4727 223.143 88.6152 224 88.6152 225.058C88.6152 226.116 89.4727 226.973 90.5307 226.973Z" fill="#E8E8E8"/>
<path d="M90.5307 192.642C91.5887 192.642 92.4466 191.785 92.4466 190.727C92.4466 189.669 91.5887 188.811 90.5307 188.811C89.4727 188.811 88.6152 189.669 88.6152 190.727C88.6152 191.785 89.4727 192.642 90.5307 192.642Z" fill="#E8E8E8"/>
<path d="M90.5307 467.271C91.5887 467.271 92.4466 466.413 92.4466 465.355C92.4466 464.297 91.5887 463.439 90.5307 463.439C89.4727 463.439 88.6152 464.297 88.6152 465.355C88.6152 466.413 89.4727 467.271 90.5307 467.271Z" fill="#E8E8E8"/>
<path d="M90.5307 432.961C91.5887 432.961 92.4466 432.103 92.4466 431.045C92.4466 429.987 91.5887 429.13 90.5307 429.13C89.4727 429.13 88.6152 429.987 88.6152 431.045C88.6152 432.103 89.4727 432.961 90.5307 432.961Z" fill="#E8E8E8"/>
<path d="M90.5307 501.602C91.5887 501.602 92.4466 500.744 92.4466 499.686C92.4466 498.628 91.5887 497.771 90.5307 497.771C89.4727 497.771 88.6152 498.628 88.6152 499.686C88.6152 500.744 89.4727 501.602 90.5307 501.602Z" fill="#E8E8E8"/>
<path d="M90.5307 398.63C91.5887 398.63 92.4466 397.772 92.4466 396.714C92.4466 395.656 91.5887 394.799 90.5307 394.799C89.4727 394.799 88.6152 395.656 88.6152 396.714C88.6152 397.772 89.4727 398.63 90.5307 398.63Z" fill="#E8E8E8"/>
<path d="M90.5307 364.298C91.5887 364.298 92.4466 363.441 92.4466 362.383C92.4466 361.325 91.5887 360.467 90.5307 360.467C89.4727 360.467 88.6152 361.325 88.6152 362.383C88.6152 363.441 89.4727 364.298 90.5307 364.298Z" fill="#E8E8E8"/>
<path d="M90.5307 158.311C91.5887 158.311 92.4466 157.454 92.4466 156.396C92.4466 155.338 91.5887 154.48 90.5307 154.48C89.4727 154.48 88.6152 155.338 88.6152 156.396C88.6152 157.454 89.4727 158.311 90.5307 158.311Z" fill="#E8E8E8"/>
<path d="M90.5307 123.98C91.5887 123.98 92.4466 123.122 92.4466 122.064C92.4466 121.006 91.5887 120.149 90.5307 120.149C89.4727 120.149 88.6152 121.006 88.6152 122.064C88.6152 123.122 89.4727 123.98 90.5307 123.98Z" fill="#E8E8E8"/>
<path d="M90.5307 89.649C91.5887 89.649 92.4466 88.791 92.4466 87.7331C92.4466 86.6751 91.5887 85.8176 90.5307 85.8176C89.4727 85.8176 88.6152 86.6751 88.6152 87.7331C88.6152 88.791 89.4727 89.649 90.5307 89.649Z" fill="#E8E8E8"/>
<path d="M90.5307 55.3172C91.5887 55.3172 92.4466 54.4597 92.4466 53.4018C92.4466 52.3438 91.5887 51.4863 90.5307 51.4863C89.4727 51.4863 88.6152 52.3438 88.6152 53.4018C88.6152 54.4597 89.4727 55.3172 90.5307 55.3172Z" fill="#E8E8E8"/>
<path d="M90.5307 20.9862C91.5887 20.9862 92.4466 20.1287 92.4466 19.0707C92.4466 18.0128 91.5887 17.1548 90.5307 17.1548C89.4727 17.1548 88.6152 18.0128 88.6152 19.0707C88.6152 20.1287 89.4727 20.9862 90.5307 20.9862Z" fill="#E8E8E8"/>
<path d="M60.9994 312.791C62.0574 312.791 62.9148 311.933 62.9148 310.875C62.9148 309.817 62.0574 308.959 60.9994 308.959C59.9414 308.959 59.084 309.817 59.084 310.875C59.084 311.933 59.9414 312.791 60.9994 312.791Z" fill="#E8E8E8"/>
<path d="M60.9994 278.46C62.0574 278.46 62.9148 277.602 62.9148 276.544C62.9148 275.486 62.0574 274.628 60.9994 274.628C59.9414 274.628 59.084 275.486 59.084 276.544C59.084 277.602 59.9414 278.46 60.9994 278.46Z" fill="#E8E8E8"/>
<path d="M60.9994 244.129C62.0574 244.129 62.9148 243.271 62.9148 242.213C62.9148 241.155 62.0574 240.297 60.9994 240.297C59.9414 240.297 59.084 241.155 59.084 242.213C59.084 243.271 59.9414 244.129 60.9994 244.129Z" fill="#E8E8E8"/>
<path d="M60.9994 209.797C62.0574 209.797 62.9148 208.94 62.9148 207.882C62.9148 206.824 62.0574 205.966 60.9994 205.966C59.9414 205.966 59.084 206.824 59.084 207.882C59.084 208.94 59.9414 209.797 60.9994 209.797Z" fill="#E8E8E8"/>
<path d="M60.9994 175.488C62.0574 175.488 62.9148 174.63 62.9148 173.572C62.9148 172.514 62.0574 171.656 60.9994 171.656C59.9414 171.656 59.084 172.514 59.084 173.572C59.084 174.63 59.9414 175.488 60.9994 175.488Z" fill="#E8E8E8"/>
<path d="M60.9994 450.116C62.0574 450.116 62.9148 449.258 62.9148 448.2C62.9148 447.142 62.0574 446.285 60.9994 446.285C59.9414 446.285 59.084 447.142 59.084 448.2C59.084 449.258 59.9414 450.116 60.9994 450.116Z" fill="#E8E8E8"/>
<path d="M60.9994 415.785C62.0574 415.785 62.9148 414.927 62.9148 413.869C62.9148 412.811 62.0574 411.954 60.9994 411.954C59.9414 411.954 59.084 412.811 59.084 413.869C59.084 414.927 59.9414 415.785 60.9994 415.785Z" fill="#E8E8E8"/>
<path d="M60.9994 484.447C62.0574 484.447 62.9148 483.59 62.9148 482.532C62.9148 481.474 62.0574 480.616 60.9994 480.616C59.9414 480.616 59.084 481.474 59.084 482.532C59.084 483.59 59.9414 484.447 60.9994 484.447Z" fill="#E8E8E8"/>
<path d="M60.9994 381.453C62.0574 381.453 62.9148 380.596 62.9148 379.538C62.9148 378.48 62.0574 377.622 60.9994 377.622C59.9414 377.622 59.084 378.48 59.084 379.538C59.084 380.596 59.9414 381.453 60.9994 381.453Z" fill="#E8E8E8"/>
<path d="M60.9994 347.122C62.0574 347.122 62.9148 346.265 62.9148 345.207C62.9148 344.149 62.0574 343.291 60.9994 343.291C59.9414 343.291 59.084 344.149 59.084 345.207C59.084 346.265 59.9414 347.122 60.9994 347.122Z" fill="#E8E8E8"/>
<path d="M60.9994 141.156C62.0574 141.156 62.9148 140.299 62.9148 139.241C62.9148 138.183 62.0574 137.325 60.9994 137.325C59.9414 137.325 59.084 138.183 59.084 139.241C59.084 140.299 59.9414 141.156 60.9994 141.156Z" fill="#E8E8E8"/>
<path d="M60.9994 106.825C62.0574 106.825 62.9148 105.967 62.9148 104.909C62.9148 103.851 62.0574 102.994 60.9994 102.994C59.9414 102.994 59.084 103.851 59.084 104.909C59.084 105.967 59.9414 106.825 60.9994 106.825Z" fill="#E8E8E8"/>
<path d="M60.9994 72.4942C62.0574 72.4942 62.9148 71.6363 62.9148 70.5783C62.9148 69.5203 62.0574 68.6628 60.9994 68.6628C59.9414 68.6628 59.084 69.5203 59.084 70.5783C59.084 71.6363 59.9414 72.4942 60.9994 72.4942Z" fill="#E8E8E8"/>
<path d="M60.9994 38.1624C62.0574 38.1624 62.9148 37.305 62.9148 36.247C62.9148 35.189 62.0574 34.3311 60.9994 34.3311C59.9414 34.3311 59.084 35.189 59.084 36.247C59.084 37.305 59.9414 38.1624 60.9994 38.1624Z" fill="#E8E8E8"/>
<path d="M60.9994 3.83138C62.0574 3.83138 62.9148 2.97395 62.9148 1.91596C62.9148 0.857965 62.0574 0 60.9994 0C59.9414 0 59.084 0.857965 59.084 1.91596C59.084 2.97395 59.9414 3.83138 60.9994 3.83138Z" fill="#E8E8E8"/>
<path d="M31.4252 329.967C32.4832 329.967 33.3406 329.11 33.3406 328.052C33.3406 326.994 32.4832 326.136 31.4252 326.136C30.3672 326.136 29.5098 326.994 29.5098 328.052C29.5098 329.11 30.3672 329.967 31.4252 329.967Z" fill="#E8E8E8"/>
<path d="M31.4252 295.636C32.4832 295.636 33.3406 294.778 33.3406 293.72C33.3406 292.662 32.4832 291.805 31.4252 291.805C30.3672 291.805 29.5098 292.662 29.5098 293.72C29.5098 294.778 30.3672 295.636 31.4252 295.636Z" fill="#E8E8E8"/>
<path d="M31.4252 261.305C32.4832 261.305 33.3406 260.447 33.3406 259.389C33.3406 258.331 32.4832 257.474 31.4252 257.474C30.3672 257.474 29.5098 258.331 29.5098 259.389C29.5098 260.447 30.3672 261.305 31.4252 261.305Z" fill="#E8E8E8"/>
<path d="M31.4252 226.973C32.4832 226.973 33.3406 226.116 33.3406 225.058C33.3406 224 32.4832 223.143 31.4252 223.143C30.3672 223.143 29.5098 224 29.5098 225.058C29.5098 226.116 30.3672 226.973 31.4252 226.973Z" fill="#E8E8E8"/>
<path d="M31.4252 192.642C32.4832 192.642 33.3406 191.785 33.3406 190.727C33.3406 189.669 32.4832 188.811 31.4252 188.811C30.3672 188.811 29.5098 189.669 29.5098 190.727C29.5098 191.785 30.3672 192.642 31.4252 192.642Z" fill="#E8E8E8"/>
<path d="M31.4252 467.271C32.4832 467.271 33.3406 466.413 33.3406 465.355C33.3406 464.297 32.4832 463.439 31.4252 463.439C30.3672 463.439 29.5098 464.297 29.5098 465.355C29.5098 466.413 30.3672 467.271 31.4252 467.271Z" fill="#E8E8E8"/>
<path d="M31.4252 432.961C32.4832 432.961 33.3406 432.103 33.3406 431.045C33.3406 429.987 32.4832 429.13 31.4252 429.13C30.3672 429.13 29.5098 429.987 29.5098 431.045C29.5098 432.103 30.3672 432.961 31.4252 432.961Z" fill="#E8E8E8"/>
<path d="M31.4252 398.63C32.4832 398.63 33.3406 397.772 33.3406 396.714C33.3406 395.656 32.4832 394.799 31.4252 394.799C30.3672 394.799 29.5098 395.656 29.5098 396.714C29.5098 397.772 30.3672 398.63 31.4252 398.63Z" fill="#E8E8E8"/>
<path d="M31.4252 364.298C32.4832 364.298 33.3406 363.441 33.3406 362.383C33.3406 361.325 32.4832 360.467 31.4252 360.467C30.3672 360.467 29.5098 361.325 29.5098 362.383C29.5098 363.441 30.3672 364.298 31.4252 364.298Z" fill="#E8E8E8"/>
<path d="M31.4252 158.311C32.4832 158.311 33.3406 157.454 33.3406 156.396C33.3406 155.338 32.4832 154.48 31.4252 154.48C30.3672 154.48 29.5098 155.338 29.5098 156.396C29.5098 157.454 30.3672 158.311 31.4252 158.311Z" fill="#E8E8E8"/>
<path d="M31.4252 123.98C32.4832 123.98 33.3406 123.122 33.3406 122.064C33.3406 121.006 32.4832 120.149 31.4252 120.149C30.3672 120.149 29.5098 121.006 29.5098 122.064C29.5098 123.122 30.3672 123.98 31.4252 123.98Z" fill="#E8E8E8"/>
<path d="M31.4252 89.649C32.4832 89.649 33.3406 88.791 33.3406 87.7331C33.3406 86.6751 32.4832 85.8176 31.4252 85.8176C30.3672 85.8176 29.5098 86.6751 29.5098 87.7331C29.5098 88.791 30.3672 89.649 31.4252 89.649Z" fill="#E8E8E8"/>
<path d="M31.4252 55.3172C32.4832 55.3172 33.3406 54.4597 33.3406 53.4018C33.3406 52.3438 32.4832 51.4863 31.4252 51.4863C30.3672 51.4863 29.5098 52.3438 29.5098 53.4018C29.5098 54.4597 30.3672 55.3172 31.4252 55.3172Z" fill="#E8E8E8"/>
<path d="M31.4252 20.9862C32.4832 20.9862 33.3406 20.1287 33.3406 19.0707C33.3406 18.0128 32.4832 17.1548 31.4252 17.1548C30.3672 17.1548 29.5098 18.0128 29.5098 19.0707C29.5098 20.1287 30.3672 20.9862 31.4252 20.9862Z" fill="#E8E8E8"/>
<path d="M1.91596 312.791C2.97395 312.791 3.83138 311.933 3.83138 310.875C3.83138 309.817 2.97395 308.959 1.91596 308.959C0.857965 308.959 0 309.817 0 310.875C0 311.933 0.857965 312.791 1.91596 312.791Z" fill="#E8E8E8"/>
<path d="M1.91596 278.46C2.97395 278.46 3.83138 277.602 3.83138 276.544C3.83138 275.486 2.97395 274.628 1.91596 274.628C0.857965 274.628 0 275.486 0 276.544C0 277.602 0.857965 278.46 1.91596 278.46Z" fill="#E8E8E8"/>
<path d="M1.91596 244.129C2.97395 244.129 3.83138 243.271 3.83138 242.213C3.83138 241.155 2.97395 240.297 1.91596 240.297C0.857965 240.297 0 241.155 0 242.213C0 243.271 0.857965 244.129 1.91596 244.129Z" fill="#E8E8E8"/>
<path d="M1.91596 209.797C2.97395 209.797 3.83138 208.94 3.83138 207.882C3.83138 206.824 2.97395 205.966 1.91596 205.966C0.857965 205.966 0 206.824 0 207.882C0 208.94 0.857965 209.797 1.91596 209.797Z" fill="#E8E8E8"/>
<path d="M1.91596 175.488C2.97395 175.488 3.83138 174.63 3.83138 173.572C3.83138 172.514 2.97395 171.656 1.91596 171.656C0.857965 171.656 0 172.514 0 173.572C0 174.63 0.857965 175.488 1.91596 175.488Z" fill="#E8E8E8"/>
<path d="M1.91596 450.116C2.97395 450.116 3.83138 449.258 3.83138 448.2C3.83138 447.142 2.97395 446.285 1.91596 446.285C0.857965 446.285 0 447.142 0 448.2C0 449.258 0.857965 450.116 1.91596 450.116Z" fill="#E8E8E8"/>
<path d="M1.91596 415.785C2.97395 415.785 3.83138 414.927 3.83138 413.869C3.83138 412.811 2.97395 411.954 1.91596 411.954C0.857965 411.954 0 412.811 0 413.869C0 414.927 0.857965 415.785 1.91596 415.785Z" fill="#E8E8E8"/>
<path d="M1.91596 381.453C2.97395 381.453 3.83138 380.596 3.83138 379.538C3.83138 378.48 2.97395 377.622 1.91596 377.622C0.857965 377.622 0 378.48 0 379.538C0 380.596 0.857965 381.453 1.91596 381.453Z" fill="#E8E8E8"/>
<path d="M1.91596 347.122C2.97395 347.122 3.83138 346.265 3.83138 345.207C3.83138 344.149 2.97395 343.291 1.91596 343.291C0.857965 343.291 0 344.149 0 345.207C0 346.265 0.857965 347.122 1.91596 347.122Z" fill="#E8E8E8"/>
<path d="M1.91596 141.156C2.97395 141.156 3.83138 140.299 3.83138 139.241C3.83138 138.183 2.97395 137.325 1.91596 137.325C0.857965 137.325 0 138.183 0 139.241C0 140.299 0.857965 141.156 1.91596 141.156Z" fill="#E8E8E8"/>
<path d="M1.91596 106.825C2.97395 106.825 3.83138 105.967 3.83138 104.909C3.83138 103.851 2.97395 102.994 1.91596 102.994C0.857965 102.994 0 103.851 0 104.909C0 105.967 0.857965 106.825 1.91596 106.825Z" fill="#E8E8E8"/>
<path d="M1.91596 72.4942C2.97395 72.4942 3.83138 71.6363 3.83138 70.5783C3.83138 69.5203 2.97395 68.6628 1.91596 68.6628C0.857965 68.6628 0 69.5203 0 70.5783C0 71.6363 0.857965 72.4942 1.91596 72.4942Z" fill="#E8E8E8"/>
<path d="M1.91596 38.1624C2.97395 38.1624 3.83138 37.305 3.83138 36.247C3.83138 35.189 2.97395 34.3311 1.91596 34.3311C0.857965 34.3311 0 35.189 0 36.247C0 37.305 0.857965 38.1624 1.91596 38.1624Z" fill="#E8E8E8"/>
<path d="M1.91596 3.83138C2.97395 3.83138 3.83138 2.97395 3.83138 1.91596C3.83138 0.857965 2.97395 0 1.91596 0C0.857965 0 0 0.857965 0 1.91596C0 2.97395 0.857965 3.83138 1.91596 3.83138Z" fill="#E8E8E8"/>
</g>
</svg>
